<svg version="1.1" id="Layer_1" xmlns="http://www.w3.org/2000/svg" xmlns:xlink="http://www.w3.org/1999/xlink" x="0px" y="0px"
	 width="100%" viewBox="0 0 1080 1080" enable-background="new 0 0 1080 1080" xml:space="preserve">
<path fill="none" opacity="1.000000" stroke="none" 
	d="
M601.000000,1081.000000 
	C400.689728,1081.000000 200.879456,1081.000000 1.034590,1081.000000 
	C1.034590,721.064575 1.034590,361.129211 1.034590,1.096903 
	C360.893829,1.096903 720.787659,1.096903 1080.840820,1.096903 
	C1080.840820,360.999939 1080.840820,720.999939 1080.840820,1081.000000 
	C921.128723,1081.000000 761.314392,1081.000000 601.000000,1081.000000 
M631.500000,233.060898 
	C500.848663,233.060715 370.197266,233.085480 239.546051,232.963699 
	C234.628830,232.959122 232.945633,234.119522 232.948883,239.325592 
	C233.074722,440.635895 233.055695,641.946228 233.067917,843.256592 
	C233.068024,845.024353 233.232422,846.792053 233.324173,848.641724 
	C438.723602,848.641724 643.598511,848.641724 848.665283,848.641724 
	C848.665283,643.404541 848.665283,438.531494 848.665283,233.061035 
	C776.384705,233.061035 704.442322,233.061035 631.500000,233.060898 
z"/>
<path fill="none" opacity="1.000000" stroke="none" 
	d="
M632.000000,233.060974 
	C704.442322,233.061035 776.384705,233.061035 848.665283,233.061035 
	C848.665283,438.531494 848.665283,643.404541 848.665283,848.641724 
	C643.598511,848.641724 438.723602,848.641724 233.324173,848.641724 
	C233.232422,846.792053 233.068024,845.024353 233.067917,843.256592 
	C233.055695,641.946228 233.074722,440.635895 232.948883,239.325592 
	C232.945633,234.119522 234.628830,232.959122 239.546051,232.963699 
	C370.197266,233.085480 500.848663,233.060715 632.000000,233.060974 
M698.727417,676.875427 
	C701.898682,672.282043 705.069885,667.688660 708.843872,662.786194 
	C710.938843,659.210388 713.033813,655.634583 715.701416,651.891113 
	C718.875305,643.725281 717.359009,635.112366 717.118286,626.873962 
	C716.508057,605.989624 711.445984,585.894775 702.788025,566.800537 
	C702.304932,565.735046 701.241455,564.932800 700.333496,563.722473 
	C700.218811,563.551514 700.095642,563.386841 700.135010,562.456970 
	C695.505127,551.455505 688.676331,542.061829 679.584106,534.317261 
	C656.762146,514.878174 630.891357,500.835907 602.683960,490.963287 
	C583.799194,484.353607 564.502808,480.125061 544.397705,483.175293 
	C534.757629,484.637817 525.282776,487.189484 515.338623,489.332916 
	C514.792725,488.295837 514.010437,486.676819 513.112793,485.124573 
	C503.439758,468.397919 491.024567,454.327240 473.863647,444.924469 
	C465.303772,440.234375 463.125854,441.030396 459.060028,449.948608 
	C452.705170,463.887787 450.351257,478.804291 448.103271,493.778137 
	C447.803772,495.773041 446.393341,498.307281 444.729523,499.284851 
	C421.067871,513.186768 402.796112,532.450439 388.290344,555.486633 
	C386.259186,558.712280 383.551910,559.998413 379.998169,561.015320 
	C368.223206,564.384827 356.373016,567.683777 344.966583,572.085083 
	C336.544128,575.334900 336.295776,577.590149 339.900330,586.000977 
	C340.358032,587.069031 340.798401,588.152283 341.356262,589.168396 
	C351.337341,607.348755 364.152527,623.130737 380.834808,635.609375 
	C384.901886,638.651550 389.071808,641.556274 393.466278,644.719971 
	C390.610992,646.709106 388.133545,648.090088 386.071594,649.935303 
	C379.487793,655.827393 378.613983,663.585510 380.411438,671.507263 
	C381.869934,677.935059 387.128510,680.892151 393.408142,681.329895 
	C400.514343,681.825195 407.665985,682.029846 414.786438,681.865540 
	C423.107574,681.673706 431.412720,680.834045 439.734192,680.562256 
	C441.143250,680.516174 443.285095,681.544739 443.915192,682.710693 
	C446.621002,687.717773 451.085419,689.242737 456.213867,690.048889 
	C468.497589,691.979675 480.193939,689.368408 492.111572,686.623291 
	C504.528564,683.763245 517.445435,682.088257 530.086914,685.177673 
	C552.777222,690.722900 575.789124,692.690369 599.019531,692.396973 
	C609.639343,692.262817 620.282166,691.453796 630.851135,690.346191 
	C648.629700,688.483093 666.363708,686.184814 684.103516,683.966370 
	C689.501709,683.291260 694.784729,682.128601 698.071411,677.088501 
	C698.071411,677.088501 698.096619,677.133545 698.727417,676.875427 
z"/>
<path fill="#3A0808" opacity="1.000000" stroke="none" 
	d="
M698.118347,677.112915 
	C694.784729,682.128601 689.501709,683.291260 684.103516,683.966370 
	C666.363708,686.184814 648.629700,688.483093 630.851135,690.346191 
	C620.282166,691.453796 609.639343,692.262817 599.019531,692.396973 
	C575.789124,692.690369 552.777222,690.722900 530.086914,685.177673 
	C517.445435,682.088257 504.528564,683.763245 492.111572,686.623291 
	C480.193939,689.368408 468.497589,691.979675 456.213867,690.048889 
	C451.085419,689.242737 446.621002,687.717773 443.915192,682.710693 
	C443.285095,681.544739 441.143250,680.516174 439.734192,680.562256 
	C431.412720,680.834045 423.107574,681.673706 414.786438,681.865540 
	C407.665985,682.029846 400.514343,681.825195 393.408142,681.329895 
	C387.128510,680.892151 381.869934,677.935059 380.411438,671.507263 
	C378.613983,663.585510 379.487793,655.827393 386.071594,649.935303 
	C388.133545,648.090088 390.610992,646.709106 393.466278,644.719971 
	C389.071808,641.556274 384.901886,638.651550 380.834808,635.609375 
	C364.152527,623.130737 351.337341,607.348755 341.356262,589.168396 
	C340.798401,588.152283 340.358032,587.069031 339.900330,586.000977 
	C336.295776,577.590149 336.544128,575.334900 344.966583,572.085083 
	C356.373016,567.683777 368.223206,564.384827 379.998169,561.015320 
	C383.551910,559.998413 386.259186,558.712280 388.290344,555.486633 
	C402.796112,532.450439 421.067871,513.186768 444.729523,499.284851 
	C446.393341,498.307281 447.803772,495.773041 448.103271,493.778137 
	C450.351257,478.804291 452.705170,463.887787 459.060028,449.948608 
	C463.125854,441.030396 465.303772,440.234375 473.863647,444.924469 
	C491.024567,454.327240 503.439758,468.397919 513.112793,485.124573 
	C514.010437,486.676819 514.792725,488.295837 515.338623,489.332916 
	C525.282776,487.189484 534.757629,484.637817 544.397705,483.175293 
	C564.502808,480.125061 583.799194,484.353607 602.683960,490.963287 
	C630.891357,500.835907 656.762146,514.878174 679.584106,534.317261 
	C688.676331,542.061829 695.505127,551.455505 700.108276,562.984741 
	C700.188721,563.688843 700.310913,563.853943 700.448181,564.007996 
	C701.241455,564.932800 702.304932,565.735046 702.788025,566.800537 
	C711.445984,585.894775 716.508057,605.989624 717.118286,626.873962 
	C717.359009,635.112366 718.875305,643.725281 715.112183,651.721802 
	C714.489319,646.017456 713.104309,642.677124 706.575500,645.867004 
	C704.959473,646.656616 702.564026,646.329285 700.645630,645.936035 
	C693.607422,644.493286 687.936707,645.538696 681.346619,649.817932 
	C669.234314,657.682922 655.490784,662.263123 641.100769,665.607056 
	C629.983093,668.190674 619.253784,669.821716 607.911316,669.447571 
	C595.623474,669.042236 583.546326,668.232361 572.193481,662.688354 
	C568.980408,657.105164 565.445129,652.041016 562.639771,646.600464 
	C561.112671,643.638977 559.140503,642.416260 556.145996,642.221069 
	C544.305115,641.448975 532.460510,641.393555 520.952209,644.656311 
	C508.835327,648.091614 496.949829,652.364136 484.785736,655.604553 
	C476.950745,657.691772 468.724762,658.270142 460.806854,660.099792 
	C454.392181,661.582031 448.928528,668.339050 448.357544,674.276672 
	C447.819489,679.872009 450.460266,682.858093 455.445801,682.498718 
	C455.445801,679.385620 454.937927,676.160095 455.664307,673.241821 
	C456.016815,671.825684 458.826691,669.910583 460.268372,670.106201 
	C463.314911,670.519531 462.025635,672.994080 461.754730,675.197266 
	C461.435303,677.794983 461.399933,681.131592 462.784241,683.011963 
	C463.889862,684.513794 467.306580,684.314209 470.063812,684.954956 
	C470.063812,681.038269 469.516724,678.061829 470.277466,675.468994 
	C470.705231,674.011047 473.292480,673.186646 474.906860,672.076782 
	C475.442017,673.687805 476.676514,675.437378 476.389435,676.885315 
	C475.237000,682.698242 476.460297,684.202454 482.121674,682.445862 
	C490.903015,679.721252 499.812805,678.508972 508.989319,678.958618 
	C510.846680,679.049561 512.729919,678.612488 515.281006,678.348511 
	C514.214722,677.022156 513.729126,676.381714 513.205994,675.773499 
	C509.785309,671.796509 508.656372,667.244690 510.777863,662.430176 
	C512.953735,657.492249 517.321289,655.566589 522.505127,655.945679 
	C528.260803,656.366516 534.021057,656.976685 539.718445,657.886108 
	C549.838074,659.501343 559.911682,661.404480 569.939331,663.560669 
	C567.352661,664.584106 564.745300,665.997131 562.327454,665.725342 
	C557.257385,665.155273 552.334961,663.242065 547.264771,662.709961 
	C538.978333,661.840088 531.134460,658.050537 522.379150,659.814087 
	C517.870544,660.722229 515.701233,662.354675 516.020752,666.839355 
	C516.323059,671.082642 516.814697,675.312378 517.296509,680.309143 
	C528.713989,677.728027 537.981079,684.388611 548.551208,685.686829 
	C564.244873,687.614380 579.925415,687.914734 595.601196,688.867981 
	C603.009644,689.318481 610.522095,688.544983 617.956848,687.946594 
	C626.181763,687.284546 634.382507,686.275146 642.574280,685.259888 
	C653.395874,683.918579 664.199097,682.428040 675.009155,680.994263 
	C680.240967,680.300415 685.483032,679.669128 690.695862,678.852661 
	C693.199402,678.460510 695.645996,677.704224 698.118347,677.112915 
M711.148804,641.399658 
	C712.013794,626.309021 710.659180,611.303040 706.346313,596.932068 
	C702.275574,583.367981 697.427307,569.830078 691.009827,557.256104 
	C687.242249,549.874084 680.249023,543.822266 673.825867,538.173706 
	C657.596191,523.901367 638.995239,513.183411 619.300903,504.451385 
	C597.855042,494.942749 575.785217,487.818420 551.846375,489.092957 
	C540.256714,489.709991 528.988159,491.748627 518.055969,496.328247 
	C525.101196,502.064209 532.272522,507.021667 538.336914,513.086060 
	C544.501038,519.250305 549.574036,526.505798 555.308167,533.507263 
	C558.720520,531.702026 562.864990,529.241394 567.258240,527.362183 
	C568.446045,526.854126 570.386902,528.106201 571.982056,528.550293 
	C571.190857,529.843994 570.677429,531.514343 569.546997,532.348145 
	C567.565613,533.809387 565.201904,534.750061 563.005371,535.921875 
	C556.018250,539.649353 556.019470,539.651672 559.554321,546.821228 
	C564.396912,545.146240 569.202515,543.323792 574.120178,541.884094 
	C575.525085,541.472839 578.185364,541.635803 578.659729,542.461060 
	C580.049133,544.877930 578.366760,546.302979 575.984619,547.169189 
	C571.028198,548.971313 566.128967,550.930847 561.276733,552.798584 
	C561.588318,557.310059 561.878784,561.516479 562.168335,565.709534 
	C562.621155,565.682739 562.827759,565.731079 562.889160,565.657715 
	C563.636719,564.765747 564.355652,563.849854 565.095886,562.951660 
	C578.266052,546.969971 594.793762,538.014832 615.909729,539.272766 
	C620.991821,539.575562 626.059326,540.856079 631.003784,542.173828 
	C632.105835,542.467529 632.661133,544.813354 633.468201,546.214294 
	C632.137756,546.849426 630.859436,547.694275 629.457764,548.042786 
	C628.584106,548.259949 627.516174,547.759094 626.548584,547.526001 
	C592.137085,539.240356 558.545532,564.932678 556.892151,600.382019 
	C555.825806,623.242798 565.836792,641.849731 578.348938,659.608459 
	C579.903381,661.814697 582.589600,664.034668 585.109863,664.574158 
	C589.829041,665.584412 594.814819,665.312073 599.682434,665.671631 
	C622.070679,667.325256 643.600830,663.448669 664.154663,654.769104 
	C671.490784,651.671204 679.504395,649.187927 684.805603,642.399475 
	C685.424988,641.606323 687.113770,640.672668 687.698303,640.976135 
	C694.906067,644.718567 702.651428,641.899658 710.435486,642.905151 
	C710.686768,642.786560 710.889343,642.611511 711.148804,641.399658 
M442.673950,651.916748 
	C445.125458,649.090576 446.123993,652.144409 447.225128,653.724548 
	C445.132050,656.256897 443.038971,658.789185 440.905304,661.370667 
	C444.112366,663.189819 446.062744,662.595215 448.788696,660.536682 
	C453.038879,657.326904 457.945801,654.397400 463.027893,653.010376 
	C471.652252,650.656372 480.698273,649.900208 489.445129,647.931030 
	C509.169556,643.490601 526.068542,634.342957 538.581848,617.891663 
	C546.898804,606.957336 550.528076,594.359924 553.084900,581.182495 
	C554.735535,572.675110 555.654968,564.236389 554.539795,555.155396 
	C550.853943,556.583374 547.691833,557.808350 544.529724,559.033386 
	C544.354004,558.646545 544.178345,558.259644 544.002625,557.872803 
	C546.773621,556.130432 550.607239,554.979614 552.003357,552.471863 
	C553.283020,550.173096 551.932190,546.409790 551.684326,542.379639 
	C546.638733,546.121582 542.902222,548.892700 539.165649,551.663818 
	C538.533813,550.946960 537.901917,550.230042 537.270020,549.513123 
	C539.971191,547.369385 542.560669,545.062256 545.399963,543.120300 
	C549.664429,540.203674 549.338806,537.218689 546.780762,533.143311 
	C539.344971,521.296997 528.763916,512.793640 517.844666,504.511475 
	C515.327271,502.602081 512.563721,500.060760 511.587646,497.232452 
	C505.689270,480.141968 493.822021,467.752502 480.344147,456.648010 
	C476.454590,453.443390 471.763275,451.211823 466.945374,448.228058 
	C465.671509,450.995270 464.676971,453.042908 463.776123,455.130981 
	C458.044556,468.415985 456.422699,482.653656 453.916473,496.710815 
	C453.463654,499.250458 451.531525,502.320618 449.365295,503.638611 
	C425.842072,517.950867 407.120911,536.981445 392.745819,560.354187 
	C390.478485,564.040588 387.481049,565.886414 383.321838,566.928589 
	C373.029022,569.507568 362.705719,572.118835 352.670837,575.529602 
	C342.913422,578.846069 343.091125,579.274719 348.117493,588.286255 
	C365.790436,619.971069 393.648529,640.220703 425.123932,656.110046 
	C435.780243,661.489563 436.147766,660.761536 442.673950,651.916748 
M391.298859,674.787964 
	C392.501312,674.787964 393.703796,674.787964 394.186096,674.787964 
	C394.867737,670.602600 395.124084,666.810120 396.276855,663.313171 
	C396.618927,662.275574 399.482544,662.069214 401.190735,661.481995 
	C401.516327,662.780579 402.052673,664.067505 402.125336,665.380066 
	C402.297089,668.483093 401.024414,672.873413 402.599304,674.385132 
	C404.557159,676.264465 408.794556,675.769043 413.099487,676.470703 
	C411.472443,669.599792 413.315948,664.942383 418.314636,661.143066 
	C413.649994,658.301147 409.529266,655.865112 405.484497,653.308899 
	C399.397858,649.462280 396.094574,649.623413 390.640320,654.199768 
	C384.326965,659.496948 384.299438,669.960266 391.298859,674.787964 
M540.821533,625.290344 
	C537.555908,628.764343 534.290283,632.238281 531.220398,635.504028 
	C539.224854,635.504028 547.580933,635.504028 556.118835,635.504028 
	C554.152466,627.789734 552.214111,620.185486 550.170227,612.167053 
	C547.107666,616.492432 544.188660,620.614990 540.821533,625.290344 
M427.713989,664.953430 
	C426.210846,664.354553 424.707703,663.755737 421.829132,662.608887 
	C420.855011,666.342407 419.838654,669.731079 419.292053,673.193848 
	C419.242767,673.506226 422.210358,674.737366 423.800171,674.786255 
	C429.460876,674.960266 429.290924,669.726746 431.541595,666.556030 
	C430.265839,665.982056 429.363251,665.575928 427.713989,664.953430 
M434.880554,672.760071 
	C436.481476,673.194153 438.524200,674.438293 439.575623,673.864868 
	C441.009491,673.082886 441.687744,670.915527 442.661804,669.386292 
	C437.832428,666.145630 436.460480,669.110535 434.880554,672.760071 
z"/>
<path fill="#360501" opacity="1.000000" stroke="none" 
	d="
M698.094849,677.100708 
	C695.645996,677.704224 693.199402,678.460510 690.695862,678.852661 
	C685.483032,679.669128 680.240967,680.300415 675.009155,680.994263 
	C664.199097,682.428040 653.395874,683.918579 642.574280,685.259888 
	C634.382507,686.275146 626.181763,687.284546 617.956848,687.946594 
	C610.522095,688.544983 603.009644,689.318481 595.601196,688.867981 
	C579.925415,687.914734 564.244873,687.614380 548.551208,685.686829 
	C537.981079,684.388611 528.713989,677.728027 517.296509,680.309143 
	C516.814697,675.312378 516.323059,671.082642 516.020752,666.839355 
	C515.701233,662.354675 517.870544,660.722229 522.379150,659.814087 
	C531.134460,658.050537 538.978333,661.840088 547.264771,662.709961 
	C552.334961,663.242065 557.257385,665.155273 562.327454,665.725342 
	C564.745300,665.997131 567.352661,664.584106 570.297241,663.495667 
	C571.205444,663.054871 571.690430,663.052673 572.175476,663.050476 
	C583.546326,668.232361 595.623474,669.042236 607.911316,669.447571 
	C619.253784,669.821716 629.983093,668.190674 641.100769,665.607056 
	C655.490784,662.263123 669.234314,657.682922 681.346619,649.817932 
	C687.936707,645.538696 693.607422,644.493286 700.645630,645.936035 
	C702.564026,646.329285 704.959473,646.656616 706.575500,645.867004 
	C713.104309,642.677124 714.489319,646.017456 714.825928,651.805664 
	C713.033813,655.634583 710.938843,659.210388 708.156250,662.918823 
	C699.422363,664.469604 699.645020,671.390930 698.096619,677.133545 
	C698.096619,677.133545 698.071411,677.088501 698.094849,677.100708 
z"/>
<path fill="#3A0808" opacity="1.000000" stroke="none" 
	d="
M698.411987,677.004517 
	C699.645020,671.390930 699.422363,664.469604 707.854858,663.073364 
	C705.069885,667.688660 701.898682,672.282043 698.411987,677.004517 
z"/>
<path fill="#400F0C" opacity="1.000000" stroke="none" 
	d="
M700.390869,563.865234 
	C700.310913,563.853943 700.188721,563.688843 700.022766,563.370605 
	C700.095642,563.386841 700.218811,563.551514 700.390869,563.865234 
z"/>
<path fill="#F1D6BD" opacity="1.000000" stroke="none" 
	d="
M442.125122,652.171509 
	C436.147766,660.761536 435.780243,661.489563 425.123932,656.110046 
	C393.648529,640.220703 365.790436,619.971069 348.117493,588.286255 
	C343.091125,579.274719 342.913422,578.846069 352.670837,575.529602 
	C362.705719,572.118835 373.029022,569.507568 383.321838,566.928589 
	C387.481049,565.886414 390.478485,564.040588 392.745819,560.354187 
	C407.120911,536.981445 425.842072,517.950867 449.365295,503.638611 
	C451.531525,502.320618 453.463654,499.250458 453.916473,496.710815 
	C456.422699,482.653656 458.044556,468.415985 463.776123,455.130981 
	C464.676971,453.042908 465.671509,450.995270 466.945374,448.228058 
	C471.763275,451.211823 476.454590,453.443390 480.344147,456.648010 
	C493.822021,467.752502 505.689270,480.141968 511.587646,497.232452 
	C512.563721,500.060760 515.327271,502.602081 517.844666,504.511475 
	C528.763916,512.793640 539.344971,521.296997 546.780762,533.143311 
	C549.338806,537.218689 549.664429,540.203674 545.399963,543.120300 
	C542.560669,545.062256 539.971191,547.369385 537.270020,549.513123 
	C537.901917,550.230042 538.533813,550.946960 539.165649,551.663818 
	C542.902222,548.892700 546.638733,546.121582 551.684326,542.379639 
	C551.932190,546.409790 553.283020,550.173096 552.003357,552.471863 
	C550.607239,554.979614 546.773621,556.130432 544.002625,557.872803 
	C544.178345,558.259644 544.354004,558.646545 544.529724,559.033386 
	C547.691833,557.808350 550.853943,556.583374 554.539795,555.155396 
	C555.654968,564.236389 554.735535,572.675110 553.084900,581.182495 
	C550.528076,594.359924 546.898804,606.957336 538.581848,617.891663 
	C526.068542,634.342957 509.169556,643.490601 489.445129,647.931030 
	C480.698273,649.900208 471.652252,650.656372 463.027893,653.010376 
	C457.945801,654.397400 453.038879,657.326904 448.788696,660.536682 
	C446.062744,662.595215 444.112366,663.189819 440.905304,661.370667 
	C443.038971,658.789185 445.132050,656.256897 447.757690,653.399658 
	C453.990814,651.423035 455.749603,646.583313 457.567261,641.729553 
	C459.150330,637.502319 457.001801,634.028442 453.978699,632.441711 
	C451.599884,631.193115 447.475616,631.480042 444.910858,632.714355 
	C437.470947,636.294678 435.431976,642.674194 437.764038,650.364746 
	C439.228363,650.971375 440.676727,651.571472 442.125122,652.171509 
M520.486328,573.604858 
	C523.851868,572.619324 527.534607,572.198853 530.514282,570.526001 
	C536.043823,567.421692 537.471191,563.671753 535.935486,558.286987 
	C532.066406,552.754456 526.678833,551.051819 522.270752,554.644897 
	C519.557861,556.856140 517.158630,559.872742 515.622375,563.018066 
	C512.572876,569.261658 513.521423,570.911438 520.486328,573.604858 
M500.133881,491.156219 
	C496.246216,478.996124 488.137207,469.820709 478.864716,461.575867 
	C474.016846,457.265259 470.566956,458.232086 468.376007,464.378357 
	C464.496399,475.261810 465.434937,486.341827 468.041901,497.285034 
	C468.375641,498.685974 471.338013,500.489044 472.964630,500.377930 
	C480.556274,499.859344 488.095032,498.617249 495.676270,497.874634 
	C499.582306,497.492035 500.966797,495.617706 500.133881,491.156219 
M388.308990,601.066162 
	C388.709503,596.456421 389.370270,591.846924 389.373291,587.236938 
	C389.374390,585.561035 387.920471,582.503967 386.937042,582.422852 
	C377.893677,581.677124 368.729614,580.455811 360.048981,584.618591 
	C356.657959,586.244690 356.069977,588.870178 357.291351,592.058105 
	C357.876587,593.585632 358.855835,594.976196 359.749359,596.369324 
	C366.706818,607.218201 376.776367,614.793701 387.065247,622.100281 
	C387.958344,622.734436 390.138763,623.017273 390.588806,622.492432 
	C391.386536,621.561951 391.740082,619.817078 391.532837,618.533508 
	C390.636505,612.981506 389.469757,607.473083 388.308990,601.066162 
M489.736389,591.076294 
	C487.643890,591.717957 485.158051,591.855957 483.546936,593.114075 
	C480.823517,595.240784 478.423340,597.902588 476.331818,600.674744 
	C474.939545,602.520081 472.989502,606.245117 473.602325,606.873657 
	C475.480957,608.800659 478.421631,609.774109 481.063782,610.832764 
	C482.058685,611.231445 483.453430,611.114990 484.517242,610.772217 
	C488.359009,609.534058 489.715729,612.185913 490.704102,614.834473 
	C493.203613,621.532410 488.985443,627.078918 481.796234,627.284485 
	C480.281189,627.327881 478.811127,628.942932 477.320374,629.833801 
	C478.654999,630.847961 479.858856,632.257996 481.364227,632.755371 
	C482.650604,633.180359 484.332397,632.744263 485.754150,632.367615 
	C493.050323,630.434631 495.471649,626.756836 496.354309,616.430481 
	C497.637421,616.544067 498.921722,616.760864 500.204956,616.754700 
	C509.060486,616.712463 516.289490,608.093445 514.074890,599.959229 
	C513.702271,598.590576 511.880341,597.616577 510.727997,596.460205 
	C510.143921,597.779236 509.397003,599.052673 509.012085,600.427490 
	C508.355469,602.772522 508.463776,605.498718 507.285248,607.494690 
	C505.091248,611.210266 501.386688,612.258911 497.287872,610.842163 
	C493.609131,609.570618 492.068665,607.457275 492.630005,602.942078 
	C493.082184,599.305176 491.142609,595.370850 489.736389,591.076294 
M514.589111,551.001526 
	C515.970886,547.429321 513.590942,546.474182 510.931274,546.151367 
	C500.505920,544.886353 485.387085,561.254578 487.268036,571.794067 
	C487.466614,572.906738 488.656616,574.692078 489.354218,574.676880 
	C490.547760,574.650818 491.955353,573.656921 492.818420,572.671326 
	C493.509064,571.882690 493.588959,570.516602 493.829987,569.383423 
	C495.980804,559.271301 501.246185,554.274658 511.330536,552.705994 
	C512.267212,552.560364 513.134644,551.969666 514.589111,551.001526 
M458.484985,605.940369 
	C450.199036,604.360107 443.140900,606.985046 438.139435,613.434265 
	C435.314331,617.077087 433.835449,621.850525 432.249329,626.292908 
	C431.939178,627.161621 433.925720,628.850403 434.852966,630.160950 
	C435.917847,629.402161 437.771393,628.777771 437.927094,627.864014 
	C439.731812,617.274414 445.935577,611.980835 456.576141,611.376648 
	C459.633942,611.203064 461.261902,609.567566 458.484985,605.940369 
z"/>
<path fill="#F1D6BD" opacity="1.000000" stroke="none" 
	d="
M710.043335,643.010864 
	C702.651428,641.899658 694.906067,644.718567 687.698303,640.976135 
	C687.113770,640.672668 685.424988,641.606323 684.805603,642.399475 
	C679.504395,649.187927 671.490784,651.671204 664.154663,654.769104 
	C643.600830,663.448669 622.070679,667.325256 599.682434,665.671631 
	C594.814819,665.312073 589.829041,665.584412 585.109863,664.574158 
	C582.589600,664.034668 579.903381,661.814697 578.348938,659.608459 
	C565.836792,641.849731 555.825806,623.242798 556.892151,600.382019 
	C558.545532,564.932678 592.137085,539.240356 626.548584,547.526001 
	C627.516174,547.759094 628.584106,548.259949 629.457764,548.042786 
	C630.859436,547.694275 632.137756,546.849426 633.468201,546.214294 
	C632.661133,544.813354 632.105835,542.467529 631.003784,542.173828 
	C626.059326,540.856079 620.991821,539.575562 615.909729,539.272766 
	C594.793762,538.014832 578.266052,546.969971 565.095886,562.951660 
	C564.355652,563.849854 563.636719,564.765747 562.889160,565.657715 
	C562.827759,565.731079 562.621155,565.682739 562.168335,565.709534 
	C561.878784,561.516479 561.588318,557.310059 561.276733,552.798584 
	C566.128967,550.930847 571.028198,548.971313 575.984619,547.169189 
	C578.366760,546.302979 580.049133,544.877930 578.659729,542.461060 
	C578.185364,541.635803 575.525085,541.472839 574.120178,541.884094 
	C569.202515,543.323792 564.396912,545.146240 559.554321,546.821228 
	C556.019470,539.651672 556.018250,539.649353 563.005371,535.921875 
	C565.201904,534.750061 567.565613,533.809387 569.546997,532.348145 
	C570.677429,531.514343 571.190857,529.843994 571.982056,528.550293 
	C570.386902,528.106201 568.446045,526.854126 567.258240,527.362183 
	C562.864990,529.241394 558.720520,531.702026 555.308167,533.507263 
	C549.574036,526.505798 544.501038,519.250305 538.336914,513.086060 
	C532.272522,507.021667 525.101196,502.064209 518.055969,496.328247 
	C528.988159,491.748627 540.256714,489.709991 551.846375,489.092957 
	C575.785217,487.818420 597.855042,494.942749 619.300903,504.451385 
	C638.995239,513.183411 657.596191,523.901367 673.825867,538.173706 
	C680.249023,543.822266 687.242249,549.874084 691.009827,557.256104 
	C697.427307,569.830078 702.275574,583.367981 706.346313,596.932068 
	C710.659180,611.303040 712.013794,626.309021 710.913696,641.968689 
	C710.433289,642.650452 710.221558,642.808167 710.043335,643.010864 
z"/>
<path fill="#F2D4BB" opacity="1.000000" stroke="none" 
	d="
M572.193481,662.688354 
	C571.690430,663.052673 571.205444,663.054871 570.362488,663.122192 
	C559.911682,661.404480 549.838074,659.501343 539.718445,657.886108 
	C534.021057,656.976685 528.260803,656.366516 522.505127,655.945679 
	C517.321289,655.566589 512.953735,657.492249 510.777863,662.430176 
	C508.656372,667.244690 509.785309,671.796509 513.205994,675.773499 
	C513.729126,676.381714 514.214722,677.022156 515.281006,678.348511 
	C512.729919,678.612488 510.846680,679.049561 508.989319,678.958618 
	C499.812805,678.508972 490.903015,679.721252 482.121674,682.445862 
	C476.460297,684.202454 475.237000,682.698242 476.389435,676.885315 
	C476.676514,675.437378 475.442017,673.687805 474.906860,672.076782 
	C473.292480,673.186646 470.705231,674.011047 470.277466,675.468994 
	C469.516724,678.061829 470.063812,681.038269 470.063812,684.954956 
	C467.306580,684.314209 463.889862,684.513794 462.784241,683.011963 
	C461.399933,681.131592 461.435303,677.794983 461.754730,675.197266 
	C462.025635,672.994080 463.314911,670.519531 460.268372,670.106201 
	C458.826691,669.910583 456.016815,671.825684 455.664307,673.241821 
	C454.937927,676.160095 455.445801,679.385620 455.445801,682.498718 
	C450.460266,682.858093 447.819489,679.872009 448.357544,674.276672 
	C448.928528,668.339050 454.392181,661.582031 460.806854,660.099792 
	C468.724762,658.270142 476.950745,657.691772 484.785736,655.604553 
	C496.949829,652.364136 508.835327,648.091614 520.952209,644.656311 
	C532.460510,641.393555 544.305115,641.448975 556.145996,642.221069 
	C559.140503,642.416260 561.112671,643.638977 562.639771,646.600464 
	C565.445129,652.041016 568.980408,657.105164 572.193481,662.688354 
z"/>
<path fill="#F0D2BA" opacity="1.000000" stroke="none" 
	d="
M390.943054,674.570435 
	C384.299438,669.960266 384.326965,659.496948 390.640320,654.199768 
	C396.094574,649.623413 399.397858,649.462280 405.484497,653.308899 
	C409.529266,655.865112 413.649994,658.301147 418.314636,661.143066 
	C413.315948,664.942383 411.472443,669.599792 413.099487,676.470703 
	C408.794556,675.769043 404.557159,676.264465 402.599304,674.385132 
	C401.024414,672.873413 402.297089,668.483093 402.125336,665.380066 
	C402.052673,664.067505 401.516327,662.780579 401.190735,661.481995 
	C399.482544,662.069214 396.618927,662.275574 396.276855,663.313171 
	C395.124084,666.810120 394.867737,670.602600 394.186096,674.787964 
	C393.703796,674.787964 392.501312,674.787964 390.943054,674.570435 
z"/>
<path fill="#F6A496" opacity="1.000000" stroke="none" 
	d="
M442.399536,652.044128 
	C440.676727,651.571472 439.228363,650.971375 437.764038,650.364746 
	C435.431976,642.674194 437.470947,636.294678 444.910858,632.714355 
	C447.475616,631.480042 451.599884,631.193115 453.978699,632.441711 
	C457.001801,634.028442 459.150330,637.502319 457.567261,641.729553 
	C455.749603,646.583313 453.990814,651.423035 447.960480,653.108215 
	C446.123993,652.144409 445.125458,649.090576 442.399536,652.044128 
z"/>
<path fill="#F0D2BA" opacity="1.000000" stroke="none" 
	d="
M541.045654,625.013916 
	C544.188660,620.614990 547.107666,616.492432 550.170227,612.167053 
	C552.214111,620.185486 554.152466,627.789734 556.118835,635.504028 
	C547.580933,635.504028 539.224854,635.504028 531.220398,635.504028 
	C534.290283,632.238281 537.555908,628.764343 541.045654,625.013916 
z"/>
<path fill="#F0D2BA" opacity="1.000000" stroke="none" 
	d="
M428.087341,665.061646 
	C429.363251,665.575928 430.265839,665.982056 431.541595,666.556030 
	C429.290924,669.726746 429.460876,674.960266 423.800171,674.786255 
	C422.210358,674.737366 419.242767,673.506226 419.292053,673.193848 
	C419.838654,669.731079 420.855011,666.342407 421.829132,662.608887 
	C424.707703,663.755737 426.210846,664.354553 428.087341,665.061646 
z"/>
<path fill="#F0D2BA" opacity="1.000000" stroke="none" 
	d="
M434.988525,672.426147 
	C436.460480,669.110535 437.832428,666.145630 442.661804,669.386292 
	C441.687744,670.915527 441.009491,673.082886 439.575623,673.864868 
	C438.524200,674.438293 436.481476,673.194153 434.988525,672.426147 
z"/>
<path fill="#400F0C" opacity="1.000000" stroke="none" 
	d="
M710.239380,642.958008 
	C710.221558,642.808167 710.433289,642.650452 710.860840,642.458923 
	C710.889343,642.611511 710.686768,642.786560 710.239380,642.958008 
z"/>
<path fill="#3C0908" opacity="1.000000" stroke="none" 
	d="
M500.197449,491.533813 
	C500.966797,495.617706 499.582306,497.492035 495.676270,497.874634 
	C488.095032,498.617249 480.556274,499.859344 472.964630,500.377930 
	C471.338013,500.489044 468.375641,498.685974 468.041901,497.285034 
	C465.434937,486.341827 464.496399,475.261810 468.376007,464.378357 
	C470.566956,458.232086 474.016846,457.265259 478.864716,461.575867 
	C488.137207,469.820709 496.246216,478.996124 500.197449,491.533813 
M477.452087,468.900177 
	C476.458221,468.209167 475.464355,467.518127 473.911743,466.438599 
	C471.461334,475.750610 471.458405,484.241333 473.749481,492.675507 
	C480.463989,491.986176 486.663757,491.349701 493.501953,490.647675 
	C489.474091,482.494080 484.189240,475.623596 477.452087,468.900177 
z"/>
<path fill="#3A0808" opacity="1.000000" stroke="none" 
	d="
M388.355194,601.507507 
	C389.469757,607.473083 390.636505,612.981506 391.532837,618.533508 
	C391.740082,619.817078 391.386536,621.561951 390.588806,622.492432 
	C390.138763,623.017273 387.958344,622.734436 387.065247,622.100281 
	C376.776367,614.793701 366.706818,607.218201 359.749359,596.369324 
	C358.855835,594.976196 357.876587,593.585632 357.291351,592.058105 
	C356.069977,588.870178 356.657959,586.244690 360.048981,584.618591 
	C368.729614,580.455811 377.893677,581.677124 386.937042,582.422852 
	C387.920471,582.503967 389.374390,585.561035 389.373291,587.236938 
	C389.370270,591.846924 388.709503,596.456421 388.355194,601.507507 
M382.141205,605.733337 
	C382.141205,600.114075 382.141205,594.494751 382.141205,587.858398 
	C375.846863,588.184692 369.952789,588.490295 364.058746,588.795837 
	C363.731689,589.587708 363.404633,590.379517 363.077576,591.171326 
	C369.250092,597.804810 375.422607,604.438354 381.595093,611.071838 
	C382.005829,610.785889 382.416565,610.499939 382.827301,610.213928 
	C382.632568,608.993652 382.437836,607.773438 382.141205,605.733337 
z"/>
<path fill="#370B0A" opacity="1.000000" stroke="none" 
	d="
M490.000305,591.322388 
	C491.142609,595.370850 493.082184,599.305176 492.630005,602.942078 
	C492.068665,607.457275 493.609131,609.570618 497.287872,610.842163 
	C501.386688,612.258911 505.091248,611.210266 507.285248,607.494690 
	C508.463776,605.498718 508.355469,602.772522 509.012085,600.427490 
	C509.397003,599.052673 510.143921,597.779236 510.728027,596.460205 
	C511.880341,597.616577 513.702271,598.590576 514.074890,599.959229 
	C516.289490,608.093445 509.060486,616.712463 500.204956,616.754700 
	C498.921722,616.760864 497.637421,616.544067 496.354309,616.430481 
	C495.471649,626.756836 493.050323,630.434631 485.754150,632.367615 
	C484.332397,632.744263 482.650604,633.180359 481.364227,632.755371 
	C479.858856,632.257996 478.654999,630.847961 477.320374,629.833801 
	C478.811127,628.942932 480.281189,627.327881 481.796234,627.284485 
	C488.985443,627.078918 493.203613,621.532410 490.704102,614.834473 
	C489.715729,612.185913 488.359009,609.534058 484.517242,610.772217 
	C483.453430,611.114990 482.058685,611.231445 481.063782,610.832764 
	C478.421631,609.774109 475.480957,608.800659 473.602325,606.873657 
	C472.989502,606.245117 474.939545,602.520081 476.331818,600.674744 
	C478.423340,597.902588 480.823517,595.240784 483.546936,593.114075 
	C485.158051,591.855957 487.643890,591.717957 490.000305,591.322388 
M483.038635,601.559204 
	C482.095856,602.601318 481.153076,603.643433 480.210297,604.685547 
	C480.374786,605.077332 480.539276,605.469177 480.703766,605.860962 
	C482.548431,605.302368 485.135223,605.290222 486.050568,604.047302 
	C487.202332,602.483215 486.987274,599.912659 487.362000,597.776367 
	C486.983643,597.710144 486.605255,597.643860 486.226898,597.577637 
	C485.313965,598.731628 484.401062,599.885620 483.038635,601.559204 
z"/>
<path fill="#400F0C" opacity="1.000000" stroke="none" 
	d="
M514.311646,551.293579 
	C513.134644,551.969666 512.267212,552.560364 511.330536,552.705994 
	C501.246185,554.274658 495.980804,559.271301 493.829987,569.383423 
	C493.588959,570.516602 493.509064,571.882690 492.818420,572.671326 
	C491.955353,573.656921 490.547760,574.650818 489.354218,574.676880 
	C488.656616,574.692078 487.466614,572.906738 487.268036,571.794067 
	C485.387085,561.254578 500.505920,544.886353 510.931274,546.151367 
	C513.590942,546.474182 515.970886,547.429321 514.311646,551.293579 
z"/>
<path fill="#3C0908" opacity="1.000000" stroke="none" 
	d="
M458.821228,606.155579 
	C461.261902,609.567566 459.633942,611.203064 456.576141,611.376648 
	C445.935577,611.980835 439.731812,617.274414 437.927094,627.864014 
	C437.771393,628.777771 435.917847,629.402161 434.852966,630.160950 
	C433.925720,628.850403 431.939178,627.161621 432.249329,626.292908 
	C433.835449,621.850525 435.314331,617.077087 438.139435,613.434265 
	C443.140900,606.985046 450.199036,604.360107 458.821228,606.155579 
z"/>
<path fill="#EF9F94" opacity="1.000000" stroke="none" 
	d="
M519.962891,573.137573 
	C513.521423,570.911438 512.572876,569.261658 515.622375,563.018066 
	C517.158630,559.872742 519.557861,556.856140 522.270752,554.644897 
	C526.678833,551.051819 532.066406,552.754456 535.659424,558.514526 
	C534.766785,558.600647 533.803894,558.133240 533.584717,558.365967 
	C528.993530,563.242249 524.486511,568.197693 519.962891,573.137573 
z"/>
<path fill="#F6A496" opacity="1.000000" stroke="none" 
	d="
M520.224609,573.371216 
	C524.486511,568.197693 528.993530,563.242249 533.584717,558.365967 
	C533.803894,558.133240 534.766785,558.600647 535.685913,558.868652 
	C537.471191,563.671753 536.043823,567.421692 530.514282,570.526001 
	C527.534607,572.198853 523.851868,572.619324 520.224609,573.371216 
z"/>
<path fill="#EF9F94" opacity="1.000000" stroke="none" 
	d="
M477.718445,469.147736 
	C484.189240,475.623596 489.474091,482.494080 493.501953,490.647675 
	C486.663757,491.349701 480.463989,491.986176 473.749481,492.675507 
	C471.458405,484.241333 471.461334,475.750610 473.911743,466.438599 
	C475.464355,467.518127 476.458221,468.209167 477.718445,469.147736 
z"/>
<path fill="#ED9991" opacity="1.000000" stroke="none" 
	d="
M382.192139,606.143250 
	C382.437836,607.773438 382.632568,608.993652 382.827301,610.213928 
	C382.416565,610.499939 382.005829,610.785889 381.595093,611.071838 
	C375.422607,604.438354 369.250092,597.804810 363.077576,591.171326 
	C363.404633,590.379517 363.731689,589.587708 364.058746,588.795837 
	C369.952789,588.490295 375.846863,588.184692 382.141205,587.858398 
	C382.141205,594.494751 382.141205,600.114075 382.192139,606.143250 
z"/>
<path fill="#ED9991" opacity="1.000000" stroke="none" 
	d="
M483.263397,601.299438 
	C484.401062,599.885620 485.313965,598.731628 486.226898,597.577637 
	C486.605255,597.643860 486.983643,597.710144 487.362000,597.776367 
	C486.987274,599.912659 487.202332,602.483215 486.050568,604.047302 
	C485.135223,605.290222 482.548431,605.302368 480.703766,605.860962 
	C480.539276,605.469177 480.374786,605.077332 480.210297,604.685547 
	C481.153076,603.643433 482.095856,602.601318 483.263397,601.299438 
z"/>
</svg>