<svg version="1.1" id="Layer_1" xmlns="http://www.w3.org/2000/svg" xmlns:xlink="http://www.w3.org/1999/xlink" x="0px" y="0px"
	 width="100%" viewBox="0 0 1024 1024" enable-background="new 0 0 1024 1024" xml:space="preserve">
<path fill="none" opacity="1.000000" stroke="none" 
	d="
M573.000000,1025.000000 
	C382.000000,1025.000000 191.500000,1025.000000 1.000000,1025.000000 
	C1.000000,683.666687 1.000000,342.333344 1.000000,1.000000 
	C342.333344,1.000000 683.666687,1.000000 1025.000000,1.000000 
	C1025.000000,342.333344 1025.000000,683.666687 1025.000000,1025.000000 
	C874.500000,1025.000000 724.000000,1025.000000 573.000000,1025.000000 
M642.792297,505.527740 
	C642.538696,505.299622 642.285156,505.071472 641.798584,504.479492 
	C641.611328,504.254089 641.385681,504.077850 640.909729,503.302307 
	C637.942993,501.188354 634.976318,499.074371 631.998291,497.002441 
	C631.998291,497.002441 632.033936,496.977386 631.675720,496.412048 
	C629.455994,494.930786 627.236206,493.449493 625.000000,492.002075 
	C625.000000,492.002075 625.031311,491.980865 624.798279,491.367920 
	C623.868774,490.897217 622.939270,490.426514 621.665344,489.436218 
	C620.779358,488.952972 619.893311,488.469757 618.642944,487.411499 
	C610.424194,483.264435 602.205444,479.117340 593.583496,474.925171 
	C593.583496,474.925171 593.177795,474.928650 592.737732,474.383575 
	C591.921265,473.824219 591.180054,473.030975 590.277100,472.740326 
	C575.297668,467.918732 560.302856,463.144867 545.285522,458.442902 
	C544.673523,458.251282 543.807861,458.869751 542.261841,459.044678 
	C540.179382,458.684906 538.096924,458.325104 535.520020,457.688599 
	C531.359314,457.498871 532.095459,454.258057 532.049011,451.783508 
	C531.809265,439.020813 528.198364,427.054688 522.493958,415.886383 
	C518.446045,407.961151 513.809692,403.669830 504.845306,411.340485 
	C494.639496,420.073517 485.063141,429.562897 475.498077,439.011902 
	C472.462341,442.010864 469.455200,444.047394 465.124786,444.018585 
	C459.629486,443.982056 454.093018,443.696198 448.644348,444.231201 
	C427.518646,446.305573 407.846100,453.342041 388.659058,462.087433 
	C386.036957,463.282593 382.487640,463.654602 379.680481,463.021149 
	C368.054413,460.397522 356.591461,457.057037 344.981781,454.352478 
	C338.435150,452.827393 335.766846,454.629669 334.969757,461.198517 
	C332.656433,480.262329 333.845917,499.268646 340.223816,517.336853 
	C346.690277,535.656006 354.659058,553.456543 362.330292,571.329468 
	C363.943634,575.088318 363.382507,576.750488 359.825897,578.107544 
	C357.031921,579.173523 354.129974,580.205078 351.693512,581.864868 
	C350.269653,582.834839 349.665710,585.008423 348.692932,586.640503 
	C350.646484,586.604919 352.772125,587.050171 354.515076,586.426270 
	C357.460724,585.371765 360.044983,583.227234 363.020081,582.369568 
	C364.498566,581.943298 366.880402,582.961731 368.106354,584.118530 
	C368.652679,584.633972 367.678558,587.315979 366.812805,588.632019 
	C365.737305,590.266968 363.859161,591.359253 362.693268,592.953247 
	C361.284729,594.879028 360.259277,597.085022 359.067993,599.169739 
	C361.504120,598.344055 364.314209,598.037720 366.310211,596.600769 
	C374.062408,591.019714 373.835602,591.014526 380.541138,597.821655 
	C383.096924,600.416199 382.843628,602.253845 380.428162,604.398987 
	C377.320374,607.158936 373.846497,609.602112 371.169617,612.729004 
	C367.335876,617.207275 362.476166,621.712891 360.922668,627.042847 
	C357.978699,637.143494 362.598755,647.297180 372.261261,647.461487 
	C386.330292,647.700745 400.423981,646.745544 414.500061,646.136658 
	C417.903198,645.989441 420.678101,646.191101 422.405640,649.749939 
	C424.176910,653.398804 427.337219,655.713745 431.429382,655.677551 
	C439.718384,655.604370 448.010742,656.763550 456.293182,654.555420 
	C472.285156,650.291870 488.454865,647.569885 505.709717,651.929565 
	C506.459015,651.976013 507.208313,652.022400 508.567291,652.484985 
	C510.044403,652.653625 511.521484,652.822205 513.636597,653.281372 
	C514.770325,653.498718 515.903992,653.716003 517.742126,654.100098 
	C519.154663,654.361877 520.567139,654.623718 522.656189,654.924377 
	C523.107849,654.932617 523.559509,654.940918 524.762878,655.280823 
	C529.499878,655.810669 534.236816,656.340454 539.892212,656.946045 
	C543.559814,656.975220 547.227356,657.004456 551.323303,657.423157 
	C551.864929,657.582092 552.406555,657.741028 553.638916,657.909302 
	C554.098938,657.890564 554.559021,657.871826 555.843689,657.927673 
	C557.223145,657.908325 558.602539,657.888916 560.917603,657.933655 
	C566.284607,657.909912 571.651611,657.886169 577.767822,657.919678 
	C579.172607,657.605408 580.577332,657.291138 582.905640,657.008850 
	C586.607971,656.982483 590.310303,656.956116 594.851868,656.922729 
	C597.307312,656.598022 599.760925,656.258484 602.218506,655.951111 
	C615.477600,654.292725 628.737671,652.642334 642.754761,651.008240 
	C643.511047,650.971069 644.267334,650.933899 645.870972,650.964294 
	C654.757324,650.641418 662.565796,648.493408 666.024231,638.992249 
	C666.024231,638.992249 666.043091,639.047302 666.620300,638.689636 
	C667.432190,637.136353 668.244080,635.583130 669.002441,634.002075 
	C669.002441,634.002075 669.036377,634.051819 669.677063,633.842468 
	C671.482727,630.904175 673.288452,627.965881 675.504822,624.636353 
	C675.696472,624.109070 675.888123,623.581726 676.646790,622.679138 
	C678.122314,619.955627 680.669067,617.308533 680.869934,614.494080 
	C681.443115,606.461426 681.230591,598.356323 681.024414,590.287476 
	C680.447205,567.705505 672.693298,547.142273 662.545105,527.398132 
	C658.389038,519.312073 653.219238,511.752197 645.000000,507.000000 
	C645.000000,507.000000 645.009644,506.995880 644.618408,506.567261 
	C644.086548,506.358704 643.554749,506.150116 642.990906,505.985291 
	C642.990906,505.985291 643.043884,505.974121 642.792297,505.527740 
M970.121338,952.382812 
	C969.816650,951.455933 969.511963,950.529114 968.833069,948.463684 
	C965.939087,959.710754 959.433899,965.957031 948.202515,969.081665 
	C959.592163,972.051331 965.933044,978.440674 969.009155,989.943604 
	C971.890320,978.296387 978.647705,972.143127 989.084961,969.073181 
	C978.277283,965.077148 973.877197,961.159912 970.121338,952.382812 
z"/>
<path fill="#390A06" opacity="1.000000" stroke="none" 
	d="
M536.014465,457.965332 
	C538.096924,458.325104 540.179382,458.684906 542.876831,459.367035 
	C544.041138,460.047180 544.544312,460.569519 545.146545,460.738312 
	C556.288574,463.860352 567.465210,466.861267 578.583374,470.065125 
	C583.506531,471.483826 588.316467,473.295410 593.177795,474.928650 
	C593.177795,474.928650 593.583496,474.925171 593.886292,475.285095 
	C595.189209,476.456299 596.070190,477.663300 597.211243,478.006989 
	C601.118408,479.183777 602.237976,481.934692 601.701843,485.450256 
	C599.206299,484.182068 597.103760,483.065369 594.931152,481.626129 
	C593.566345,480.890839 592.271545,480.478088 590.608276,480.039673 
	C571.552063,472.090759 552.486877,465.558533 532.353638,463.697845 
	C529.645264,475.108337 528.076965,485.876862 533.693787,496.456085 
	C535.204041,499.300781 535.557617,502.828339 536.110901,506.098511 
	C537.339539,513.359863 538.358459,520.656677 539.583679,528.736023 
	C542.004822,527.063782 544.063049,525.769897 545.981873,524.294678 
	C553.916504,518.194031 562.675293,513.417908 572.703552,513.049561 
	C581.217773,512.736755 589.813049,514.165771 598.335693,515.144104 
	C599.372437,515.263123 600.180847,517.371338 601.095093,518.557617 
	C599.862000,519.232544 598.684570,520.072998 597.372925,520.514587 
	C596.688660,520.744934 595.773132,520.178223 594.953247,520.133118 
	C588.007507,519.750427 581.023315,518.791626 574.121582,519.201172 
	C565.132507,519.734558 556.877319,522.829163 551.139038,528.572266 
	C552.984619,530.434082 554.493652,531.956421 556.002625,533.478699 
	C554.101196,534.094543 552.209473,534.743652 550.291199,535.301575 
	C549.841797,535.432312 549.301270,535.267029 548.804871,535.216431 
	C542.200623,534.543884 540.485596,535.714905 538.169434,542.806396 
	C543.079773,543.587708 547.972351,544.194946 552.768005,545.245056 
	C554.028687,545.521057 554.989075,547.168030 556.087402,548.185425 
	C554.772644,548.805786 553.392029,550.061462 552.154785,549.933289 
	C547.542480,549.455383 542.996826,548.272339 538.382507,547.912476 
	C536.975830,547.802856 534.456116,549.205750 534.106934,550.401184 
	C532.071289,557.368408 529.689331,564.398071 528.990784,571.559448 
	C527.379883,588.073853 534.364197,602.163513 542.253052,616.194031 
	C548.307678,626.962341 555.741516,632.222412 568.622192,632.506409 
	C595.007751,633.088196 620.256836,629.124268 643.040649,615.794556 
	C650.283936,611.556885 656.471375,608.833496 664.502136,610.679688 
	C664.664368,610.717041 664.824585,610.763184 665.087402,610.935486 
	C665.188965,611.065796 665.640320,611.146667 665.640320,611.146667 
	C665.640320,611.146667 666.011902,610.845459 666.369690,610.752197 
	C667.459656,610.708069 668.191895,610.757141 669.178284,611.048706 
	C671.418701,611.479187 674.028809,614.767151 675.119629,609.685913 
	C674.989258,600.848694 674.789368,592.486145 674.991089,584.126465 
	C679.711426,585.714233 678.017090,589.469666 678.310547,592.444153 
	C678.565674,595.029419 677.859375,597.876770 678.700500,600.202332 
	C680.479675,605.121704 680.638733,609.587097 678.275024,614.391479 
	C676.988525,617.006226 676.776428,620.149536 676.079773,623.054443 
	C675.888123,623.581726 675.696472,624.109070 674.962463,624.910461 
	C672.625488,628.140320 670.830933,631.096069 669.036377,634.051819 
	C669.036377,634.051819 669.002441,634.002075 668.690063,634.103577 
	C667.599487,635.819153 666.821289,637.433228 666.043091,639.047302 
	C666.043091,639.047302 666.024231,638.992249 665.699524,639.071899 
	C661.431152,643.513855 656.770447,646.697754 651.034607,648.313171 
	C648.953430,648.899170 647.022888,650.019958 645.023621,650.896729 
	C644.267334,650.933899 643.511047,650.971069 642.298340,650.654663 
	C640.379639,649.767456 638.902283,648.757263 637.458374,648.803101 
	C634.741150,648.889221 632.051941,649.652222 629.334229,650.003113 
	C627.530396,650.236084 625.684631,650.141113 623.879639,650.368042 
	C617.354919,651.187988 610.835571,652.754150 604.322144,652.714905 
	C599.884705,652.688171 596.961182,654.340576 594.012634,656.929810 
	C590.310303,656.956116 586.607971,656.982483 582.173340,656.783020 
	C579.966858,656.992249 578.492737,657.427368 577.018616,657.862427 
	C571.651611,657.886169 566.284607,657.909912 560.328613,657.593628 
	C558.166138,657.453369 556.592590,657.653198 555.019043,657.853027 
	C554.559021,657.871826 554.098938,657.890564 553.081665,657.716675 
	C551.981201,657.360596 551.438110,657.197144 550.894958,657.033630 
	C547.227356,657.004456 543.559814,656.975220 539.317017,656.603149 
	C534.102112,652.784607 529.137024,652.963318 524.011169,654.949219 
	C523.559509,654.940918 523.107849,654.932617 522.202759,654.596924 
	C520.178833,654.157410 518.608276,654.045349 517.037720,653.933350 
	C515.903992,653.716003 514.770325,653.498718 513.184692,652.845032 
	C512.237244,651.463440 511.741608,650.518127 511.085266,649.266296 
	C509.832367,650.388977 508.894989,651.228882 507.957581,652.068787 
	C507.208313,652.022400 506.459015,651.976013 505.211792,651.557739 
	C500.859161,650.110657 496.931213,649.237061 493.180573,647.875183 
	C491.290009,647.188721 489.720947,645.616821 488.359497,644.282715 
	C488.369324,643.220459 488.236938,642.140747 487.648071,641.450562 
	C484.288208,637.512573 483.247253,633.075439 485.661804,628.504395 
	C488.102570,623.883728 492.581482,622.232971 497.564301,622.989563 
	C510.709534,624.985718 523.809387,627.278992 536.936157,629.399536 
	C538.906372,629.717712 540.923828,629.743469 543.219971,629.928772 
	C542.940491,628.613586 542.957642,628.072510 542.722778,627.683777 
	C539.969116,623.126892 537.002380,618.688232 534.460754,614.017639 
	C532.896729,611.143616 530.806580,610.222534 527.675903,610.052734 
	C495.779022,608.322144 465.578979,615.561035 436.137177,627.032410 
	C428.887756,629.857056 425.188171,634.815796 425.444885,642.870239 
	C421.455811,644.694214 420.099762,642.926636 419.687195,639.189087 
	C419.975189,630.106262 425.691589,625.538330 432.706085,622.091736 
	C447.153717,614.992798 462.520599,610.532471 478.322083,608.151245 
	C494.837921,605.662231 511.537689,604.393555 527.137329,602.702026 
	C525.413818,592.854370 523.490173,581.863281 521.589355,571.002747 
	C521.947754,570.796631 521.451172,570.925598 521.204346,571.246521 
	C506.913727,589.826965 487.001678,599.357422 465.226318,605.656555 
	C440.769257,612.731445 416.266785,615.449158 392.041626,604.308228 
	C392.763000,602.515869 393.447754,601.068054 394.494629,599.713928 
	C404.011719,604.273071 413.728699,606.115601 423.859924,606.003723 
	C446.733032,605.751160 468.173920,599.463440 488.675079,589.905518 
	C507.840118,580.970459 519.848755,565.079041 529.145020,546.471069 
	C525.892151,545.399231 522.963257,544.434082 520.034363,543.468994 
	C523.240356,542.365723 526.653076,543.307434 528.895508,542.091187 
	C530.984436,540.958191 531.827942,537.528870 533.549805,534.536926 
	C527.074829,533.893188 522.049927,533.393616 517.025024,532.894043 
	C517.043762,532.354797 517.062500,531.815491 517.081299,531.276245 
	C522.225159,530.579163 527.369019,529.882141 532.800049,529.146179 
	C532.651611,526.187439 532.843811,523.652771 532.348877,521.260193 
	C530.231934,511.026276 527.811584,500.854950 525.708191,490.618408 
	C524.619568,485.320465 523.278503,479.934204 523.276855,474.587433 
	C523.274597,467.393097 524.455566,460.198364 525.460083,453.075012 
	C527.836548,455.500549 529.881592,457.854919 532.204956,460.529724 
	C532.673950,460.213989 534.344238,459.089661 536.014465,457.965332 
z"/>
<path fill="#3A0E0C" opacity="1.000000" stroke="none" 
	d="
M535.767212,457.826965 
	C534.344238,459.089661 532.673950,460.213989 532.204956,460.529724 
	C529.881592,457.854919 527.836548,455.500549 525.376465,452.647827 
	C523.791870,439.066040 521.196594,426.421051 514.001831,414.390472 
	C510.208649,417.004913 506.777954,418.817963 504.029755,421.366913 
	C495.741760,429.053955 487.447845,436.771820 479.708099,444.996979 
	C475.864716,449.081421 471.810028,450.953522 466.355255,451.032562 
	C458.137848,451.151672 449.794281,450.886597 441.739716,452.213501 
	C424.277161,455.090302 407.460449,460.489899 391.679565,468.593201 
	C386.555389,471.224335 381.980621,471.046265 376.760529,469.390106 
	C366.482880,466.129395 356.063538,463.314789 345.699493,460.327148 
	C342.703735,459.463562 340.845520,460.097382 340.928009,463.730865 
	C341.157959,473.862396 340.571045,484.071045 341.611694,494.114014 
	C344.204742,519.137390 355.184845,541.493530 365.207184,564.095459 
	C366.728088,567.525391 368.704315,570.753418 370.192505,573.552917 
	C375.746033,572.723816 380.518433,572.011353 385.290833,571.298889 
	C385.374237,571.851624 385.457642,572.404297 385.541016,572.957031 
	C381.140900,574.303833 376.740753,575.650635 371.952881,577.116089 
	C373.349640,579.334595 374.473175,581.119141 375.660248,583.004639 
	C379.899597,581.645203 383.836334,580.382874 387.773071,579.120483 
	C387.938507,579.466858 388.103943,579.813171 388.269379,580.159485 
	C385.366455,582.448303 382.463562,584.737122 378.816315,587.612854 
	C384.319977,591.927490 389.226227,595.773865 394.132507,599.620178 
	C393.447754,601.068054 392.763000,602.515869 391.672241,604.317017 
	C384.082001,610.783508 376.667725,616.652222 369.803528,623.105896 
	C365.961548,626.718018 365.909149,634.134521 369.175690,638.324219 
	C370.209534,639.650146 372.472626,640.017700 374.173157,640.823914 
	C374.710815,639.379944 375.418365,637.971924 375.734253,636.480957 
	C376.003754,635.208923 375.377411,633.589661 375.949554,632.577332 
	C376.742828,631.173706 378.286926,630.194458 379.509521,629.033447 
	C380.337860,630.452026 381.365601,631.798584 381.914703,633.318054 
	C382.212280,634.141418 381.600037,635.255920 381.560760,636.245483 
	C381.423645,639.699768 382.511322,642.132263 386.557343,642.021179 
	C388.491150,641.968079 390.427643,642.012146 392.794037,642.012146 
	C392.794037,639.613770 392.349609,637.675110 392.904297,636.085022 
	C393.630493,634.003235 395.145874,632.196716 396.321777,630.271790 
	C396.963989,632.172180 397.587860,634.079102 398.253937,635.971069 
	C398.845795,637.652222 399.619843,640.806396 400.082123,640.764465 
	C406.638184,640.168579 413.439056,643.086182 419.778717,639.571777 
	C420.099762,642.926636 421.455811,644.694214 425.561401,643.181152 
	C427.283783,646.312866 428.428406,649.378601 432.489502,648.646545 
	C432.963196,645.232422 433.162476,642.086365 433.947632,639.094116 
	C434.210999,638.090393 435.967041,637.478333 437.040833,636.687256 
	C437.593384,637.795044 438.492279,638.863098 438.625000,640.019104 
	C438.886719,642.298401 438.576080,644.639038 438.773376,646.931030 
	C439.022278,649.821716 441.296082,650.491211 443.440521,649.769592 
	C444.685699,649.350647 445.712280,647.568481 446.319214,646.174316 
	C446.885162,644.874329 446.371582,643.048828 447.051514,641.868469 
	C447.834778,640.508728 449.405823,639.602844 450.634735,638.499817 
	C451.196930,639.898010 452.199066,641.281921 452.245300,642.696960 
	C452.447571,648.890869 452.719971,648.898315 458.963623,647.968384 
	C468.605621,646.532410 478.321777,645.594482 488.006500,644.445251 
	C489.720947,645.616821 491.290009,647.188721 493.180573,647.875183 
	C496.931213,649.237061 500.859161,650.110657 504.840027,651.505432 
	C488.454865,647.569885 472.285156,650.291870 456.293182,654.555420 
	C448.010742,656.763550 439.718384,655.604370 431.429382,655.677551 
	C427.337219,655.713745 424.176910,653.398804 422.405640,649.749939 
	C420.678101,646.191101 417.903198,645.989441 414.500061,646.136658 
	C400.423981,646.745544 386.330292,647.700745 372.261261,647.461487 
	C362.598755,647.297180 357.978699,637.143494 360.922668,627.042847 
	C362.476166,621.712891 367.335876,617.207275 371.169617,612.729004 
	C373.846497,609.602112 377.320374,607.158936 380.428162,604.398987 
	C382.843628,602.253845 383.096924,600.416199 380.541138,597.821655 
	C373.835602,591.014526 374.062408,591.019714 366.310211,596.600769 
	C364.314209,598.037720 361.504120,598.344055 359.067993,599.169739 
	C360.259277,597.085022 361.284729,594.879028 362.693268,592.953247 
	C363.859161,591.359253 365.737305,590.266968 366.812805,588.632019 
	C367.678558,587.315979 368.652679,584.633972 368.106354,584.118530 
	C366.880402,582.961731 364.498566,581.943298 363.020081,582.369568 
	C360.044983,583.227234 357.460724,585.371765 354.515076,586.426270 
	C352.772125,587.050171 350.646484,586.604919 348.692932,586.640503 
	C349.665710,585.008423 350.269653,582.834839 351.693512,581.864868 
	C354.129974,580.205078 357.031921,579.173523 359.825897,578.107544 
	C363.382507,576.750488 363.943634,575.088318 362.330292,571.329468 
	C354.659058,553.456543 346.690277,535.656006 340.223816,517.336853 
	C333.845917,499.268646 332.656433,480.262329 334.969757,461.198517 
	C335.766846,454.629669 338.435150,452.827393 344.981781,454.352478 
	C356.591461,457.057037 368.054413,460.397522 379.680481,463.021149 
	C382.487640,463.654602 386.036957,463.282593 388.659058,462.087433 
	C407.846100,453.342041 427.518646,446.305573 448.644348,444.231201 
	C454.093018,443.696198 459.629486,443.982056 465.124786,444.018585 
	C469.455200,444.047394 472.462341,442.010864 475.498077,439.011902 
	C485.063141,429.562897 494.639496,420.073517 504.845306,411.340485 
	C513.809692,403.669830 518.446045,407.961151 522.493958,415.886383 
	C528.198364,427.054688 531.809265,439.020813 532.049011,451.783508 
	C532.095459,454.258057 531.359314,457.498871 535.767212,457.826965 
z"/>
<path fill="#390A06" opacity="1.000000" stroke="none" 
	d="
M619.007324,487.986542 
	C619.893311,488.469757 620.779358,488.952972 621.931885,490.020111 
	C623.142700,491.062958 624.086975,491.521912 625.031311,491.980865 
	C625.031311,491.980865 625.000000,492.002075 625.072632,492.328247 
	C627.441467,494.095428 629.737732,495.536407 632.033936,496.977386 
	C632.033936,496.977386 631.998291,497.002441 632.148804,497.299438 
	C634.477783,500.772888 634.915344,506.366455 641.121582,503.950714 
	C641.385681,504.077850 641.611328,504.254089 642.040894,504.887146 
	C642.536743,505.521271 642.790283,505.747711 643.043884,505.974121 
	C643.043884,505.974121 642.990906,505.985291 643.201843,506.178711 
	C643.945068,506.580017 644.477356,506.787933 645.009644,506.995880 
	C645.009644,506.995880 645.000000,507.000000 645.066895,507.337036 
	C648.828857,512.288757 653.250977,516.503174 656.060486,521.605530 
	C661.166138,530.877747 667.387390,539.651733 669.419495,550.486328 
	C670.906738,558.415710 673.547791,566.123779 675.371338,574.000732 
	C675.632324,575.128113 674.183777,576.651245 673.364624,577.603699 
	C671.107666,569.487244 669.012390,561.758301 667.088135,553.848877 
	C666.885620,553.111328 666.512085,552.554199 665.948792,551.685730 
	C664.532349,548.287598 663.223267,545.230652 662.093323,542.108887 
	C657.751648,530.113464 651.254272,519.553955 640.757385,512.055725 
	C628.213928,503.095673 615.371399,494.554260 602.832458,485.407104 
	C605.279663,481.896942 607.673218,483.154266 610.348938,484.516083 
	C613.108826,485.920868 616.111084,486.849579 619.007324,487.986542 
z"/>
<path fill="#7F7F7F" opacity="1.000000" stroke="none" 
	d="
M970.311523,952.690796 
	C973.877197,961.159912 978.277283,965.077148 989.084961,969.073181 
	C978.647705,972.143127 971.890320,978.296387 969.009155,989.943604 
	C965.933044,978.440674 959.592163,972.051331 948.202515,969.081665 
	C959.433899,965.957031 965.939087,959.710754 968.833069,948.463684 
	C969.511963,950.529114 969.816650,951.455933 970.311523,952.690796 
z"/>
<path fill="#3A0E0C" opacity="1.000000" stroke="none" 
	d="
M673.526367,577.991211 
	C674.183777,576.651245 675.632324,575.128113 675.371338,574.000732 
	C673.547791,566.123779 670.906738,558.415710 669.419495,550.486328 
	C667.387390,539.651733 661.166138,530.877747 656.060486,521.605530 
	C653.250977,516.503174 648.828857,512.288757 645.069092,507.331329 
	C653.219238,511.752197 658.389038,519.312073 662.545105,527.398132 
	C672.693298,547.142273 680.447205,567.705505 681.024414,590.287476 
	C681.230591,598.356323 681.443115,606.461426 680.869934,614.494080 
	C680.669067,617.308533 678.122314,619.955627 676.363281,622.866821 
	C676.776428,620.149536 676.988525,617.006226 678.275024,614.391479 
	C680.638733,609.587097 680.479675,605.121704 678.700500,600.202332 
	C677.859375,597.876770 678.565674,595.029419 678.310547,592.444153 
	C678.017090,589.469666 679.711426,585.714233 674.832397,583.818481 
	C674.023438,581.668884 673.774841,579.830078 673.526367,577.991211 
z"/>
<path fill="#3A0E0C" opacity="1.000000" stroke="none" 
	d="
M594.432251,656.926270 
	C596.961182,654.340576 599.884705,652.688171 604.322144,652.714905 
	C610.835571,652.754150 617.354919,651.187988 623.879639,650.368042 
	C625.684631,650.141113 627.530396,650.236084 629.334229,650.003113 
	C632.051941,649.652222 634.741150,648.889221 637.458374,648.803101 
	C638.902283,648.757263 640.379639,649.767456 641.919678,650.645142 
	C628.737671,652.642334 615.477600,654.292725 602.218506,655.951111 
	C599.760925,656.258484 597.307312,656.598022 594.432251,656.926270 
z"/>
<path fill="#3A0E0C" opacity="1.000000" stroke="none" 
	d="
M592.957764,474.656128 
	C588.316467,473.295410 583.506531,471.483826 578.583374,470.065125 
	C567.465210,466.861267 556.288574,463.860352 545.146545,460.738312 
	C544.544312,460.569519 544.041138,460.047180 543.276123,459.400085 
	C543.807861,458.869751 544.673523,458.251282 545.285522,458.442902 
	C560.302856,463.144867 575.297668,467.918732 590.277100,472.740326 
	C591.180054,473.030975 591.921265,473.824219 592.957764,474.656128 
z"/>
<path fill="#3A0E0C" opacity="1.000000" stroke="none" 
	d="
M618.825134,487.699036 
	C616.111084,486.849579 613.108826,485.920868 610.348938,484.516083 
	C607.673218,483.154266 605.279663,481.896942 602.663696,485.418121 
	C602.320801,485.853546 602.094849,485.601807 602.094849,485.601807 
	C602.237976,481.934692 601.118408,479.183777 597.211243,478.006989 
	C596.070190,477.663300 595.189209,476.456299 594.087891,475.307617 
	C602.205444,479.117340 610.424194,483.264435 618.825134,487.699036 
z"/>
<path fill="#3A0E0C" opacity="1.000000" stroke="none" 
	d="
M645.447266,650.930542 
	C647.022888,650.019958 648.953430,648.899170 651.034607,648.313171 
	C656.770447,646.697754 661.431152,643.513855 665.717651,639.096252 
	C662.565796,648.493408 654.757324,650.641418 645.447266,650.930542 
z"/>
<path fill="#3A0E0C" opacity="1.000000" stroke="none" 
	d="
M641.015625,503.626526 
	C634.915344,506.366455 634.477783,500.772888 632.154419,497.278442 
	C634.976318,499.074371 637.942993,501.188354 641.015625,503.626526 
z"/>
<path fill="#3A0E0C" opacity="1.000000" stroke="none" 
	d="
M524.387024,655.114990 
	C529.137024,652.963318 534.102112,652.784607 538.857849,656.565247 
	C534.236816,656.340454 529.499878,655.810669 524.387024,655.114990 
z"/>
<path fill="#3A0E0C" opacity="1.000000" stroke="none" 
	d="
M669.356689,633.947144 
	C670.830933,631.096069 672.625488,628.140320 674.757080,625.106079 
	C673.288452,627.965881 671.482727,630.904175 669.356689,633.947144 
z"/>
<path fill="#3A0E0C" opacity="1.000000" stroke="none" 
	d="
M631.854858,496.694702 
	C629.737732,495.536407 627.441467,494.095428 625.080872,492.311340 
	C627.236206,493.449493 629.455994,494.930786 631.854858,496.694702 
z"/>
<path fill="#3A0E0C" opacity="1.000000" stroke="none" 
	d="
M508.262451,652.276855 
	C508.894989,651.228882 509.832367,650.388977 511.085266,649.266296 
	C511.741608,650.518127 512.237244,651.463440 512.865723,652.699768 
	C511.521484,652.822205 510.044403,652.653625 508.262451,652.276855 
z"/>
<path fill="#3A0E0C" opacity="1.000000" stroke="none" 
	d="
M666.331665,638.868469 
	C666.821289,637.433228 667.599487,635.819153 668.716797,634.117493 
	C668.244080,635.583130 667.432190,637.136353 666.331665,638.868469 
z"/>
<path fill="#3A0E0C" opacity="1.000000" stroke="none" 
	d="
M555.431396,657.890381 
	C556.592590,657.653198 558.166138,657.453369 559.860840,657.561523 
	C558.602539,657.888916 557.223145,657.908325 555.431396,657.890381 
z"/>
<path fill="#3A0E0C" opacity="1.000000" stroke="none" 
	d="
M577.393188,657.891052 
	C578.492737,657.427368 579.966858,656.992249 581.711548,656.767029 
	C580.577332,657.291138 579.172607,657.605408 577.393188,657.891052 
z"/>
<path fill="#3A0E0C" opacity="1.000000" stroke="none" 
	d="
M517.389893,654.016724 
	C518.608276,654.045349 520.178833,654.157410 521.864502,654.577515 
	C520.567139,654.623718 519.154663,654.361877 517.389893,654.016724 
z"/>
<path fill="#3A0E0C" opacity="1.000000" stroke="none" 
	d="
M624.914795,491.674377 
	C624.086975,491.521912 623.142700,491.062958 622.104065,490.279907 
	C622.939270,490.426514 623.868774,490.897217 624.914795,491.674377 
z"/>
<path fill="#3A0E0C" opacity="1.000000" stroke="none" 
	d="
M551.109131,657.228394 
	C551.438110,657.197144 551.981201,657.360596 552.736267,657.712036 
	C552.406555,657.741028 551.864929,657.582092 551.109131,657.228394 
z"/>
<path fill="#3A0E0C" opacity="1.000000" stroke="none" 
	d="
M644.814026,506.781555 
	C644.477356,506.787933 643.945068,506.580017 643.217834,506.156799 
	C643.554749,506.150116 644.086548,506.358704 644.814026,506.781555 
z"/>
<path fill="#3A0E0C" opacity="1.000000" stroke="none" 
	d="
M642.918091,505.750916 
	C642.790283,505.747711 642.536743,505.521271 642.157349,505.069092 
	C642.285156,505.071472 642.538696,505.299622 642.918091,505.750916 
z"/>
<path fill="#EFD4BA" opacity="1.000000" stroke="none" 
	d="
M394.494629,599.713928 
	C389.226227,595.773865 384.319977,591.927490 378.816315,587.612854 
	C382.463562,584.737122 385.366455,582.448303 388.269379,580.159485 
	C388.103943,579.813171 387.938507,579.466858 387.773071,579.120483 
	C383.836334,580.382874 379.899597,581.645203 375.660248,583.004639 
	C374.473175,581.119141 373.349640,579.334595 371.952881,577.116089 
	C376.740753,575.650635 381.140900,574.303833 385.541016,572.957031 
	C385.457642,572.404297 385.374237,571.851624 385.290833,571.298889 
	C380.518433,572.011353 375.746033,572.723816 370.192505,573.552917 
	C368.704315,570.753418 366.728088,567.525391 365.207184,564.095459 
	C355.184845,541.493530 344.204742,519.137390 341.611694,494.114014 
	C340.571045,484.071045 341.157959,473.862396 340.928009,463.730865 
	C340.845520,460.097382 342.703735,459.463562 345.699493,460.327148 
	C356.063538,463.314789 366.482880,466.129395 376.760529,469.390106 
	C381.980621,471.046265 386.555389,471.224335 391.679565,468.593201 
	C407.460449,460.489899 424.277161,455.090302 441.739716,452.213501 
	C449.794281,450.886597 458.137848,451.151672 466.355255,451.032562 
	C471.810028,450.953522 475.864716,449.081421 479.708099,444.996979 
	C487.447845,436.771820 495.741760,429.053955 504.029755,421.366913 
	C506.777954,418.817963 510.208649,417.004913 514.001831,414.390472 
	C521.196594,426.421051 523.791870,439.066040 525.045044,452.576660 
	C524.455566,460.198364 523.274597,467.393097 523.276855,474.587433 
	C523.278503,479.934204 524.619568,485.320465 525.708191,490.618408 
	C527.811584,500.854950 530.231934,511.026276 532.348877,521.260193 
	C532.843811,523.652771 532.651611,526.187439 532.800049,529.146179 
	C527.369019,529.882141 522.225159,530.579163 517.081299,531.276245 
	C517.062500,531.815491 517.043762,532.354797 517.025024,532.894043 
	C522.049927,533.393616 527.074829,533.893188 533.549805,534.536926 
	C531.827942,537.528870 530.984436,540.958191 528.895508,542.091187 
	C526.653076,543.307434 523.240356,542.365723 520.034363,543.468994 
	C522.963257,544.434082 525.892151,545.399231 529.145020,546.471069 
	C519.848755,565.079041 507.840118,580.970459 488.675079,589.905518 
	C468.173920,599.463440 446.733032,605.751160 423.859924,606.003723 
	C413.728699,606.115601 404.011719,604.273071 394.494629,599.713928 
M391.016754,564.838928 
	C390.512177,568.453918 388.237335,572.282898 392.167175,575.387878 
	C395.147339,577.742554 403.327209,577.598389 406.880615,575.305298 
	C411.287445,572.461548 411.747803,568.582764 410.751801,563.928650 
	C417.773163,560.622986 424.941986,556.738342 427.344055,549.102173 
	C430.364410,539.500427 430.220337,529.436340 422.363617,521.662048 
	C414.811218,514.188843 404.899139,514.680542 395.742950,516.835388 
	C383.715668,519.666016 378.561462,529.274841 377.283783,540.789062 
	C376.076355,551.670166 381.631226,559.105957 391.016754,564.838928 
M505.148987,530.182800 
	C514.003845,517.189880 506.465240,496.806244 491.038055,492.028290 
	C479.164978,488.351105 465.501099,494.003754 458.984924,505.297913 
	C452.706635,516.179810 456.652618,529.282837 464.948914,537.656921 
	C467.390442,540.121277 471.553741,541.431885 475.140900,542.065186 
	C479.317932,542.802551 483.728607,542.216125 488.358215,542.799133 
	C490.858643,547.732605 495.476410,546.783813 499.732574,546.942322 
	C504.699402,547.127319 508.475189,545.623474 510.253174,540.501099 
	C512.124390,535.109985 508.307068,533.102539 505.148987,530.182800 
M491.620941,447.176727 
	C491.033508,448.551178 490.406281,449.910187 489.865387,451.302734 
	C487.255859,458.020874 487.585632,458.777039 494.206390,461.914001 
	C499.008545,464.189301 503.787018,466.514496 508.580811,468.807465 
	C514.405701,471.593689 516.918518,470.516907 518.178406,464.327148 
	C520.383484,453.493591 519.304871,442.790833 516.191956,432.285828 
	C514.080688,425.160889 510.349670,423.823944 505.170319,429.178192 
	C500.154968,434.362854 496.309357,440.679016 491.620941,447.176727 
M345.454132,481.313171 
	C345.648682,483.463898 345.540771,485.695435 346.090179,487.751343 
	C348.472809,496.667114 350.940399,505.564789 353.676758,514.376038 
	C354.051819,515.583740 356.131256,517.003540 357.384888,516.969543 
	C358.445648,516.940857 359.710632,515.094421 360.441986,513.801697 
	C364.674561,506.320953 368.587372,498.653534 372.987854,491.275604 
	C375.902283,486.389221 376.025177,484.790161 370.987366,481.681122 
	C366.111267,478.671875 361.004913,475.983704 355.815765,473.545959 
	C347.872650,469.814392 345.327972,471.603333 345.454132,481.313171 
M455.473450,548.927551 
	C455.986694,547.888672 456.544952,546.869324 457.005737,545.807678 
	C459.542053,539.964233 457.554749,537.130554 451.123871,537.996155 
	C447.722687,538.453918 444.204498,539.373291 441.201904,540.960022 
	C439.416504,541.903564 437.278717,544.760010 437.552094,546.375122 
	C437.904114,548.454773 440.162140,551.017395 442.215912,551.848999 
	C447.880524,554.142700 449.796082,557.728455 448.013977,563.571045 
	C446.721130,567.809631 445.610931,572.201538 445.241364,576.594238 
	C444.925720,580.345947 446.446594,583.759521 450.424255,585.411499 
	C455.526917,587.530884 459.891968,585.943787 463.768707,582.641663 
	C467.500732,579.462891 468.565063,575.053528 466.319427,570.943359 
	C464.426117,567.478088 461.348755,564.508911 458.334564,561.840759 
	C453.233093,557.324829 452.446075,555.155945 455.473450,548.927551 
z"/>
<path fill="#EFD4BA" opacity="1.000000" stroke="none" 
	d="
M601.701843,485.450256 
	C602.094849,485.601807 602.320801,485.853546 602.489624,485.842529 
	C615.371399,494.554260 628.213928,503.095673 640.757385,512.055725 
	C651.254272,519.553955 657.751648,530.113464 662.093323,542.108887 
	C663.223267,545.230652 664.532349,548.287598 665.927246,551.971802 
	C666.369324,553.056030 666.643188,553.542664 666.917114,554.029358 
	C669.012390,561.758301 671.107666,569.487244 673.364624,577.603699 
	C673.774841,579.830078 674.023438,581.668884 674.430725,583.815674 
	C674.789368,592.486145 674.989258,600.848694 674.731384,609.752075 
	C672.490417,610.464050 670.707275,610.635132 668.924072,610.806213 
	C668.191895,610.757141 667.459656,610.708069 666.117188,610.637817 
	C665.333252,610.679504 665.159546,610.742371 664.985779,610.805176 
	C664.824585,610.763184 664.664368,610.717041 664.502136,610.679688 
	C656.471375,608.833496 650.283936,611.556885 643.040649,615.794556 
	C620.256836,629.124268 595.007751,633.088196 568.622192,632.506409 
	C555.741516,632.222412 548.307678,626.962341 542.253052,616.194031 
	C534.364197,602.163513 527.379883,588.073853 528.990784,571.559448 
	C529.689331,564.398071 532.071289,557.368408 534.106934,550.401184 
	C534.456116,549.205750 536.975830,547.802856 538.382507,547.912476 
	C542.996826,548.272339 547.542480,549.455383 552.154785,549.933289 
	C553.392029,550.061462 554.772644,548.805786 556.087402,548.185425 
	C554.989075,547.168030 554.028687,545.521057 552.768005,545.245056 
	C547.972351,544.194946 543.079773,543.587708 538.169434,542.806396 
	C540.485596,535.714905 542.200623,534.543884 548.804871,535.216431 
	C549.301270,535.267029 549.841797,535.432312 550.291199,535.301575 
	C552.209473,534.743652 554.101196,534.094543 556.002625,533.478699 
	C554.493652,531.956421 552.984619,530.434082 551.139038,528.572266 
	C556.877319,522.829163 565.132507,519.734558 574.121582,519.201172 
	C581.023315,518.791626 588.007507,519.750427 594.953247,520.133118 
	C595.773132,520.178223 596.688660,520.744934 597.372925,520.514587 
	C598.684570,520.072998 599.862000,519.232544 601.095093,518.557617 
	C600.180847,517.371338 599.372437,515.263123 598.335693,515.144104 
	C589.813049,514.165771 581.217773,512.736755 572.703552,513.049561 
	C562.675293,513.417908 553.916504,518.194031 545.981873,524.294678 
	C544.063049,525.769897 542.004822,527.063782 539.583679,528.736023 
	C538.358459,520.656677 537.339539,513.359863 536.110901,506.098511 
	C535.557617,502.828339 535.204041,499.300781 533.693787,496.456085 
	C528.076965,485.876862 529.645264,475.108337 532.353638,463.697845 
	C552.486877,465.558533 571.552063,472.090759 590.820679,480.285645 
	C592.601379,481.021118 593.801270,481.484894 595.001221,481.948700 
	C597.103760,483.065369 599.206299,484.182068 601.701843,485.450256 
z"/>
<path fill="#EFD4BA" opacity="1.000000" stroke="none" 
	d="
M419.687195,639.189087 
	C413.439056,643.086182 406.638184,640.168579 400.082123,640.764465 
	C399.619843,640.806396 398.845795,637.652222 398.253937,635.971069 
	C397.587860,634.079102 396.963989,632.172180 396.321777,630.271790 
	C395.145874,632.196716 393.630493,634.003235 392.904297,636.085022 
	C392.349609,637.675110 392.794037,639.613770 392.794037,642.012146 
	C390.427643,642.012146 388.491150,641.968079 386.557343,642.021179 
	C382.511322,642.132263 381.423645,639.699768 381.560760,636.245483 
	C381.600037,635.255920 382.212280,634.141418 381.914703,633.318054 
	C381.365601,631.798584 380.337860,630.452026 379.509521,629.033447 
	C378.286926,630.194458 376.742828,631.173706 375.949554,632.577332 
	C375.377411,633.589661 376.003754,635.208923 375.734253,636.480957 
	C375.418365,637.971924 374.710815,639.379944 374.173157,640.823914 
	C372.472626,640.017700 370.209534,639.650146 369.175690,638.324219 
	C365.909149,634.134521 365.961548,626.718018 369.803528,623.105896 
	C376.667725,616.652222 384.082001,610.783508 391.635620,604.661499 
	C416.266785,615.449158 440.769257,612.731445 465.226318,605.656555 
	C487.001678,599.357422 506.913727,589.826965 521.204346,571.246521 
	C521.451172,570.925598 521.947754,570.796631 521.589355,571.002747 
	C523.490173,581.863281 525.413818,592.854370 527.137329,602.702026 
	C511.537689,604.393555 494.837921,605.662231 478.322083,608.151245 
	C462.520599,610.532471 447.153717,614.992798 432.706085,622.091736 
	C425.691589,625.538330 419.975189,630.106262 419.687195,639.189087 
z"/>
<path fill="#EFD4BA" opacity="1.000000" stroke="none" 
	d="
M488.359497,644.282715 
	C478.321777,645.594482 468.605621,646.532410 458.963623,647.968384 
	C452.719971,648.898315 452.447571,648.890869 452.245300,642.696960 
	C452.199066,641.281921 451.196930,639.898010 450.634735,638.499817 
	C449.405823,639.602844 447.834778,640.508728 447.051514,641.868469 
	C446.371582,643.048828 446.885162,644.874329 446.319214,646.174316 
	C445.712280,647.568481 444.685699,649.350647 443.440521,649.769592 
	C441.296082,650.491211 439.022278,649.821716 438.773376,646.931030 
	C438.576080,644.639038 438.886719,642.298401 438.625000,640.019104 
	C438.492279,638.863098 437.593384,637.795044 437.040833,636.687256 
	C435.967041,637.478333 434.210999,638.090393 433.947632,639.094116 
	C433.162476,642.086365 432.963196,645.232422 432.489502,648.646545 
	C428.428406,649.378601 427.283783,646.312866 425.946960,643.036499 
	C425.188171,634.815796 428.887756,629.857056 436.137177,627.032410 
	C465.578979,615.561035 495.779022,608.322144 527.675903,610.052734 
	C530.806580,610.222534 532.896729,611.143616 534.460754,614.017639 
	C537.002380,618.688232 539.969116,623.126892 542.722778,627.683777 
	C542.957642,628.072510 542.940491,628.613586 543.219971,629.928772 
	C540.923828,629.743469 538.906372,629.717712 536.936157,629.399536 
	C523.809387,627.278992 510.709534,624.985718 497.564301,622.989563 
	C492.581482,622.232971 488.102570,623.883728 485.661804,628.504395 
	C483.247253,633.075439 484.288208,637.512573 487.648071,641.450562 
	C488.236938,642.140747 488.369324,643.220459 488.359497,644.282715 
z"/>
<path fill="#3A0E0C" opacity="1.000000" stroke="none" 
	d="
M669.178284,611.048706 
	C670.707275,610.635132 672.490417,610.464050 674.661865,610.226746 
	C674.028809,614.767151 671.418701,611.479187 669.178284,611.048706 
z"/>
<path fill="#3A0E0C" opacity="1.000000" stroke="none" 
	d="
M594.931152,481.626129 
	C593.801270,481.484894 592.601379,481.021118 591.189087,480.311340 
	C592.271545,480.478088 593.566345,480.890839 594.931152,481.626129 
z"/>
<path fill="#3A0E0C" opacity="1.000000" stroke="none" 
	d="
M665.087402,610.935486 
	C665.159546,610.742371 665.333252,610.679504 665.759399,610.731079 
	C666.011902,610.845459 665.640320,611.146667 665.640320,611.146667 
	C665.640320,611.146667 665.188965,611.065796 665.087402,610.935486 
z"/>
<path fill="#3A0E0C" opacity="1.000000" stroke="none" 
	d="
M667.088135,553.848877 
	C666.643188,553.542664 666.369324,553.056030 666.116943,552.283203 
	C666.512085,552.554199 666.885620,553.111328 667.088135,553.848877 
z"/>
<path fill="#390A06" opacity="1.000000" stroke="none" 
	d="
M488.037903,542.204163 
	C483.728607,542.216125 479.317932,542.802551 475.140900,542.065186 
	C471.553741,541.431885 467.390442,540.121277 464.948914,537.656921 
	C456.652618,529.282837 452.706635,516.179810 458.984924,505.297913 
	C465.501099,494.003754 479.164978,488.351105 491.038055,492.028290 
	C506.465240,496.806244 514.003845,517.189880 504.590546,530.593018 
	C496.663696,531.828125 489.813202,533.392639 488.037903,542.204163 
M473.857605,514.674744 
	C472.057251,514.056274 470.242279,512.886108 468.459564,512.933350 
	C464.677185,513.033508 461.615814,514.919739 461.234924,518.997498 
	C460.917328,522.397400 463.012238,524.637817 466.389801,525.159363 
	C470.502167,525.794250 473.602783,524.107117 474.825562,520.071655 
	C475.246796,518.681458 474.515747,516.942139 473.857605,514.674744 
z"/>
<path fill="#390A06" opacity="1.000000" stroke="none" 
	d="
M391.001587,564.021240 
	C381.631226,559.105957 376.076355,551.670166 377.283783,540.789062 
	C378.561462,529.274841 383.715668,519.666016 395.742950,516.835388 
	C404.899139,514.680542 414.811218,514.188843 422.363617,521.662048 
	C430.220337,529.436340 430.364410,539.500427 427.344055,549.102173 
	C424.941986,556.738342 417.773163,560.622986 410.104218,563.730835 
	C406.484131,562.906555 403.492249,561.708374 400.544312,561.808228 
	C397.342102,561.916565 394.180756,563.232117 391.001587,564.021240 
M388.752960,547.911316 
	C392.503357,548.111023 395.475922,546.620483 396.270691,542.929749 
	C396.644775,541.192810 395.884796,538.052612 394.645813,537.381592 
	C392.434937,536.184265 389.217438,535.548401 386.902405,536.255127 
	C385.080719,536.811279 383.140320,539.583435 382.753815,541.651733 
	C382.103149,545.133850 384.946960,546.822571 388.752960,547.911316 
z"/>
<path fill="#3A0E0C" opacity="1.000000" stroke="none" 
	d="
M491.785461,446.837463 
	C496.309357,440.679016 500.154968,434.362854 505.170319,429.178192 
	C510.349670,423.823944 514.080688,425.160889 516.191956,432.285828 
	C519.304871,442.790833 520.383484,453.493591 518.178406,464.327148 
	C516.918518,470.516907 514.405701,471.593689 508.580811,468.807465 
	C503.787018,466.514496 499.008545,464.189301 494.206390,461.914001 
	C487.585632,458.777039 487.255859,458.020874 489.865387,451.302734 
	C490.406281,449.910187 491.033508,448.551178 491.785461,446.837463 
M500.236816,443.837311 
	C498.520203,447.164429 496.803589,450.491547 494.916046,454.149963 
	C501.236481,457.159180 506.842773,459.828400 514.120056,463.293182 
	C513.088867,452.197174 512.188477,442.507996 511.288025,432.818848 
	C510.596100,432.608246 509.904205,432.397614 509.212280,432.187012 
	C506.360413,435.870300 503.508575,439.553589 500.236816,443.837311 
z"/>
<path fill="#3A0E0C" opacity="1.000000" stroke="none" 
	d="
M345.416382,480.879700 
	C345.327972,471.603333 347.872650,469.814392 355.815765,473.545959 
	C361.004913,475.983704 366.111267,478.671875 370.987366,481.681122 
	C376.025177,484.790161 375.902283,486.389221 372.987854,491.275604 
	C368.587372,498.653534 364.674561,506.320953 360.441986,513.801697 
	C359.710632,515.094421 358.445648,516.940857 357.384888,516.969543 
	C356.131256,517.003540 354.051819,515.583740 353.676758,514.376038 
	C350.940399,505.564789 348.472809,496.667114 346.090179,487.751343 
	C345.540771,485.695435 345.648682,483.463898 345.416382,480.879700 
M357.676300,503.902649 
	C360.978973,498.138733 364.281677,492.374817 367.998932,485.887451 
	C362.769135,483.224335 357.575653,480.579681 352.382172,477.935028 
	C351.896332,478.228577 351.410492,478.522125 350.924652,478.815643 
	C352.395630,487.104706 353.843292,495.398163 355.411957,503.668671 
	C355.484253,504.049713 356.642456,504.224792 357.676300,503.902649 
z"/>
<path fill="#390A06" opacity="1.000000" stroke="none" 
	d="
M455.282471,549.257202 
	C452.446075,555.155945 453.233093,557.324829 458.334564,561.840759 
	C461.348755,564.508911 464.426117,567.478088 466.319427,570.943359 
	C468.565063,575.053528 467.500732,579.462891 463.768707,582.641663 
	C459.891968,585.943787 455.526917,587.530884 450.424255,585.411499 
	C446.446594,583.759521 444.925720,580.345947 445.241364,576.594238 
	C445.610931,572.201538 446.721130,567.809631 448.013977,563.571045 
	C449.796082,557.728455 447.880524,554.142700 442.215912,551.848999 
	C440.162140,551.017395 437.904114,548.454773 437.552094,546.375122 
	C437.278717,544.760010 439.416504,541.903564 441.201904,540.960022 
	C444.204498,539.373291 447.722687,538.453918 451.123871,537.996155 
	C457.554749,537.130554 459.542053,539.964233 457.005737,545.807678 
	C456.544952,546.869324 455.986694,547.888672 455.282471,549.257202 
M460.008789,570.926147 
	C458.634949,568.864807 457.261139,566.803467 455.747711,564.532654 
	C450.054749,571.813660 448.822784,576.898071 451.896393,579.336609 
	C453.284607,580.437988 456.315613,580.632629 458.040314,579.906311 
	C461.762360,578.338928 462.083954,575.082275 460.008789,570.926147 
M451.002777,546.262390 
	C451.264252,545.273071 451.525757,544.283752 452.078552,542.192383 
	C448.400940,543.455627 445.673492,544.392517 442.059631,545.633850 
	C445.556976,548.143127 447.844604,550.189575 451.002777,546.262390 
z"/>
<path fill="#EA9B86" opacity="1.000000" stroke="none" 
	d="
M488.198059,542.501648 
	C489.813202,533.392639 496.663696,531.828125 504.429626,530.908936 
	C508.307068,533.102539 512.124390,535.109985 510.253174,540.501099 
	C508.475189,545.623474 504.699402,547.127319 499.732574,546.942322 
	C495.476410,546.783813 490.858643,547.732605 488.198059,542.501648 
z"/>
<path fill="#EA9B86" opacity="1.000000" stroke="none" 
	d="
M391.009155,564.430115 
	C394.180756,563.232117 397.342102,561.916565 400.544312,561.808228 
	C403.492249,561.708374 406.484131,562.906555 409.755066,563.795410 
	C411.747803,568.582764 411.287445,572.461548 406.880615,575.305298 
	C403.327209,577.598389 395.147339,577.742554 392.167175,575.387878 
	C388.237335,572.282898 390.512177,568.453918 391.009155,564.430115 
z"/>
<path fill="#EFD4BA" opacity="1.000000" stroke="none" 
	d="
M474.084351,515.018555 
	C474.515747,516.942139 475.246796,518.681458 474.825562,520.071655 
	C473.602783,524.107117 470.502167,525.794250 466.389801,525.159363 
	C463.012238,524.637817 460.917328,522.397400 461.234924,518.997498 
	C461.615814,514.919739 464.677185,513.033508 468.459564,512.933350 
	C470.242279,512.886108 472.057251,514.056274 474.084351,515.018555 
z"/>
<path fill="#EFD4BA" opacity="1.000000" stroke="none" 
	d="
M388.368866,547.860413 
	C384.946960,546.822571 382.103149,545.133850 382.753815,541.651733 
	C383.140320,539.583435 385.080719,536.811279 386.902405,536.255127 
	C389.217438,535.548401 392.434937,536.184265 394.645813,537.381592 
	C395.884796,538.052612 396.644775,541.192810 396.270691,542.929749 
	C395.475922,546.620483 392.503357,548.111023 388.368866,547.860413 
z"/>
<path fill="#EA9B86" opacity="1.000000" stroke="none" 
	d="
M500.446777,443.537079 
	C503.508575,439.553589 506.360413,435.870300 509.212280,432.187012 
	C509.904205,432.397614 510.596100,432.608246 511.288025,432.818848 
	C512.188477,442.507996 513.088867,452.197174 514.120056,463.293182 
	C506.842773,459.828400 501.236481,457.159180 494.916046,454.149963 
	C496.803589,450.491547 498.520203,447.164429 500.446777,443.537079 
z"/>
<path fill="#EA9B86" opacity="1.000000" stroke="none" 
	d="
M357.485596,504.199219 
	C356.642456,504.224792 355.484253,504.049713 355.411957,503.668671 
	C353.843292,495.398163 352.395630,487.104706 350.924652,478.815643 
	C351.410492,478.522125 351.896332,478.228577 352.382172,477.935028 
	C357.575653,480.579681 362.769135,483.224335 367.998932,485.887451 
	C364.281677,492.374817 360.978973,498.138733 357.485596,504.199219 
z"/>
<path fill="#EA9B86" opacity="1.000000" stroke="none" 
	d="
M460.211700,571.260498 
	C462.083954,575.082275 461.762360,578.338928 458.040314,579.906311 
	C456.315613,580.632629 453.284607,580.437988 451.896393,579.336609 
	C448.822784,576.898071 450.054749,571.813660 455.747711,564.532654 
	C457.261139,566.803467 458.634949,568.864807 460.211700,571.260498 
z"/>
<path fill="#EA9B86" opacity="1.000000" stroke="none" 
	d="
M450.823792,546.590515 
	C447.844604,550.189575 445.556976,548.143127 442.059631,545.633850 
	C445.673492,544.392517 448.400940,543.455627 452.078552,542.192383 
	C451.525757,544.283752 451.264252,545.273071 450.823792,546.590515 
z"/>
</svg>