<?xml version="1.0" encoding="utf-8"?>
<svg xmlns="http://www.w3.org/2000/svg" xmlns:xlink="http://www.w3.org/1999/xlink" viewBox="0 0 500 500" width="100%" height="100%">
  <g id="background">
    <rect x="0.588" y="317.863" width="499.581" height="183.901" style="fill: rgb(216, 216, 216); stroke: rgb(0, 0, 0);"/>
    <rect x="278.747" y="214.79" width="203.291" height="126.322" style="fill: rgb(216, 216, 216); stroke: rgb(0, 0, 0);"/>
    <rect x="278.831" y="341.715" width="202.703" height="89.894" style="fill: rgb(216, 216, 216); stroke: rgb(0, 0, 0);"/>
    <rect x="284.418" y="223.638" width="191.036" height="108.108" style="fill: rgb(216, 216, 216); stroke: rgb(0, 0, 0);"/>
    <rect x="352.259" y="408.4" width="56.153" height="14.73" style="fill: rgb(216, 216, 216); stroke: rgb(0, 0, 0);"/>
    <ellipse style="fill: rgb(216, 216, 216); stroke: rgb(0, 0, 0);" cx="380.943" cy="219.441" rx="2.182" ry="1.847"/>
    <rect x="287.395" y="355.131" width="185.076" height="46.269" style="fill: rgb(216, 216, 216); stroke: rgb(0, 0, 0);"/>
    <text style="fill: rgb(51, 51, 51); font-family: Arial, sans-serif; font-size: 11px; white-space: pre;" x="290.383" y="251.867">#include &lt;stdio.h&gt;<tspan x="290.38299560546875" dy="1em">​</tspan><tspan x="290.38299560546875" dy="1em">​</tspan>int main(void) {<tspan x="290.38299560546875" dy="1em">​</tspan><tspan x="290.38299560546875" dy="1em">​</tspan>   printf("Hello World\n");<tspan x="290.38299560546875" dy="1em">​</tspan>   return 0;<tspan x="290.38299560546875" dy="1em">​</tspan>}<tspan x="290.38299560546875" dy="1em">​</tspan><tspan x="290.38299560546875" dy="1em">​</tspan></text>
  </g>
  <g id="coffee_mug" transform="matrix(1.13, 0, 0, 1.07067, 3.07373, -14.6554)" style="transform-origin: 239.379px 401.204px;">
    <ellipse style="fill: rgb(216, 216, 216); stroke: rgb(0, 0, 0);" cx="239.993" cy="377.741" rx="19.876" ry="5.533"/>
    <path style="fill: rgb(216, 216, 216); stroke: rgb(0, 0, 0);" d="M 259.706 378.192 L 258.886 424.502"/>
    <path style="fill: rgb(216, 216, 216); stroke: rgb(0, 0, 0);" d="M 219.708 377.537 L 218.888 423.847"/>
    <ellipse style="fill: rgb(216, 216, 216); stroke: rgb(0, 0, 0);" cx="238.764" cy="424.667" rx="19.876" ry="5.533"/>
    <g id="handle" transform="translate(0, 10)">
      <path style="fill: rgb(216, 216, 216); stroke: rgb(0, 0, 0);" d="M 219.486 376.277 C 200.807 377.27 200.146 396.115 219.11 395.1"/>
      <ellipse style="fill: rgb(216, 216, 216); stroke: rgb(0, 0, 0);" cx="213.651" cy="386.536" rx="3.576" ry="4.612"/>
    </g>
  </g>
  <style>
    .img1, .img2 {
      animation-duration: 2s;
      animation-iteration-count: infinite;
      animation-timing-function: step-start;
    }

    .img1 {
      animation-name: fadeOut;
    }

    .img2 {
      animation-name: fadeIn;
    }

    @keyframes fadeOut {
      0%, 49.999% { opacity: 1; }
      50%, 100%   { opacity: 0; }
    }

    @keyframes fadeIn {
      0%, 49.999% { opacity: 0; }
      50%, 100%   { opacity: 1; }
    }
  </style>
  <g class="img1" transform="translate(-50, 200) scale(0.277777)">
    <path fill="none" opacity="1.000000" stroke="none" 
      d="
    M601.000000,1081.000000 
      C400.689728,1081.000000 200.879456,1081.000000 1.034590,1081.000000 
      C1.034590,721.064575 1.034590,361.129211 1.034590,1.096903 
      C360.893829,1.096903 720.787659,1.096903 1080.840820,1.096903 
      C1080.840820,360.999939 1080.840820,720.999939 1080.840820,1081.000000 
      C921.128723,1081.000000 761.314392,1081.000000 601.000000,1081.000000 
    M631.500000,233.060898 
      C500.848663,233.060715 370.197266,233.085480 239.546051,232.963699 
      C234.628830,232.959122 232.945633,234.119522 232.948883,239.325592 
      C233.074722,440.635895 233.055695,641.946228 233.067917,843.256592 
      C233.068024,845.024353 233.232422,846.792053 233.324173,848.641724 
      C438.723602,848.641724 643.598511,848.641724 848.665283,848.641724 
      C848.665283,643.404541 848.665283,438.531494 848.665283,233.061035 
      C776.384705,233.061035 704.442322,233.061035 631.500000,233.060898 
    z"/>
    <path fill="none" opacity="1.000000" stroke="none" 
      d="
    M632.000000,233.060974 
      C704.442322,233.061035 776.384705,233.061035 848.665283,233.061035 
      C848.665283,438.531494 848.665283,643.404541 848.665283,848.641724 
      C643.598511,848.641724 438.723602,848.641724 233.324173,848.641724 
      C233.232422,846.792053 233.068024,845.024353 233.067917,843.256592 
      C233.055695,641.946228 233.074722,440.635895 232.948883,239.325592 
      C232.945633,234.119522 234.628830,232.959122 239.546051,232.963699 
      C370.197266,233.085480 500.848663,233.060715 632.000000,233.060974 
    M698.727417,676.875427 
      C701.898682,672.282043 705.069885,667.688660 708.843872,662.786194 
      C710.938843,659.210388 713.033813,655.634583 715.701416,651.891113 
      C718.875305,643.725281 717.359009,635.112366 717.118286,626.873962 
      C716.508057,605.989624 711.445984,585.894775 702.788025,566.800537 
      C702.304932,565.735046 701.241455,564.932800 700.333496,563.722473 
      C700.218811,563.551514 700.095642,563.386841 700.135010,562.456970 
      C695.505127,551.455505 688.676331,542.061829 679.584106,534.317261 
      C656.762146,514.878174 630.891357,500.835907 602.683960,490.963287 
      C583.799194,484.353607 564.502808,480.125061 544.397705,483.175293 
      C534.757629,484.637817 525.282776,487.189484 515.338623,489.332916 
      C514.792725,488.295837 514.010437,486.676819 513.112793,485.124573 
      C503.439758,468.397919 491.024567,454.327240 473.863647,444.924469 
      C465.303772,440.234375 463.125854,441.030396 459.060028,449.948608 
      C452.705170,463.887787 450.351257,478.804291 448.103271,493.778137 
      C447.803772,495.773041 446.393341,498.307281 444.729523,499.284851 
      C421.067871,513.186768 402.796112,532.450439 388.290344,555.486633 
      C386.259186,558.712280 383.551910,559.998413 379.998169,561.015320 
      C368.223206,564.384827 356.373016,567.683777 344.966583,572.085083 
      C336.544128,575.334900 336.295776,577.590149 339.900330,586.000977 
      C340.358032,587.069031 340.798401,588.152283 341.356262,589.168396 
      C351.337341,607.348755 364.152527,623.130737 380.834808,635.609375 
      C384.901886,638.651550 389.071808,641.556274 393.466278,644.719971 
      C390.610992,646.709106 388.133545,648.090088 386.071594,649.935303 
      C379.487793,655.827393 378.613983,663.585510 380.411438,671.507263 
      C381.869934,677.935059 387.128510,680.892151 393.408142,681.329895 
      C400.514343,681.825195 407.665985,682.029846 414.786438,681.865540 
      C423.107574,681.673706 431.412720,680.834045 439.734192,680.562256 
      C441.143250,680.516174 443.285095,681.544739 443.915192,682.710693 
      C446.621002,687.717773 451.085419,689.242737 456.213867,690.048889 
      C468.497589,691.979675 480.193939,689.368408 492.111572,686.623291 
      C504.528564,683.763245 517.445435,682.088257 530.086914,685.177673 
      C552.777222,690.722900 575.789124,692.690369 599.019531,692.396973 
      C609.639343,692.262817 620.282166,691.453796 630.851135,690.346191 
      C648.629700,688.483093 666.363708,686.184814 684.103516,683.966370 
      C689.501709,683.291260 694.784729,682.128601 698.071411,677.088501 
      C698.071411,677.088501 698.096619,677.133545 698.727417,676.875427 
    z"/>
    <path fill="#3A0808" opacity="1.000000" stroke="none" 
      d="
    M698.118347,677.112915 
      C694.784729,682.128601 689.501709,683.291260 684.103516,683.966370 
      C666.363708,686.184814 648.629700,688.483093 630.851135,690.346191 
      C620.282166,691.453796 609.639343,692.262817 599.019531,692.396973 
      C575.789124,692.690369 552.777222,690.722900 530.086914,685.177673 
      C517.445435,682.088257 504.528564,683.763245 492.111572,686.623291 
      C480.193939,689.368408 468.497589,691.979675 456.213867,690.048889 
      C451.085419,689.242737 446.621002,687.717773 443.915192,682.710693 
      C443.285095,681.544739 441.143250,680.516174 439.734192,680.562256 
      C431.412720,680.834045 423.107574,681.673706 414.786438,681.865540 
      C407.665985,682.029846 400.514343,681.825195 393.408142,681.329895 
      C387.128510,680.892151 381.869934,677.935059 380.411438,671.507263 
      C378.613983,663.585510 379.487793,655.827393 386.071594,649.935303 
      C388.133545,648.090088 390.610992,646.709106 393.466278,644.719971 
      C389.071808,641.556274 384.901886,638.651550 380.834808,635.609375 
      C364.152527,623.130737 351.337341,607.348755 341.356262,589.168396 
      C340.798401,588.152283 340.358032,587.069031 339.900330,586.000977 
      C336.295776,577.590149 336.544128,575.334900 344.966583,572.085083 
      C356.373016,567.683777 368.223206,564.384827 379.998169,561.015320 
      C383.551910,559.998413 386.259186,558.712280 388.290344,555.486633 
      C402.796112,532.450439 421.067871,513.186768 444.729523,499.284851 
      C446.393341,498.307281 447.803772,495.773041 448.103271,493.778137 
      C450.351257,478.804291 452.705170,463.887787 459.060028,449.948608 
      C463.125854,441.030396 465.303772,440.234375 473.863647,444.924469 
      C491.024567,454.327240 503.439758,468.397919 513.112793,485.124573 
      C514.010437,486.676819 514.792725,488.295837 515.338623,489.332916 
      C525.282776,487.189484 534.757629,484.637817 544.397705,483.175293 
      C564.502808,480.125061 583.799194,484.353607 602.683960,490.963287 
      C630.891357,500.835907 656.762146,514.878174 679.584106,534.317261 
      C688.676331,542.061829 695.505127,551.455505 700.108276,562.984741 
      C700.188721,563.688843 700.310913,563.853943 700.448181,564.007996 
      C701.241455,564.932800 702.304932,565.735046 702.788025,566.800537 
      C711.445984,585.894775 716.508057,605.989624 717.118286,626.873962 
      C717.359009,635.112366 718.875305,643.725281 715.112183,651.721802 
      C714.489319,646.017456 713.104309,642.677124 706.575500,645.867004 
      C704.959473,646.656616 702.564026,646.329285 700.645630,645.936035 
      C693.607422,644.493286 687.936707,645.538696 681.346619,649.817932 
      C669.234314,657.682922 655.490784,662.263123 641.100769,665.607056 
      C629.983093,668.190674 619.253784,669.821716 607.911316,669.447571 
      C595.623474,669.042236 583.546326,668.232361 572.193481,662.688354 
      C568.980408,657.105164 565.445129,652.041016 562.639771,646.600464 
      C561.112671,643.638977 559.140503,642.416260 556.145996,642.221069 
      C544.305115,641.448975 532.460510,641.393555 520.952209,644.656311 
      C508.835327,648.091614 496.949829,652.364136 484.785736,655.604553 
      C476.950745,657.691772 468.724762,658.270142 460.806854,660.099792 
      C454.392181,661.582031 448.928528,668.339050 448.357544,674.276672 
      C447.819489,679.872009 450.460266,682.858093 455.445801,682.498718 
      C455.445801,679.385620 454.937927,676.160095 455.664307,673.241821 
      C456.016815,671.825684 458.826691,669.910583 460.268372,670.106201 
      C463.314911,670.519531 462.025635,672.994080 461.754730,675.197266 
      C461.435303,677.794983 461.399933,681.131592 462.784241,683.011963 
      C463.889862,684.513794 467.306580,684.314209 470.063812,684.954956 
      C470.063812,681.038269 469.516724,678.061829 470.277466,675.468994 
      C470.705231,674.011047 473.292480,673.186646 474.906860,672.076782 
      C475.442017,673.687805 476.676514,675.437378 476.389435,676.885315 
      C475.237000,682.698242 476.460297,684.202454 482.121674,682.445862 
      C490.903015,679.721252 499.812805,678.508972 508.989319,678.958618 
      C510.846680,679.049561 512.729919,678.612488 515.281006,678.348511 
      C514.214722,677.022156 513.729126,676.381714 513.205994,675.773499 
      C509.785309,671.796509 508.656372,667.244690 510.777863,662.430176 
      C512.953735,657.492249 517.321289,655.566589 522.505127,655.945679 
      C528.260803,656.366516 534.021057,656.976685 539.718445,657.886108 
      C549.838074,659.501343 559.911682,661.404480 569.939331,663.560669 
      C567.352661,664.584106 564.745300,665.997131 562.327454,665.725342 
      C557.257385,665.155273 552.334961,663.242065 547.264771,662.709961 
      C538.978333,661.840088 531.134460,658.050537 522.379150,659.814087 
      C517.870544,660.722229 515.701233,662.354675 516.020752,666.839355 
      C516.323059,671.082642 516.814697,675.312378 517.296509,680.309143 
      C528.713989,677.728027 537.981079,684.388611 548.551208,685.686829 
      C564.244873,687.614380 579.925415,687.914734 595.601196,688.867981 
      C603.009644,689.318481 610.522095,688.544983 617.956848,687.946594 
      C626.181763,687.284546 634.382507,686.275146 642.574280,685.259888 
      C653.395874,683.918579 664.199097,682.428040 675.009155,680.994263 
      C680.240967,680.300415 685.483032,679.669128 690.695862,678.852661 
      C693.199402,678.460510 695.645996,677.704224 698.118347,677.112915 
    M711.148804,641.399658 
      C712.013794,626.309021 710.659180,611.303040 706.346313,596.932068 
      C702.275574,583.367981 697.427307,569.830078 691.009827,557.256104 
      C687.242249,549.874084 680.249023,543.822266 673.825867,538.173706 
      C657.596191,523.901367 638.995239,513.183411 619.300903,504.451385 
      C597.855042,494.942749 575.785217,487.818420 551.846375,489.092957 
      C540.256714,489.709991 528.988159,491.748627 518.055969,496.328247 
      C525.101196,502.064209 532.272522,507.021667 538.336914,513.086060 
      C544.501038,519.250305 549.574036,526.505798 555.308167,533.507263 
      C558.720520,531.702026 562.864990,529.241394 567.258240,527.362183 
      C568.446045,526.854126 570.386902,528.106201 571.982056,528.550293 
      C571.190857,529.843994 570.677429,531.514343 569.546997,532.348145 
      C567.565613,533.809387 565.201904,534.750061 563.005371,535.921875 
      C556.018250,539.649353 556.019470,539.651672 559.554321,546.821228 
      C564.396912,545.146240 569.202515,543.323792 574.120178,541.884094 
      C575.525085,541.472839 578.185364,541.635803 578.659729,542.461060 
      C580.049133,544.877930 578.366760,546.302979 575.984619,547.169189 
      C571.028198,548.971313 566.128967,550.930847 561.276733,552.798584 
      C561.588318,557.310059 561.878784,561.516479 562.168335,565.709534 
      C562.621155,565.682739 562.827759,565.731079 562.889160,565.657715 
      C563.636719,564.765747 564.355652,563.849854 565.095886,562.951660 
      C578.266052,546.969971 594.793762,538.014832 615.909729,539.272766 
      C620.991821,539.575562 626.059326,540.856079 631.003784,542.173828 
      C632.105835,542.467529 632.661133,544.813354 633.468201,546.214294 
      C632.137756,546.849426 630.859436,547.694275 629.457764,548.042786 
      C628.584106,548.259949 627.516174,547.759094 626.548584,547.526001 
      C592.137085,539.240356 558.545532,564.932678 556.892151,600.382019 
      C555.825806,623.242798 565.836792,641.849731 578.348938,659.608459 
      C579.903381,661.814697 582.589600,664.034668 585.109863,664.574158 
      C589.829041,665.584412 594.814819,665.312073 599.682434,665.671631 
      C622.070679,667.325256 643.600830,663.448669 664.154663,654.769104 
      C671.490784,651.671204 679.504395,649.187927 684.805603,642.399475 
      C685.424988,641.606323 687.113770,640.672668 687.698303,640.976135 
      C694.906067,644.718567 702.651428,641.899658 710.435486,642.905151 
      C710.686768,642.786560 710.889343,642.611511 711.148804,641.399658 
    M442.673950,651.916748 
      C445.125458,649.090576 446.123993,652.144409 447.225128,653.724548 
      C445.132050,656.256897 443.038971,658.789185 440.905304,661.370667 
      C444.112366,663.189819 446.062744,662.595215 448.788696,660.536682 
      C453.038879,657.326904 457.945801,654.397400 463.027893,653.010376 
      C471.652252,650.656372 480.698273,649.900208 489.445129,647.931030 
      C509.169556,643.490601 526.068542,634.342957 538.581848,617.891663 
      C546.898804,606.957336 550.528076,594.359924 553.084900,581.182495 
      C554.735535,572.675110 555.654968,564.236389 554.539795,555.155396 
      C550.853943,556.583374 547.691833,557.808350 544.529724,559.033386 
      C544.354004,558.646545 544.178345,558.259644 544.002625,557.872803 
      C546.773621,556.130432 550.607239,554.979614 552.003357,552.471863 
      C553.283020,550.173096 551.932190,546.409790 551.684326,542.379639 
      C546.638733,546.121582 542.902222,548.892700 539.165649,551.663818 
      C538.533813,550.946960 537.901917,550.230042 537.270020,549.513123 
      C539.971191,547.369385 542.560669,545.062256 545.399963,543.120300 
      C549.664429,540.203674 549.338806,537.218689 546.780762,533.143311 
      C539.344971,521.296997 528.763916,512.793640 517.844666,504.511475 
      C515.327271,502.602081 512.563721,500.060760 511.587646,497.232452 
      C505.689270,480.141968 493.822021,467.752502 480.344147,456.648010 
      C476.454590,453.443390 471.763275,451.211823 466.945374,448.228058 
      C465.671509,450.995270 464.676971,453.042908 463.776123,455.130981 
      C458.044556,468.415985 456.422699,482.653656 453.916473,496.710815 
      C453.463654,499.250458 451.531525,502.320618 449.365295,503.638611 
      C425.842072,517.950867 407.120911,536.981445 392.745819,560.354187 
      C390.478485,564.040588 387.481049,565.886414 383.321838,566.928589 
      C373.029022,569.507568 362.705719,572.118835 352.670837,575.529602 
      C342.913422,578.846069 343.091125,579.274719 348.117493,588.286255 
      C365.790436,619.971069 393.648529,640.220703 425.123932,656.110046 
      C435.780243,661.489563 436.147766,660.761536 442.673950,651.916748 
    M391.298859,674.787964 
      C392.501312,674.787964 393.703796,674.787964 394.186096,674.787964 
      C394.867737,670.602600 395.124084,666.810120 396.276855,663.313171 
      C396.618927,662.275574 399.482544,662.069214 401.190735,661.481995 
      C401.516327,662.780579 402.052673,664.067505 402.125336,665.380066 
      C402.297089,668.483093 401.024414,672.873413 402.599304,674.385132 
      C404.557159,676.264465 408.794556,675.769043 413.099487,676.470703 
      C411.472443,669.599792 413.315948,664.942383 418.314636,661.143066 
      C413.649994,658.301147 409.529266,655.865112 405.484497,653.308899 
      C399.397858,649.462280 396.094574,649.623413 390.640320,654.199768 
      C384.326965,659.496948 384.299438,669.960266 391.298859,674.787964 
    M540.821533,625.290344 
      C537.555908,628.764343 534.290283,632.238281 531.220398,635.504028 
      C539.224854,635.504028 547.580933,635.504028 556.118835,635.504028 
      C554.152466,627.789734 552.214111,620.185486 550.170227,612.167053 
      C547.107666,616.492432 544.188660,620.614990 540.821533,625.290344 
    M427.713989,664.953430 
      C426.210846,664.354553 424.707703,663.755737 421.829132,662.608887 
      C420.855011,666.342407 419.838654,669.731079 419.292053,673.193848 
      C419.242767,673.506226 422.210358,674.737366 423.800171,674.786255 
      C429.460876,674.960266 429.290924,669.726746 431.541595,666.556030 
      C430.265839,665.982056 429.363251,665.575928 427.713989,664.953430 
    M434.880554,672.760071 
      C436.481476,673.194153 438.524200,674.438293 439.575623,673.864868 
      C441.009491,673.082886 441.687744,670.915527 442.661804,669.386292 
      C437.832428,666.145630 436.460480,669.110535 434.880554,672.760071 
    z"/>
    <path fill="#360501" opacity="1.000000" stroke="none" 
      d="
    M698.094849,677.100708 
      C695.645996,677.704224 693.199402,678.460510 690.695862,678.852661 
      C685.483032,679.669128 680.240967,680.300415 675.009155,680.994263 
      C664.199097,682.428040 653.395874,683.918579 642.574280,685.259888 
      C634.382507,686.275146 626.181763,687.284546 617.956848,687.946594 
      C610.522095,688.544983 603.009644,689.318481 595.601196,688.867981 
      C579.925415,687.914734 564.244873,687.614380 548.551208,685.686829 
      C537.981079,684.388611 528.713989,677.728027 517.296509,680.309143 
      C516.814697,675.312378 516.323059,671.082642 516.020752,666.839355 
      C515.701233,662.354675 517.870544,660.722229 522.379150,659.814087 
      C531.134460,658.050537 538.978333,661.840088 547.264771,662.709961 
      C552.334961,663.242065 557.257385,665.155273 562.327454,665.725342 
      C564.745300,665.997131 567.352661,664.584106 570.297241,663.495667 
      C571.205444,663.054871 571.690430,663.052673 572.175476,663.050476 
      C583.546326,668.232361 595.623474,669.042236 607.911316,669.447571 
      C619.253784,669.821716 629.983093,668.190674 641.100769,665.607056 
      C655.490784,662.263123 669.234314,657.682922 681.346619,649.817932 
      C687.936707,645.538696 693.607422,644.493286 700.645630,645.936035 
      C702.564026,646.329285 704.959473,646.656616 706.575500,645.867004 
      C713.104309,642.677124 714.489319,646.017456 714.825928,651.805664 
      C713.033813,655.634583 710.938843,659.210388 708.156250,662.918823 
      C699.422363,664.469604 699.645020,671.390930 698.096619,677.133545 
      C698.096619,677.133545 698.071411,677.088501 698.094849,677.100708 
    z"/>
    <path fill="#3A0808" opacity="1.000000" stroke="none" 
      d="
    M698.411987,677.004517 
      C699.645020,671.390930 699.422363,664.469604 707.854858,663.073364 
      C705.069885,667.688660 701.898682,672.282043 698.411987,677.004517 
    z"/>
    <path fill="#400F0C" opacity="1.000000" stroke="none" 
      d="
    M700.390869,563.865234 
      C700.310913,563.853943 700.188721,563.688843 700.022766,563.370605 
      C700.095642,563.386841 700.218811,563.551514 700.390869,563.865234 
    z"/>
    <path fill="#F1D6BD" opacity="1.000000" stroke="none" 
      d="
    M442.125122,652.171509 
      C436.147766,660.761536 435.780243,661.489563 425.123932,656.110046 
      C393.648529,640.220703 365.790436,619.971069 348.117493,588.286255 
      C343.091125,579.274719 342.913422,578.846069 352.670837,575.529602 
      C362.705719,572.118835 373.029022,569.507568 383.321838,566.928589 
      C387.481049,565.886414 390.478485,564.040588 392.745819,560.354187 
      C407.120911,536.981445 425.842072,517.950867 449.365295,503.638611 
      C451.531525,502.320618 453.463654,499.250458 453.916473,496.710815 
      C456.422699,482.653656 458.044556,468.415985 463.776123,455.130981 
      C464.676971,453.042908 465.671509,450.995270 466.945374,448.228058 
      C471.763275,451.211823 476.454590,453.443390 480.344147,456.648010 
      C493.822021,467.752502 505.689270,480.141968 511.587646,497.232452 
      C512.563721,500.060760 515.327271,502.602081 517.844666,504.511475 
      C528.763916,512.793640 539.344971,521.296997 546.780762,533.143311 
      C549.338806,537.218689 549.664429,540.203674 545.399963,543.120300 
      C542.560669,545.062256 539.971191,547.369385 537.270020,549.513123 
      C537.901917,550.230042 538.533813,550.946960 539.165649,551.663818 
      C542.902222,548.892700 546.638733,546.121582 551.684326,542.379639 
      C551.932190,546.409790 553.283020,550.173096 552.003357,552.471863 
      C550.607239,554.979614 546.773621,556.130432 544.002625,557.872803 
      C544.178345,558.259644 544.354004,558.646545 544.529724,559.033386 
      C547.691833,557.808350 550.853943,556.583374 554.539795,555.155396 
      C555.654968,564.236389 554.735535,572.675110 553.084900,581.182495 
      C550.528076,594.359924 546.898804,606.957336 538.581848,617.891663 
      C526.068542,634.342957 509.169556,643.490601 489.445129,647.931030 
      C480.698273,649.900208 471.652252,650.656372 463.027893,653.010376 
      C457.945801,654.397400 453.038879,657.326904 448.788696,660.536682 
      C446.062744,662.595215 444.112366,663.189819 440.905304,661.370667 
      C443.038971,658.789185 445.132050,656.256897 447.757690,653.399658 
      C453.990814,651.423035 455.749603,646.583313 457.567261,641.729553 
      C459.150330,637.502319 457.001801,634.028442 453.978699,632.441711 
      C451.599884,631.193115 447.475616,631.480042 444.910858,632.714355 
      C437.470947,636.294678 435.431976,642.674194 437.764038,650.364746 
      C439.228363,650.971375 440.676727,651.571472 442.125122,652.171509 
    M520.486328,573.604858 
      C523.851868,572.619324 527.534607,572.198853 530.514282,570.526001 
      C536.043823,567.421692 537.471191,563.671753 535.935486,558.286987 
      C532.066406,552.754456 526.678833,551.051819 522.270752,554.644897 
      C519.557861,556.856140 517.158630,559.872742 515.622375,563.018066 
      C512.572876,569.261658 513.521423,570.911438 520.486328,573.604858 
    M500.133881,491.156219 
      C496.246216,478.996124 488.137207,469.820709 478.864716,461.575867 
      C474.016846,457.265259 470.566956,458.232086 468.376007,464.378357 
      C464.496399,475.261810 465.434937,486.341827 468.041901,497.285034 
      C468.375641,498.685974 471.338013,500.489044 472.964630,500.377930 
      C480.556274,499.859344 488.095032,498.617249 495.676270,497.874634 
      C499.582306,497.492035 500.966797,495.617706 500.133881,491.156219 
    M388.308990,601.066162 
      C388.709503,596.456421 389.370270,591.846924 389.373291,587.236938 
      C389.374390,585.561035 387.920471,582.503967 386.937042,582.422852 
      C377.893677,581.677124 368.729614,580.455811 360.048981,584.618591 
      C356.657959,586.244690 356.069977,588.870178 357.291351,592.058105 
      C357.876587,593.585632 358.855835,594.976196 359.749359,596.369324 
      C366.706818,607.218201 376.776367,614.793701 387.065247,622.100281 
      C387.958344,622.734436 390.138763,623.017273 390.588806,622.492432 
      C391.386536,621.561951 391.740082,619.817078 391.532837,618.533508 
      C390.636505,612.981506 389.469757,607.473083 388.308990,601.066162 
    M489.736389,591.076294 
      C487.643890,591.717957 485.158051,591.855957 483.546936,593.114075 
      C480.823517,595.240784 478.423340,597.902588 476.331818,600.674744 
      C474.939545,602.520081 472.989502,606.245117 473.602325,606.873657 
      C475.480957,608.800659 478.421631,609.774109 481.063782,610.832764 
      C482.058685,611.231445 483.453430,611.114990 484.517242,610.772217 
      C488.359009,609.534058 489.715729,612.185913 490.704102,614.834473 
      C493.203613,621.532410 488.985443,627.078918 481.796234,627.284485 
      C480.281189,627.327881 478.811127,628.942932 477.320374,629.833801 
      C478.654999,630.847961 479.858856,632.257996 481.364227,632.755371 
      C482.650604,633.180359 484.332397,632.744263 485.754150,632.367615 
      C493.050323,630.434631 495.471649,626.756836 496.354309,616.430481 
      C497.637421,616.544067 498.921722,616.760864 500.204956,616.754700 
      C509.060486,616.712463 516.289490,608.093445 514.074890,599.959229 
      C513.702271,598.590576 511.880341,597.616577 510.727997,596.460205 
      C510.143921,597.779236 509.397003,599.052673 509.012085,600.427490 
      C508.355469,602.772522 508.463776,605.498718 507.285248,607.494690 
      C505.091248,611.210266 501.386688,612.258911 497.287872,610.842163 
      C493.609131,609.570618 492.068665,607.457275 492.630005,602.942078 
      C493.082184,599.305176 491.142609,595.370850 489.736389,591.076294 
    M514.589111,551.001526 
      C515.970886,547.429321 513.590942,546.474182 510.931274,546.151367 
      C500.505920,544.886353 485.387085,561.254578 487.268036,571.794067 
      C487.466614,572.906738 488.656616,574.692078 489.354218,574.676880 
      C490.547760,574.650818 491.955353,573.656921 492.818420,572.671326 
      C493.509064,571.882690 493.588959,570.516602 493.829987,569.383423 
      C495.980804,559.271301 501.246185,554.274658 511.330536,552.705994 
      C512.267212,552.560364 513.134644,551.969666 514.589111,551.001526 
    M458.484985,605.940369 
      C450.199036,604.360107 443.140900,606.985046 438.139435,613.434265 
      C435.314331,617.077087 433.835449,621.850525 432.249329,626.292908 
      C431.939178,627.161621 433.925720,628.850403 434.852966,630.160950 
      C435.917847,629.402161 437.771393,628.777771 437.927094,627.864014 
      C439.731812,617.274414 445.935577,611.980835 456.576141,611.376648 
      C459.633942,611.203064 461.261902,609.567566 458.484985,605.940369 
    z"/>
    <path fill="#F1D6BD" opacity="1.000000" stroke="none" 
      d="
    M710.043335,643.010864 
      C702.651428,641.899658 694.906067,644.718567 687.698303,640.976135 
      C687.113770,640.672668 685.424988,641.606323 684.805603,642.399475 
      C679.504395,649.187927 671.490784,651.671204 664.154663,654.769104 
      C643.600830,663.448669 622.070679,667.325256 599.682434,665.671631 
      C594.814819,665.312073 589.829041,665.584412 585.109863,664.574158 
      C582.589600,664.034668 579.903381,661.814697 578.348938,659.608459 
      C565.836792,641.849731 555.825806,623.242798 556.892151,600.382019 
      C558.545532,564.932678 592.137085,539.240356 626.548584,547.526001 
      C627.516174,547.759094 628.584106,548.259949 629.457764,548.042786 
      C630.859436,547.694275 632.137756,546.849426 633.468201,546.214294 
      C632.661133,544.813354 632.105835,542.467529 631.003784,542.173828 
      C626.059326,540.856079 620.991821,539.575562 615.909729,539.272766 
      C594.793762,538.014832 578.266052,546.969971 565.095886,562.951660 
      C564.355652,563.849854 563.636719,564.765747 562.889160,565.657715 
      C562.827759,565.731079 562.621155,565.682739 562.168335,565.709534 
      C561.878784,561.516479 561.588318,557.310059 561.276733,552.798584 
      C566.128967,550.930847 571.028198,548.971313 575.984619,547.169189 
      C578.366760,546.302979 580.049133,544.877930 578.659729,542.461060 
      C578.185364,541.635803 575.525085,541.472839 574.120178,541.884094 
      C569.202515,543.323792 564.396912,545.146240 559.554321,546.821228 
      C556.019470,539.651672 556.018250,539.649353 563.005371,535.921875 
      C565.201904,534.750061 567.565613,533.809387 569.546997,532.348145 
      C570.677429,531.514343 571.190857,529.843994 571.982056,528.550293 
      C570.386902,528.106201 568.446045,526.854126 567.258240,527.362183 
      C562.864990,529.241394 558.720520,531.702026 555.308167,533.507263 
      C549.574036,526.505798 544.501038,519.250305 538.336914,513.086060 
      C532.272522,507.021667 525.101196,502.064209 518.055969,496.328247 
      C528.988159,491.748627 540.256714,489.709991 551.846375,489.092957 
      C575.785217,487.818420 597.855042,494.942749 619.300903,504.451385 
      C638.995239,513.183411 657.596191,523.901367 673.825867,538.173706 
      C680.249023,543.822266 687.242249,549.874084 691.009827,557.256104 
      C697.427307,569.830078 702.275574,583.367981 706.346313,596.932068 
      C710.659180,611.303040 712.013794,626.309021 710.913696,641.968689 
      C710.433289,642.650452 710.221558,642.808167 710.043335,643.010864 
    z"/>
    <path fill="#F2D4BB" opacity="1.000000" stroke="none" 
      d="
    M572.193481,662.688354 
      C571.690430,663.052673 571.205444,663.054871 570.362488,663.122192 
      C559.911682,661.404480 549.838074,659.501343 539.718445,657.886108 
      C534.021057,656.976685 528.260803,656.366516 522.505127,655.945679 
      C517.321289,655.566589 512.953735,657.492249 510.777863,662.430176 
      C508.656372,667.244690 509.785309,671.796509 513.205994,675.773499 
      C513.729126,676.381714 514.214722,677.022156 515.281006,678.348511 
      C512.729919,678.612488 510.846680,679.049561 508.989319,678.958618 
      C499.812805,678.508972 490.903015,679.721252 482.121674,682.445862 
      C476.460297,684.202454 475.237000,682.698242 476.389435,676.885315 
      C476.676514,675.437378 475.442017,673.687805 474.906860,672.076782 
      C473.292480,673.186646 470.705231,674.011047 470.277466,675.468994 
      C469.516724,678.061829 470.063812,681.038269 470.063812,684.954956 
      C467.306580,684.314209 463.889862,684.513794 462.784241,683.011963 
      C461.399933,681.131592 461.435303,677.794983 461.754730,675.197266 
      C462.025635,672.994080 463.314911,670.519531 460.268372,670.106201 
      C458.826691,669.910583 456.016815,671.825684 455.664307,673.241821 
      C454.937927,676.160095 455.445801,679.385620 455.445801,682.498718 
      C450.460266,682.858093 447.819489,679.872009 448.357544,674.276672 
      C448.928528,668.339050 454.392181,661.582031 460.806854,660.099792 
      C468.724762,658.270142 476.950745,657.691772 484.785736,655.604553 
      C496.949829,652.364136 508.835327,648.091614 520.952209,644.656311 
      C532.460510,641.393555 544.305115,641.448975 556.145996,642.221069 
      C559.140503,642.416260 561.112671,643.638977 562.639771,646.600464 
      C565.445129,652.041016 568.980408,657.105164 572.193481,662.688354 
    z"/>
    <path fill="#F0D2BA" opacity="1.000000" stroke="none" 
      d="
    M390.943054,674.570435 
      C384.299438,669.960266 384.326965,659.496948 390.640320,654.199768 
      C396.094574,649.623413 399.397858,649.462280 405.484497,653.308899 
      C409.529266,655.865112 413.649994,658.301147 418.314636,661.143066 
      C413.315948,664.942383 411.472443,669.599792 413.099487,676.470703 
      C408.794556,675.769043 404.557159,676.264465 402.599304,674.385132 
      C401.024414,672.873413 402.297089,668.483093 402.125336,665.380066 
      C402.052673,664.067505 401.516327,662.780579 401.190735,661.481995 
      C399.482544,662.069214 396.618927,662.275574 396.276855,663.313171 
      C395.124084,666.810120 394.867737,670.602600 394.186096,674.787964 
      C393.703796,674.787964 392.501312,674.787964 390.943054,674.570435 
    z"/>
    <path fill="#F6A496" opacity="1.000000" stroke="none" 
      d="
    M442.399536,652.044128 
      C440.676727,651.571472 439.228363,650.971375 437.764038,650.364746 
      C435.431976,642.674194 437.470947,636.294678 444.910858,632.714355 
      C447.475616,631.480042 451.599884,631.193115 453.978699,632.441711 
      C457.001801,634.028442 459.150330,637.502319 457.567261,641.729553 
      C455.749603,646.583313 453.990814,651.423035 447.960480,653.108215 
      C446.123993,652.144409 445.125458,649.090576 442.399536,652.044128 
    z"/>
    <path fill="#F0D2BA" opacity="1.000000" stroke="none" 
      d="
    M541.045654,625.013916 
      C544.188660,620.614990 547.107666,616.492432 550.170227,612.167053 
      C552.214111,620.185486 554.152466,627.789734 556.118835,635.504028 
      C547.580933,635.504028 539.224854,635.504028 531.220398,635.504028 
      C534.290283,632.238281 537.555908,628.764343 541.045654,625.013916 
    z"/>
    <path fill="#F0D2BA" opacity="1.000000" stroke="none" 
      d="
    M428.087341,665.061646 
      C429.363251,665.575928 430.265839,665.982056 431.541595,666.556030 
      C429.290924,669.726746 429.460876,674.960266 423.800171,674.786255 
      C422.210358,674.737366 419.242767,673.506226 419.292053,673.193848 
      C419.838654,669.731079 420.855011,666.342407 421.829132,662.608887 
      C424.707703,663.755737 426.210846,664.354553 428.087341,665.061646 
    z"/>
    <path fill="#F0D2BA" opacity="1.000000" stroke="none" 
      d="
    M434.988525,672.426147 
      C436.460480,669.110535 437.832428,666.145630 442.661804,669.386292 
      C441.687744,670.915527 441.009491,673.082886 439.575623,673.864868 
      C438.524200,674.438293 436.481476,673.194153 434.988525,672.426147 
    z"/>
    <path fill="#400F0C" opacity="1.000000" stroke="none" 
      d="
    M710.239380,642.958008 
      C710.221558,642.808167 710.433289,642.650452 710.860840,642.458923 
      C710.889343,642.611511 710.686768,642.786560 710.239380,642.958008 
    z"/>
    <path fill="#3C0908" opacity="1.000000" stroke="none" 
      d="
    M500.197449,491.533813 
      C500.966797,495.617706 499.582306,497.492035 495.676270,497.874634 
      C488.095032,498.617249 480.556274,499.859344 472.964630,500.377930 
      C471.338013,500.489044 468.375641,498.685974 468.041901,497.285034 
      C465.434937,486.341827 464.496399,475.261810 468.376007,464.378357 
      C470.566956,458.232086 474.016846,457.265259 478.864716,461.575867 
      C488.137207,469.820709 496.246216,478.996124 500.197449,491.533813 
    M477.452087,468.900177 
      C476.458221,468.209167 475.464355,467.518127 473.911743,466.438599 
      C471.461334,475.750610 471.458405,484.241333 473.749481,492.675507 
      C480.463989,491.986176 486.663757,491.349701 493.501953,490.647675 
      C489.474091,482.494080 484.189240,475.623596 477.452087,468.900177 
    z"/>
    <path fill="#3A0808" opacity="1.000000" stroke="none" 
      d="
    M388.355194,601.507507 
      C389.469757,607.473083 390.636505,612.981506 391.532837,618.533508 
      C391.740082,619.817078 391.386536,621.561951 390.588806,622.492432 
      C390.138763,623.017273 387.958344,622.734436 387.065247,622.100281 
      C376.776367,614.793701 366.706818,607.218201 359.749359,596.369324 
      C358.855835,594.976196 357.876587,593.585632 357.291351,592.058105 
      C356.069977,588.870178 356.657959,586.244690 360.048981,584.618591 
      C368.729614,580.455811 377.893677,581.677124 386.937042,582.422852 
      C387.920471,582.503967 389.374390,585.561035 389.373291,587.236938 
      C389.370270,591.846924 388.709503,596.456421 388.355194,601.507507 
    M382.141205,605.733337 
      C382.141205,600.114075 382.141205,594.494751 382.141205,587.858398 
      C375.846863,588.184692 369.952789,588.490295 364.058746,588.795837 
      C363.731689,589.587708 363.404633,590.379517 363.077576,591.171326 
      C369.250092,597.804810 375.422607,604.438354 381.595093,611.071838 
      C382.005829,610.785889 382.416565,610.499939 382.827301,610.213928 
      C382.632568,608.993652 382.437836,607.773438 382.141205,605.733337 
    z"/>
    <path fill="#370B0A" opacity="1.000000" stroke="none" 
      d="
    M490.000305,591.322388 
      C491.142609,595.370850 493.082184,599.305176 492.630005,602.942078 
      C492.068665,607.457275 493.609131,609.570618 497.287872,610.842163 
      C501.386688,612.258911 505.091248,611.210266 507.285248,607.494690 
      C508.463776,605.498718 508.355469,602.772522 509.012085,600.427490 
      C509.397003,599.052673 510.143921,597.779236 510.728027,596.460205 
      C511.880341,597.616577 513.702271,598.590576 514.074890,599.959229 
      C516.289490,608.093445 509.060486,616.712463 500.204956,616.754700 
      C498.921722,616.760864 497.637421,616.544067 496.354309,616.430481 
      C495.471649,626.756836 493.050323,630.434631 485.754150,632.367615 
      C484.332397,632.744263 482.650604,633.180359 481.364227,632.755371 
      C479.858856,632.257996 478.654999,630.847961 477.320374,629.833801 
      C478.811127,628.942932 480.281189,627.327881 481.796234,627.284485 
      C488.985443,627.078918 493.203613,621.532410 490.704102,614.834473 
      C489.715729,612.185913 488.359009,609.534058 484.517242,610.772217 
      C483.453430,611.114990 482.058685,611.231445 481.063782,610.832764 
      C478.421631,609.774109 475.480957,608.800659 473.602325,606.873657 
      C472.989502,606.245117 474.939545,602.520081 476.331818,600.674744 
      C478.423340,597.902588 480.823517,595.240784 483.546936,593.114075 
      C485.158051,591.855957 487.643890,591.717957 490.000305,591.322388 
    M483.038635,601.559204 
      C482.095856,602.601318 481.153076,603.643433 480.210297,604.685547 
      C480.374786,605.077332 480.539276,605.469177 480.703766,605.860962 
      C482.548431,605.302368 485.135223,605.290222 486.050568,604.047302 
      C487.202332,602.483215 486.987274,599.912659 487.362000,597.776367 
      C486.983643,597.710144 486.605255,597.643860 486.226898,597.577637 
      C485.313965,598.731628 484.401062,599.885620 483.038635,601.559204 
    z"/>
    <path fill="#400F0C" opacity="1.000000" stroke="none" 
      d="
    M514.311646,551.293579 
      C513.134644,551.969666 512.267212,552.560364 511.330536,552.705994 
      C501.246185,554.274658 495.980804,559.271301 493.829987,569.383423 
      C493.588959,570.516602 493.509064,571.882690 492.818420,572.671326 
      C491.955353,573.656921 490.547760,574.650818 489.354218,574.676880 
      C488.656616,574.692078 487.466614,572.906738 487.268036,571.794067 
      C485.387085,561.254578 500.505920,544.886353 510.931274,546.151367 
      C513.590942,546.474182 515.970886,547.429321 514.311646,551.293579 
    z"/>
    <path fill="#3C0908" opacity="1.000000" stroke="none" 
      d="
    M458.821228,606.155579 
      C461.261902,609.567566 459.633942,611.203064 456.576141,611.376648 
      C445.935577,611.980835 439.731812,617.274414 437.927094,627.864014 
      C437.771393,628.777771 435.917847,629.402161 434.852966,630.160950 
      C433.925720,628.850403 431.939178,627.161621 432.249329,626.292908 
      C433.835449,621.850525 435.314331,617.077087 438.139435,613.434265 
      C443.140900,606.985046 450.199036,604.360107 458.821228,606.155579 
    z"/>
    <path fill="#EF9F94" opacity="1.000000" stroke="none" 
      d="
    M519.962891,573.137573 
      C513.521423,570.911438 512.572876,569.261658 515.622375,563.018066 
      C517.158630,559.872742 519.557861,556.856140 522.270752,554.644897 
      C526.678833,551.051819 532.066406,552.754456 535.659424,558.514526 
      C534.766785,558.600647 533.803894,558.133240 533.584717,558.365967 
      C528.993530,563.242249 524.486511,568.197693 519.962891,573.137573 
    z"/>
    <path fill="#F6A496" opacity="1.000000" stroke="none" 
      d="
    M520.224609,573.371216 
      C524.486511,568.197693 528.993530,563.242249 533.584717,558.365967 
      C533.803894,558.133240 534.766785,558.600647 535.685913,558.868652 
      C537.471191,563.671753 536.043823,567.421692 530.514282,570.526001 
      C527.534607,572.198853 523.851868,572.619324 520.224609,573.371216 
    z"/>
    <path fill="#EF9F94" opacity="1.000000" stroke="none" 
      d="
    M477.718445,469.147736 
      C484.189240,475.623596 489.474091,482.494080 493.501953,490.647675 
      C486.663757,491.349701 480.463989,491.986176 473.749481,492.675507 
      C471.458405,484.241333 471.461334,475.750610 473.911743,466.438599 
      C475.464355,467.518127 476.458221,468.209167 477.718445,469.147736 
    z"/>
    <path fill="#ED9991" opacity="1.000000" stroke="none" 
      d="
    M382.192139,606.143250 
      C382.437836,607.773438 382.632568,608.993652 382.827301,610.213928 
      C382.416565,610.499939 382.005829,610.785889 381.595093,611.071838 
      C375.422607,604.438354 369.250092,597.804810 363.077576,591.171326 
      C363.404633,590.379517 363.731689,589.587708 364.058746,588.795837 
      C369.952789,588.490295 375.846863,588.184692 382.141205,587.858398 
      C382.141205,594.494751 382.141205,600.114075 382.192139,606.143250 
    z"/>
    <path fill="#ED9991" opacity="1.000000" stroke="none" 
      d="
    M483.263397,601.299438 
      C484.401062,599.885620 485.313965,598.731628 486.226898,597.577637 
      C486.605255,597.643860 486.983643,597.710144 487.362000,597.776367 
      C486.987274,599.912659 487.202332,602.483215 486.050568,604.047302 
      C485.135223,605.290222 482.548431,605.302368 480.703766,605.860962 
      C480.539276,605.469177 480.374786,605.077332 480.210297,604.685547 
      C481.153076,603.643433 482.095856,602.601318 483.263397,601.299438 
    z"/>
  </g>
  <g class="img2" transform="translate(-50, 200) scale(0.29296875)">
    <path fill="none" opacity="1.000000" stroke="none" 
      d="
    M573.000000,1025.000000 
      C382.000000,1025.000000 191.500000,1025.000000 1.000000,1025.000000 
      C1.000000,683.666687 1.000000,342.333344 1.000000,1.000000 
      C342.333344,1.000000 683.666687,1.000000 1025.000000,1.000000 
      C1025.000000,342.333344 1025.000000,683.666687 1025.000000,1025.000000 
      C874.500000,1025.000000 724.000000,1025.000000 573.000000,1025.000000 
    M642.792297,505.527740 
      C642.538696,505.299622 642.285156,505.071472 641.798584,504.479492 
      C641.611328,504.254089 641.385681,504.077850 640.909729,503.302307 
      C637.942993,501.188354 634.976318,499.074371 631.998291,497.002441 
      C631.998291,497.002441 632.033936,496.977386 631.675720,496.412048 
      C629.455994,494.930786 627.236206,493.449493 625.000000,492.002075 
      C625.000000,492.002075 625.031311,491.980865 624.798279,491.367920 
      C623.868774,490.897217 622.939270,490.426514 621.665344,489.436218 
      C620.779358,488.952972 619.893311,488.469757 618.642944,487.411499 
      C610.424194,483.264435 602.205444,479.117340 593.583496,474.925171 
      C593.583496,474.925171 593.177795,474.928650 592.737732,474.383575 
      C591.921265,473.824219 591.180054,473.030975 590.277100,472.740326 
      C575.297668,467.918732 560.302856,463.144867 545.285522,458.442902 
      C544.673523,458.251282 543.807861,458.869751 542.261841,459.044678 
      C540.179382,458.684906 538.096924,458.325104 535.520020,457.688599 
      C531.359314,457.498871 532.095459,454.258057 532.049011,451.783508 
      C531.809265,439.020813 528.198364,427.054688 522.493958,415.886383 
      C518.446045,407.961151 513.809692,403.669830 504.845306,411.340485 
      C494.639496,420.073517 485.063141,429.562897 475.498077,439.011902 
      C472.462341,442.010864 469.455200,444.047394 465.124786,444.018585 
      C459.629486,443.982056 454.093018,443.696198 448.644348,444.231201 
      C427.518646,446.305573 407.846100,453.342041 388.659058,462.087433 
      C386.036957,463.282593 382.487640,463.654602 379.680481,463.021149 
      C368.054413,460.397522 356.591461,457.057037 344.981781,454.352478 
      C338.435150,452.827393 335.766846,454.629669 334.969757,461.198517 
      C332.656433,480.262329 333.845917,499.268646 340.223816,517.336853 
      C346.690277,535.656006 354.659058,553.456543 362.330292,571.329468 
      C363.943634,575.088318 363.382507,576.750488 359.825897,578.107544 
      C357.031921,579.173523 354.129974,580.205078 351.693512,581.864868 
      C350.269653,582.834839 349.665710,585.008423 348.692932,586.640503 
      C350.646484,586.604919 352.772125,587.050171 354.515076,586.426270 
      C357.460724,585.371765 360.044983,583.227234 363.020081,582.369568 
      C364.498566,581.943298 366.880402,582.961731 368.106354,584.118530 
      C368.652679,584.633972 367.678558,587.315979 366.812805,588.632019 
      C365.737305,590.266968 363.859161,591.359253 362.693268,592.953247 
      C361.284729,594.879028 360.259277,597.085022 359.067993,599.169739 
      C361.504120,598.344055 364.314209,598.037720 366.310211,596.600769 
      C374.062408,591.019714 373.835602,591.014526 380.541138,597.821655 
      C383.096924,600.416199 382.843628,602.253845 380.428162,604.398987 
      C377.320374,607.158936 373.846497,609.602112 371.169617,612.729004 
      C367.335876,617.207275 362.476166,621.712891 360.922668,627.042847 
      C357.978699,637.143494 362.598755,647.297180 372.261261,647.461487 
      C386.330292,647.700745 400.423981,646.745544 414.500061,646.136658 
      C417.903198,645.989441 420.678101,646.191101 422.405640,649.749939 
      C424.176910,653.398804 427.337219,655.713745 431.429382,655.677551 
      C439.718384,655.604370 448.010742,656.763550 456.293182,654.555420 
      C472.285156,650.291870 488.454865,647.569885 505.709717,651.929565 
      C506.459015,651.976013 507.208313,652.022400 508.567291,652.484985 
      C510.044403,652.653625 511.521484,652.822205 513.636597,653.281372 
      C514.770325,653.498718 515.903992,653.716003 517.742126,654.100098 
      C519.154663,654.361877 520.567139,654.623718 522.656189,654.924377 
      C523.107849,654.932617 523.559509,654.940918 524.762878,655.280823 
      C529.499878,655.810669 534.236816,656.340454 539.892212,656.946045 
      C543.559814,656.975220 547.227356,657.004456 551.323303,657.423157 
      C551.864929,657.582092 552.406555,657.741028 553.638916,657.909302 
      C554.098938,657.890564 554.559021,657.871826 555.843689,657.927673 
      C557.223145,657.908325 558.602539,657.888916 560.917603,657.933655 
      C566.284607,657.909912 571.651611,657.886169 577.767822,657.919678 
      C579.172607,657.605408 580.577332,657.291138 582.905640,657.008850 
      C586.607971,656.982483 590.310303,656.956116 594.851868,656.922729 
      C597.307312,656.598022 599.760925,656.258484 602.218506,655.951111 
      C615.477600,654.292725 628.737671,652.642334 642.754761,651.008240 
      C643.511047,650.971069 644.267334,650.933899 645.870972,650.964294 
      C654.757324,650.641418 662.565796,648.493408 666.024231,638.992249 
      C666.024231,638.992249 666.043091,639.047302 666.620300,638.689636 
      C667.432190,637.136353 668.244080,635.583130 669.002441,634.002075 
      C669.002441,634.002075 669.036377,634.051819 669.677063,633.842468 
      C671.482727,630.904175 673.288452,627.965881 675.504822,624.636353 
      C675.696472,624.109070 675.888123,623.581726 676.646790,622.679138 
      C678.122314,619.955627 680.669067,617.308533 680.869934,614.494080 
      C681.443115,606.461426 681.230591,598.356323 681.024414,590.287476 
      C680.447205,567.705505 672.693298,547.142273 662.545105,527.398132 
      C658.389038,519.312073 653.219238,511.752197 645.000000,507.000000 
      C645.000000,507.000000 645.009644,506.995880 644.618408,506.567261 
      C644.086548,506.358704 643.554749,506.150116 642.990906,505.985291 
      C642.990906,505.985291 643.043884,505.974121 642.792297,505.527740 
    M970.121338,952.382812 
      C969.816650,951.455933 969.511963,950.529114 968.833069,948.463684 
      C965.939087,959.710754 959.433899,965.957031 948.202515,969.081665 
      C959.592163,972.051331 965.933044,978.440674 969.009155,989.943604 
      C971.890320,978.296387 978.647705,972.143127 989.084961,969.073181 
      C978.277283,965.077148 973.877197,961.159912 970.121338,952.382812 
    z"/>
    <path fill="#390A06" opacity="1.000000" stroke="none" 
      d="
    M536.014465,457.965332 
      C538.096924,458.325104 540.179382,458.684906 542.876831,459.367035 
      C544.041138,460.047180 544.544312,460.569519 545.146545,460.738312 
      C556.288574,463.860352 567.465210,466.861267 578.583374,470.065125 
      C583.506531,471.483826 588.316467,473.295410 593.177795,474.928650 
      C593.177795,474.928650 593.583496,474.925171 593.886292,475.285095 
      C595.189209,476.456299 596.070190,477.663300 597.211243,478.006989 
      C601.118408,479.183777 602.237976,481.934692 601.701843,485.450256 
      C599.206299,484.182068 597.103760,483.065369 594.931152,481.626129 
      C593.566345,480.890839 592.271545,480.478088 590.608276,480.039673 
      C571.552063,472.090759 552.486877,465.558533 532.353638,463.697845 
      C529.645264,475.108337 528.076965,485.876862 533.693787,496.456085 
      C535.204041,499.300781 535.557617,502.828339 536.110901,506.098511 
      C537.339539,513.359863 538.358459,520.656677 539.583679,528.736023 
      C542.004822,527.063782 544.063049,525.769897 545.981873,524.294678 
      C553.916504,518.194031 562.675293,513.417908 572.703552,513.049561 
      C581.217773,512.736755 589.813049,514.165771 598.335693,515.144104 
      C599.372437,515.263123 600.180847,517.371338 601.095093,518.557617 
      C599.862000,519.232544 598.684570,520.072998 597.372925,520.514587 
      C596.688660,520.744934 595.773132,520.178223 594.953247,520.133118 
      C588.007507,519.750427 581.023315,518.791626 574.121582,519.201172 
      C565.132507,519.734558 556.877319,522.829163 551.139038,528.572266 
      C552.984619,530.434082 554.493652,531.956421 556.002625,533.478699 
      C554.101196,534.094543 552.209473,534.743652 550.291199,535.301575 
      C549.841797,535.432312 549.301270,535.267029 548.804871,535.216431 
      C542.200623,534.543884 540.485596,535.714905 538.169434,542.806396 
      C543.079773,543.587708 547.972351,544.194946 552.768005,545.245056 
      C554.028687,545.521057 554.989075,547.168030 556.087402,548.185425 
      C554.772644,548.805786 553.392029,550.061462 552.154785,549.933289 
      C547.542480,549.455383 542.996826,548.272339 538.382507,547.912476 
      C536.975830,547.802856 534.456116,549.205750 534.106934,550.401184 
      C532.071289,557.368408 529.689331,564.398071 528.990784,571.559448 
      C527.379883,588.073853 534.364197,602.163513 542.253052,616.194031 
      C548.307678,626.962341 555.741516,632.222412 568.622192,632.506409 
      C595.007751,633.088196 620.256836,629.124268 643.040649,615.794556 
      C650.283936,611.556885 656.471375,608.833496 664.502136,610.679688 
      C664.664368,610.717041 664.824585,610.763184 665.087402,610.935486 
      C665.188965,611.065796 665.640320,611.146667 665.640320,611.146667 
      C665.640320,611.146667 666.011902,610.845459 666.369690,610.752197 
      C667.459656,610.708069 668.191895,610.757141 669.178284,611.048706 
      C671.418701,611.479187 674.028809,614.767151 675.119629,609.685913 
      C674.989258,600.848694 674.789368,592.486145 674.991089,584.126465 
      C679.711426,585.714233 678.017090,589.469666 678.310547,592.444153 
      C678.565674,595.029419 677.859375,597.876770 678.700500,600.202332 
      C680.479675,605.121704 680.638733,609.587097 678.275024,614.391479 
      C676.988525,617.006226 676.776428,620.149536 676.079773,623.054443 
      C675.888123,623.581726 675.696472,624.109070 674.962463,624.910461 
      C672.625488,628.140320 670.830933,631.096069 669.036377,634.051819 
      C669.036377,634.051819 669.002441,634.002075 668.690063,634.103577 
      C667.599487,635.819153 666.821289,637.433228 666.043091,639.047302 
      C666.043091,639.047302 666.024231,638.992249 665.699524,639.071899 
      C661.431152,643.513855 656.770447,646.697754 651.034607,648.313171 
      C648.953430,648.899170 647.022888,650.019958 645.023621,650.896729 
      C644.267334,650.933899 643.511047,650.971069 642.298340,650.654663 
      C640.379639,649.767456 638.902283,648.757263 637.458374,648.803101 
      C634.741150,648.889221 632.051941,649.652222 629.334229,650.003113 
      C627.530396,650.236084 625.684631,650.141113 623.879639,650.368042 
      C617.354919,651.187988 610.835571,652.754150 604.322144,652.714905 
      C599.884705,652.688171 596.961182,654.340576 594.012634,656.929810 
      C590.310303,656.956116 586.607971,656.982483 582.173340,656.783020 
      C579.966858,656.992249 578.492737,657.427368 577.018616,657.862427 
      C571.651611,657.886169 566.284607,657.909912 560.328613,657.593628 
      C558.166138,657.453369 556.592590,657.653198 555.019043,657.853027 
      C554.559021,657.871826 554.098938,657.890564 553.081665,657.716675 
      C551.981201,657.360596 551.438110,657.197144 550.894958,657.033630 
      C547.227356,657.004456 543.559814,656.975220 539.317017,656.603149 
      C534.102112,652.784607 529.137024,652.963318 524.011169,654.949219 
      C523.559509,654.940918 523.107849,654.932617 522.202759,654.596924 
      C520.178833,654.157410 518.608276,654.045349 517.037720,653.933350 
      C515.903992,653.716003 514.770325,653.498718 513.184692,652.845032 
      C512.237244,651.463440 511.741608,650.518127 511.085266,649.266296 
      C509.832367,650.388977 508.894989,651.228882 507.957581,652.068787 
      C507.208313,652.022400 506.459015,651.976013 505.211792,651.557739 
      C500.859161,650.110657 496.931213,649.237061 493.180573,647.875183 
      C491.290009,647.188721 489.720947,645.616821 488.359497,644.282715 
      C488.369324,643.220459 488.236938,642.140747 487.648071,641.450562 
      C484.288208,637.512573 483.247253,633.075439 485.661804,628.504395 
      C488.102570,623.883728 492.581482,622.232971 497.564301,622.989563 
      C510.709534,624.985718 523.809387,627.278992 536.936157,629.399536 
      C538.906372,629.717712 540.923828,629.743469 543.219971,629.928772 
      C542.940491,628.613586 542.957642,628.072510 542.722778,627.683777 
      C539.969116,623.126892 537.002380,618.688232 534.460754,614.017639 
      C532.896729,611.143616 530.806580,610.222534 527.675903,610.052734 
      C495.779022,608.322144 465.578979,615.561035 436.137177,627.032410 
      C428.887756,629.857056 425.188171,634.815796 425.444885,642.870239 
      C421.455811,644.694214 420.099762,642.926636 419.687195,639.189087 
      C419.975189,630.106262 425.691589,625.538330 432.706085,622.091736 
      C447.153717,614.992798 462.520599,610.532471 478.322083,608.151245 
      C494.837921,605.662231 511.537689,604.393555 527.137329,602.702026 
      C525.413818,592.854370 523.490173,581.863281 521.589355,571.002747 
      C521.947754,570.796631 521.451172,570.925598 521.204346,571.246521 
      C506.913727,589.826965 487.001678,599.357422 465.226318,605.656555 
      C440.769257,612.731445 416.266785,615.449158 392.041626,604.308228 
      C392.763000,602.515869 393.447754,601.068054 394.494629,599.713928 
      C404.011719,604.273071 413.728699,606.115601 423.859924,606.003723 
      C446.733032,605.751160 468.173920,599.463440 488.675079,589.905518 
      C507.840118,580.970459 519.848755,565.079041 529.145020,546.471069 
      C525.892151,545.399231 522.963257,544.434082 520.034363,543.468994 
      C523.240356,542.365723 526.653076,543.307434 528.895508,542.091187 
      C530.984436,540.958191 531.827942,537.528870 533.549805,534.536926 
      C527.074829,533.893188 522.049927,533.393616 517.025024,532.894043 
      C517.043762,532.354797 517.062500,531.815491 517.081299,531.276245 
      C522.225159,530.579163 527.369019,529.882141 532.800049,529.146179 
      C532.651611,526.187439 532.843811,523.652771 532.348877,521.260193 
      C530.231934,511.026276 527.811584,500.854950 525.708191,490.618408 
      C524.619568,485.320465 523.278503,479.934204 523.276855,474.587433 
      C523.274597,467.393097 524.455566,460.198364 525.460083,453.075012 
      C527.836548,455.500549 529.881592,457.854919 532.204956,460.529724 
      C532.673950,460.213989 534.344238,459.089661 536.014465,457.965332 
    z"/>
    <path fill="#3A0E0C" opacity="1.000000" stroke="none" 
      d="
    M535.767212,457.826965 
      C534.344238,459.089661 532.673950,460.213989 532.204956,460.529724 
      C529.881592,457.854919 527.836548,455.500549 525.376465,452.647827 
      C523.791870,439.066040 521.196594,426.421051 514.001831,414.390472 
      C510.208649,417.004913 506.777954,418.817963 504.029755,421.366913 
      C495.741760,429.053955 487.447845,436.771820 479.708099,444.996979 
      C475.864716,449.081421 471.810028,450.953522 466.355255,451.032562 
      C458.137848,451.151672 449.794281,450.886597 441.739716,452.213501 
      C424.277161,455.090302 407.460449,460.489899 391.679565,468.593201 
      C386.555389,471.224335 381.980621,471.046265 376.760529,469.390106 
      C366.482880,466.129395 356.063538,463.314789 345.699493,460.327148 
      C342.703735,459.463562 340.845520,460.097382 340.928009,463.730865 
      C341.157959,473.862396 340.571045,484.071045 341.611694,494.114014 
      C344.204742,519.137390 355.184845,541.493530 365.207184,564.095459 
      C366.728088,567.525391 368.704315,570.753418 370.192505,573.552917 
      C375.746033,572.723816 380.518433,572.011353 385.290833,571.298889 
      C385.374237,571.851624 385.457642,572.404297 385.541016,572.957031 
      C381.140900,574.303833 376.740753,575.650635 371.952881,577.116089 
      C373.349640,579.334595 374.473175,581.119141 375.660248,583.004639 
      C379.899597,581.645203 383.836334,580.382874 387.773071,579.120483 
      C387.938507,579.466858 388.103943,579.813171 388.269379,580.159485 
      C385.366455,582.448303 382.463562,584.737122 378.816315,587.612854 
      C384.319977,591.927490 389.226227,595.773865 394.132507,599.620178 
      C393.447754,601.068054 392.763000,602.515869 391.672241,604.317017 
      C384.082001,610.783508 376.667725,616.652222 369.803528,623.105896 
      C365.961548,626.718018 365.909149,634.134521 369.175690,638.324219 
      C370.209534,639.650146 372.472626,640.017700 374.173157,640.823914 
      C374.710815,639.379944 375.418365,637.971924 375.734253,636.480957 
      C376.003754,635.208923 375.377411,633.589661 375.949554,632.577332 
      C376.742828,631.173706 378.286926,630.194458 379.509521,629.033447 
      C380.337860,630.452026 381.365601,631.798584 381.914703,633.318054 
      C382.212280,634.141418 381.600037,635.255920 381.560760,636.245483 
      C381.423645,639.699768 382.511322,642.132263 386.557343,642.021179 
      C388.491150,641.968079 390.427643,642.012146 392.794037,642.012146 
      C392.794037,639.613770 392.349609,637.675110 392.904297,636.085022 
      C393.630493,634.003235 395.145874,632.196716 396.321777,630.271790 
      C396.963989,632.172180 397.587860,634.079102 398.253937,635.971069 
      C398.845795,637.652222 399.619843,640.806396 400.082123,640.764465 
      C406.638184,640.168579 413.439056,643.086182 419.778717,639.571777 
      C420.099762,642.926636 421.455811,644.694214 425.561401,643.181152 
      C427.283783,646.312866 428.428406,649.378601 432.489502,648.646545 
      C432.963196,645.232422 433.162476,642.086365 433.947632,639.094116 
      C434.210999,638.090393 435.967041,637.478333 437.040833,636.687256 
      C437.593384,637.795044 438.492279,638.863098 438.625000,640.019104 
      C438.886719,642.298401 438.576080,644.639038 438.773376,646.931030 
      C439.022278,649.821716 441.296082,650.491211 443.440521,649.769592 
      C444.685699,649.350647 445.712280,647.568481 446.319214,646.174316 
      C446.885162,644.874329 446.371582,643.048828 447.051514,641.868469 
      C447.834778,640.508728 449.405823,639.602844 450.634735,638.499817 
      C451.196930,639.898010 452.199066,641.281921 452.245300,642.696960 
      C452.447571,648.890869 452.719971,648.898315 458.963623,647.968384 
      C468.605621,646.532410 478.321777,645.594482 488.006500,644.445251 
      C489.720947,645.616821 491.290009,647.188721 493.180573,647.875183 
      C496.931213,649.237061 500.859161,650.110657 504.840027,651.505432 
      C488.454865,647.569885 472.285156,650.291870 456.293182,654.555420 
      C448.010742,656.763550 439.718384,655.604370 431.429382,655.677551 
      C427.337219,655.713745 424.176910,653.398804 422.405640,649.749939 
      C420.678101,646.191101 417.903198,645.989441 414.500061,646.136658 
      C400.423981,646.745544 386.330292,647.700745 372.261261,647.461487 
      C362.598755,647.297180 357.978699,637.143494 360.922668,627.042847 
      C362.476166,621.712891 367.335876,617.207275 371.169617,612.729004 
      C373.846497,609.602112 377.320374,607.158936 380.428162,604.398987 
      C382.843628,602.253845 383.096924,600.416199 380.541138,597.821655 
      C373.835602,591.014526 374.062408,591.019714 366.310211,596.600769 
      C364.314209,598.037720 361.504120,598.344055 359.067993,599.169739 
      C360.259277,597.085022 361.284729,594.879028 362.693268,592.953247 
      C363.859161,591.359253 365.737305,590.266968 366.812805,588.632019 
      C367.678558,587.315979 368.652679,584.633972 368.106354,584.118530 
      C366.880402,582.961731 364.498566,581.943298 363.020081,582.369568 
      C360.044983,583.227234 357.460724,585.371765 354.515076,586.426270 
      C352.772125,587.050171 350.646484,586.604919 348.692932,586.640503 
      C349.665710,585.008423 350.269653,582.834839 351.693512,581.864868 
      C354.129974,580.205078 357.031921,579.173523 359.825897,578.107544 
      C363.382507,576.750488 363.943634,575.088318 362.330292,571.329468 
      C354.659058,553.456543 346.690277,535.656006 340.223816,517.336853 
      C333.845917,499.268646 332.656433,480.262329 334.969757,461.198517 
      C335.766846,454.629669 338.435150,452.827393 344.981781,454.352478 
      C356.591461,457.057037 368.054413,460.397522 379.680481,463.021149 
      C382.487640,463.654602 386.036957,463.282593 388.659058,462.087433 
      C407.846100,453.342041 427.518646,446.305573 448.644348,444.231201 
      C454.093018,443.696198 459.629486,443.982056 465.124786,444.018585 
      C469.455200,444.047394 472.462341,442.010864 475.498077,439.011902 
      C485.063141,429.562897 494.639496,420.073517 504.845306,411.340485 
      C513.809692,403.669830 518.446045,407.961151 522.493958,415.886383 
      C528.198364,427.054688 531.809265,439.020813 532.049011,451.783508 
      C532.095459,454.258057 531.359314,457.498871 535.767212,457.826965 
    z"/>
    <path fill="#390A06" opacity="1.000000" stroke="none" 
      d="
    M619.007324,487.986542 
      C619.893311,488.469757 620.779358,488.952972 621.931885,490.020111 
      C623.142700,491.062958 624.086975,491.521912 625.031311,491.980865 
      C625.031311,491.980865 625.000000,492.002075 625.072632,492.328247 
      C627.441467,494.095428 629.737732,495.536407 632.033936,496.977386 
      C632.033936,496.977386 631.998291,497.002441 632.148804,497.299438 
      C634.477783,500.772888 634.915344,506.366455 641.121582,503.950714 
      C641.385681,504.077850 641.611328,504.254089 642.040894,504.887146 
      C642.536743,505.521271 642.790283,505.747711 643.043884,505.974121 
      C643.043884,505.974121 642.990906,505.985291 643.201843,506.178711 
      C643.945068,506.580017 644.477356,506.787933 645.009644,506.995880 
      C645.009644,506.995880 645.000000,507.000000 645.066895,507.337036 
      C648.828857,512.288757 653.250977,516.503174 656.060486,521.605530 
      C661.166138,530.877747 667.387390,539.651733 669.419495,550.486328 
      C670.906738,558.415710 673.547791,566.123779 675.371338,574.000732 
      C675.632324,575.128113 674.183777,576.651245 673.364624,577.603699 
      C671.107666,569.487244 669.012390,561.758301 667.088135,553.848877 
      C666.885620,553.111328 666.512085,552.554199 665.948792,551.685730 
      C664.532349,548.287598 663.223267,545.230652 662.093323,542.108887 
      C657.751648,530.113464 651.254272,519.553955 640.757385,512.055725 
      C628.213928,503.095673 615.371399,494.554260 602.832458,485.407104 
      C605.279663,481.896942 607.673218,483.154266 610.348938,484.516083 
      C613.108826,485.920868 616.111084,486.849579 619.007324,487.986542 
    z"/>
    <path fill="#7F7F7F" opacity="1.000000" stroke="none" 
      d="
    M970.311523,952.690796 
      C973.877197,961.159912 978.277283,965.077148 989.084961,969.073181 
      C978.647705,972.143127 971.890320,978.296387 969.009155,989.943604 
      C965.933044,978.440674 959.592163,972.051331 948.202515,969.081665 
      C959.433899,965.957031 965.939087,959.710754 968.833069,948.463684 
      C969.511963,950.529114 969.816650,951.455933 970.311523,952.690796 
    z"/>
    <path fill="#3A0E0C" opacity="1.000000" stroke="none" 
      d="
    M673.526367,577.991211 
      C674.183777,576.651245 675.632324,575.128113 675.371338,574.000732 
      C673.547791,566.123779 670.906738,558.415710 669.419495,550.486328 
      C667.387390,539.651733 661.166138,530.877747 656.060486,521.605530 
      C653.250977,516.503174 648.828857,512.288757 645.069092,507.331329 
      C653.219238,511.752197 658.389038,519.312073 662.545105,527.398132 
      C672.693298,547.142273 680.447205,567.705505 681.024414,590.287476 
      C681.230591,598.356323 681.443115,606.461426 680.869934,614.494080 
      C680.669067,617.308533 678.122314,619.955627 676.363281,622.866821 
      C676.776428,620.149536 676.988525,617.006226 678.275024,614.391479 
      C680.638733,609.587097 680.479675,605.121704 678.700500,600.202332 
      C677.859375,597.876770 678.565674,595.029419 678.310547,592.444153 
      C678.017090,589.469666 679.711426,585.714233 674.832397,583.818481 
      C674.023438,581.668884 673.774841,579.830078 673.526367,577.991211 
    z"/>
    <path fill="#3A0E0C" opacity="1.000000" stroke="none" 
      d="
    M594.432251,656.926270 
      C596.961182,654.340576 599.884705,652.688171 604.322144,652.714905 
      C610.835571,652.754150 617.354919,651.187988 623.879639,650.368042 
      C625.684631,650.141113 627.530396,650.236084 629.334229,650.003113 
      C632.051941,649.652222 634.741150,648.889221 637.458374,648.803101 
      C638.902283,648.757263 640.379639,649.767456 641.919678,650.645142 
      C628.737671,652.642334 615.477600,654.292725 602.218506,655.951111 
      C599.760925,656.258484 597.307312,656.598022 594.432251,656.926270 
    z"/>
    <path fill="#3A0E0C" opacity="1.000000" stroke="none" 
      d="
    M592.957764,474.656128 
      C588.316467,473.295410 583.506531,471.483826 578.583374,470.065125 
      C567.465210,466.861267 556.288574,463.860352 545.146545,460.738312 
      C544.544312,460.569519 544.041138,460.047180 543.276123,459.400085 
      C543.807861,458.869751 544.673523,458.251282 545.285522,458.442902 
      C560.302856,463.144867 575.297668,467.918732 590.277100,472.740326 
      C591.180054,473.030975 591.921265,473.824219 592.957764,474.656128 
    z"/>
    <path fill="#3A0E0C" opacity="1.000000" stroke="none" 
      d="
    M618.825134,487.699036 
      C616.111084,486.849579 613.108826,485.920868 610.348938,484.516083 
      C607.673218,483.154266 605.279663,481.896942 602.663696,485.418121 
      C602.320801,485.853546 602.094849,485.601807 602.094849,485.601807 
      C602.237976,481.934692 601.118408,479.183777 597.211243,478.006989 
      C596.070190,477.663300 595.189209,476.456299 594.087891,475.307617 
      C602.205444,479.117340 610.424194,483.264435 618.825134,487.699036 
    z"/>
    <path fill="#3A0E0C" opacity="1.000000" stroke="none" 
      d="
    M645.447266,650.930542 
      C647.022888,650.019958 648.953430,648.899170 651.034607,648.313171 
      C656.770447,646.697754 661.431152,643.513855 665.717651,639.096252 
      C662.565796,648.493408 654.757324,650.641418 645.447266,650.930542 
    z"/>
    <path fill="#3A0E0C" opacity="1.000000" stroke="none" 
      d="
    M641.015625,503.626526 
      C634.915344,506.366455 634.477783,500.772888 632.154419,497.278442 
      C634.976318,499.074371 637.942993,501.188354 641.015625,503.626526 
    z"/>
    <path fill="#3A0E0C" opacity="1.000000" stroke="none" 
      d="
    M524.387024,655.114990 
      C529.137024,652.963318 534.102112,652.784607 538.857849,656.565247 
      C534.236816,656.340454 529.499878,655.810669 524.387024,655.114990 
    z"/>
    <path fill="#3A0E0C" opacity="1.000000" stroke="none" 
      d="
    M669.356689,633.947144 
      C670.830933,631.096069 672.625488,628.140320 674.757080,625.106079 
      C673.288452,627.965881 671.482727,630.904175 669.356689,633.947144 
    z"/>
    <path fill="#3A0E0C" opacity="1.000000" stroke="none" 
      d="
    M631.854858,496.694702 
      C629.737732,495.536407 627.441467,494.095428 625.080872,492.311340 
      C627.236206,493.449493 629.455994,494.930786 631.854858,496.694702 
    z"/>
    <path fill="#3A0E0C" opacity="1.000000" stroke="none" 
      d="
    M508.262451,652.276855 
      C508.894989,651.228882 509.832367,650.388977 511.085266,649.266296 
      C511.741608,650.518127 512.237244,651.463440 512.865723,652.699768 
      C511.521484,652.822205 510.044403,652.653625 508.262451,652.276855 
    z"/>
    <path fill="#3A0E0C" opacity="1.000000" stroke="none" 
      d="
    M666.331665,638.868469 
      C666.821289,637.433228 667.599487,635.819153 668.716797,634.117493 
      C668.244080,635.583130 667.432190,637.136353 666.331665,638.868469 
    z"/>
    <path fill="#3A0E0C" opacity="1.000000" stroke="none" 
      d="
    M555.431396,657.890381 
      C556.592590,657.653198 558.166138,657.453369 559.860840,657.561523 
      C558.602539,657.888916 557.223145,657.908325 555.431396,657.890381 
    z"/>
    <path fill="#3A0E0C" opacity="1.000000" stroke="none" 
      d="
    M577.393188,657.891052 
      C578.492737,657.427368 579.966858,656.992249 581.711548,656.767029 
      C580.577332,657.291138 579.172607,657.605408 577.393188,657.891052 
    z"/>
    <path fill="#3A0E0C" opacity="1.000000" stroke="none" 
      d="
    M517.389893,654.016724 
      C518.608276,654.045349 520.178833,654.157410 521.864502,654.577515 
      C520.567139,654.623718 519.154663,654.361877 517.389893,654.016724 
    z"/>
    <path fill="#3A0E0C" opacity="1.000000" stroke="none" 
      d="
    M624.914795,491.674377 
      C624.086975,491.521912 623.142700,491.062958 622.104065,490.279907 
      C622.939270,490.426514 623.868774,490.897217 624.914795,491.674377 
    z"/>
    <path fill="#3A0E0C" opacity="1.000000" stroke="none" 
      d="
    M551.109131,657.228394 
      C551.438110,657.197144 551.981201,657.360596 552.736267,657.712036 
      C552.406555,657.741028 551.864929,657.582092 551.109131,657.228394 
    z"/>
    <path fill="#3A0E0C" opacity="1.000000" stroke="none" 
      d="
    M644.814026,506.781555 
      C644.477356,506.787933 643.945068,506.580017 643.217834,506.156799 
      C643.554749,506.150116 644.086548,506.358704 644.814026,506.781555 
    z"/>
    <path fill="#3A0E0C" opacity="1.000000" stroke="none" 
      d="
    M642.918091,505.750916 
      C642.790283,505.747711 642.536743,505.521271 642.157349,505.069092 
      C642.285156,505.071472 642.538696,505.299622 642.918091,505.750916 
    z"/>
    <path fill="#EFD4BA" opacity="1.000000" stroke="none" 
      d="
    M394.494629,599.713928 
      C389.226227,595.773865 384.319977,591.927490 378.816315,587.612854 
      C382.463562,584.737122 385.366455,582.448303 388.269379,580.159485 
      C388.103943,579.813171 387.938507,579.466858 387.773071,579.120483 
      C383.836334,580.382874 379.899597,581.645203 375.660248,583.004639 
      C374.473175,581.119141 373.349640,579.334595 371.952881,577.116089 
      C376.740753,575.650635 381.140900,574.303833 385.541016,572.957031 
      C385.457642,572.404297 385.374237,571.851624 385.290833,571.298889 
      C380.518433,572.011353 375.746033,572.723816 370.192505,573.552917 
      C368.704315,570.753418 366.728088,567.525391 365.207184,564.095459 
      C355.184845,541.493530 344.204742,519.137390 341.611694,494.114014 
      C340.571045,484.071045 341.157959,473.862396 340.928009,463.730865 
      C340.845520,460.097382 342.703735,459.463562 345.699493,460.327148 
      C356.063538,463.314789 366.482880,466.129395 376.760529,469.390106 
      C381.980621,471.046265 386.555389,471.224335 391.679565,468.593201 
      C407.460449,460.489899 424.277161,455.090302 441.739716,452.213501 
      C449.794281,450.886597 458.137848,451.151672 466.355255,451.032562 
      C471.810028,450.953522 475.864716,449.081421 479.708099,444.996979 
      C487.447845,436.771820 495.741760,429.053955 504.029755,421.366913 
      C506.777954,418.817963 510.208649,417.004913 514.001831,414.390472 
      C521.196594,426.421051 523.791870,439.066040 525.045044,452.576660 
      C524.455566,460.198364 523.274597,467.393097 523.276855,474.587433 
      C523.278503,479.934204 524.619568,485.320465 525.708191,490.618408 
      C527.811584,500.854950 530.231934,511.026276 532.348877,521.260193 
      C532.843811,523.652771 532.651611,526.187439 532.800049,529.146179 
      C527.369019,529.882141 522.225159,530.579163 517.081299,531.276245 
      C517.062500,531.815491 517.043762,532.354797 517.025024,532.894043 
      C522.049927,533.393616 527.074829,533.893188 533.549805,534.536926 
      C531.827942,537.528870 530.984436,540.958191 528.895508,542.091187 
      C526.653076,543.307434 523.240356,542.365723 520.034363,543.468994 
      C522.963257,544.434082 525.892151,545.399231 529.145020,546.471069 
      C519.848755,565.079041 507.840118,580.970459 488.675079,589.905518 
      C468.173920,599.463440 446.733032,605.751160 423.859924,606.003723 
      C413.728699,606.115601 404.011719,604.273071 394.494629,599.713928 
    M391.016754,564.838928 
      C390.512177,568.453918 388.237335,572.282898 392.167175,575.387878 
      C395.147339,577.742554 403.327209,577.598389 406.880615,575.305298 
      C411.287445,572.461548 411.747803,568.582764 410.751801,563.928650 
      C417.773163,560.622986 424.941986,556.738342 427.344055,549.102173 
      C430.364410,539.500427 430.220337,529.436340 422.363617,521.662048 
      C414.811218,514.188843 404.899139,514.680542 395.742950,516.835388 
      C383.715668,519.666016 378.561462,529.274841 377.283783,540.789062 
      C376.076355,551.670166 381.631226,559.105957 391.016754,564.838928 
    M505.148987,530.182800 
      C514.003845,517.189880 506.465240,496.806244 491.038055,492.028290 
      C479.164978,488.351105 465.501099,494.003754 458.984924,505.297913 
      C452.706635,516.179810 456.652618,529.282837 464.948914,537.656921 
      C467.390442,540.121277 471.553741,541.431885 475.140900,542.065186 
      C479.317932,542.802551 483.728607,542.216125 488.358215,542.799133 
      C490.858643,547.732605 495.476410,546.783813 499.732574,546.942322 
      C504.699402,547.127319 508.475189,545.623474 510.253174,540.501099 
      C512.124390,535.109985 508.307068,533.102539 505.148987,530.182800 
    M491.620941,447.176727 
      C491.033508,448.551178 490.406281,449.910187 489.865387,451.302734 
      C487.255859,458.020874 487.585632,458.777039 494.206390,461.914001 
      C499.008545,464.189301 503.787018,466.514496 508.580811,468.807465 
      C514.405701,471.593689 516.918518,470.516907 518.178406,464.327148 
      C520.383484,453.493591 519.304871,442.790833 516.191956,432.285828 
      C514.080688,425.160889 510.349670,423.823944 505.170319,429.178192 
      C500.154968,434.362854 496.309357,440.679016 491.620941,447.176727 
    M345.454132,481.313171 
      C345.648682,483.463898 345.540771,485.695435 346.090179,487.751343 
      C348.472809,496.667114 350.940399,505.564789 353.676758,514.376038 
      C354.051819,515.583740 356.131256,517.003540 357.384888,516.969543 
      C358.445648,516.940857 359.710632,515.094421 360.441986,513.801697 
      C364.674561,506.320953 368.587372,498.653534 372.987854,491.275604 
      C375.902283,486.389221 376.025177,484.790161 370.987366,481.681122 
      C366.111267,478.671875 361.004913,475.983704 355.815765,473.545959 
      C347.872650,469.814392 345.327972,471.603333 345.454132,481.313171 
    M455.473450,548.927551 
      C455.986694,547.888672 456.544952,546.869324 457.005737,545.807678 
      C459.542053,539.964233 457.554749,537.130554 451.123871,537.996155 
      C447.722687,538.453918 444.204498,539.373291 441.201904,540.960022 
      C439.416504,541.903564 437.278717,544.760010 437.552094,546.375122 
      C437.904114,548.454773 440.162140,551.017395 442.215912,551.848999 
      C447.880524,554.142700 449.796082,557.728455 448.013977,563.571045 
      C446.721130,567.809631 445.610931,572.201538 445.241364,576.594238 
      C444.925720,580.345947 446.446594,583.759521 450.424255,585.411499 
      C455.526917,587.530884 459.891968,585.943787 463.768707,582.641663 
      C467.500732,579.462891 468.565063,575.053528 466.319427,570.943359 
      C464.426117,567.478088 461.348755,564.508911 458.334564,561.840759 
      C453.233093,557.324829 452.446075,555.155945 455.473450,548.927551 
    z"/>
    <path fill="#EFD4BA" opacity="1.000000" stroke="none" 
      d="
    M601.701843,485.450256 
      C602.094849,485.601807 602.320801,485.853546 602.489624,485.842529 
      C615.371399,494.554260 628.213928,503.095673 640.757385,512.055725 
      C651.254272,519.553955 657.751648,530.113464 662.093323,542.108887 
      C663.223267,545.230652 664.532349,548.287598 665.927246,551.971802 
      C666.369324,553.056030 666.643188,553.542664 666.917114,554.029358 
      C669.012390,561.758301 671.107666,569.487244 673.364624,577.603699 
      C673.774841,579.830078 674.023438,581.668884 674.430725,583.815674 
      C674.789368,592.486145 674.989258,600.848694 674.731384,609.752075 
      C672.490417,610.464050 670.707275,610.635132 668.924072,610.806213 
      C668.191895,610.757141 667.459656,610.708069 666.117188,610.637817 
      C665.333252,610.679504 665.159546,610.742371 664.985779,610.805176 
      C664.824585,610.763184 664.664368,610.717041 664.502136,610.679688 
      C656.471375,608.833496 650.283936,611.556885 643.040649,615.794556 
      C620.256836,629.124268 595.007751,633.088196 568.622192,632.506409 
      C555.741516,632.222412 548.307678,626.962341 542.253052,616.194031 
      C534.364197,602.163513 527.379883,588.073853 528.990784,571.559448 
      C529.689331,564.398071 532.071289,557.368408 534.106934,550.401184 
      C534.456116,549.205750 536.975830,547.802856 538.382507,547.912476 
      C542.996826,548.272339 547.542480,549.455383 552.154785,549.933289 
      C553.392029,550.061462 554.772644,548.805786 556.087402,548.185425 
      C554.989075,547.168030 554.028687,545.521057 552.768005,545.245056 
      C547.972351,544.194946 543.079773,543.587708 538.169434,542.806396 
      C540.485596,535.714905 542.200623,534.543884 548.804871,535.216431 
      C549.301270,535.267029 549.841797,535.432312 550.291199,535.301575 
      C552.209473,534.743652 554.101196,534.094543 556.002625,533.478699 
      C554.493652,531.956421 552.984619,530.434082 551.139038,528.572266 
      C556.877319,522.829163 565.132507,519.734558 574.121582,519.201172 
      C581.023315,518.791626 588.007507,519.750427 594.953247,520.133118 
      C595.773132,520.178223 596.688660,520.744934 597.372925,520.514587 
      C598.684570,520.072998 599.862000,519.232544 601.095093,518.557617 
      C600.180847,517.371338 599.372437,515.263123 598.335693,515.144104 
      C589.813049,514.165771 581.217773,512.736755 572.703552,513.049561 
      C562.675293,513.417908 553.916504,518.194031 545.981873,524.294678 
      C544.063049,525.769897 542.004822,527.063782 539.583679,528.736023 
      C538.358459,520.656677 537.339539,513.359863 536.110901,506.098511 
      C535.557617,502.828339 535.204041,499.300781 533.693787,496.456085 
      C528.076965,485.876862 529.645264,475.108337 532.353638,463.697845 
      C552.486877,465.558533 571.552063,472.090759 590.820679,480.285645 
      C592.601379,481.021118 593.801270,481.484894 595.001221,481.948700 
      C597.103760,483.065369 599.206299,484.182068 601.701843,485.450256 
    z"/>
    <path fill="#EFD4BA" opacity="1.000000" stroke="none" 
      d="
    M419.687195,639.189087 
      C413.439056,643.086182 406.638184,640.168579 400.082123,640.764465 
      C399.619843,640.806396 398.845795,637.652222 398.253937,635.971069 
      C397.587860,634.079102 396.963989,632.172180 396.321777,630.271790 
      C395.145874,632.196716 393.630493,634.003235 392.904297,636.085022 
      C392.349609,637.675110 392.794037,639.613770 392.794037,642.012146 
      C390.427643,642.012146 388.491150,641.968079 386.557343,642.021179 
      C382.511322,642.132263 381.423645,639.699768 381.560760,636.245483 
      C381.600037,635.255920 382.212280,634.141418 381.914703,633.318054 
      C381.365601,631.798584 380.337860,630.452026 379.509521,629.033447 
      C378.286926,630.194458 376.742828,631.173706 375.949554,632.577332 
      C375.377411,633.589661 376.003754,635.208923 375.734253,636.480957 
      C375.418365,637.971924 374.710815,639.379944 374.173157,640.823914 
      C372.472626,640.017700 370.209534,639.650146 369.175690,638.324219 
      C365.909149,634.134521 365.961548,626.718018 369.803528,623.105896 
      C376.667725,616.652222 384.082001,610.783508 391.635620,604.661499 
      C416.266785,615.449158 440.769257,612.731445 465.226318,605.656555 
      C487.001678,599.357422 506.913727,589.826965 521.204346,571.246521 
      C521.451172,570.925598 521.947754,570.796631 521.589355,571.002747 
      C523.490173,581.863281 525.413818,592.854370 527.137329,602.702026 
      C511.537689,604.393555 494.837921,605.662231 478.322083,608.151245 
      C462.520599,610.532471 447.153717,614.992798 432.706085,622.091736 
      C425.691589,625.538330 419.975189,630.106262 419.687195,639.189087 
    z"/>
    <path fill="#EFD4BA" opacity="1.000000" stroke="none" 
      d="
    M488.359497,644.282715 
      C478.321777,645.594482 468.605621,646.532410 458.963623,647.968384 
      C452.719971,648.898315 452.447571,648.890869 452.245300,642.696960 
      C452.199066,641.281921 451.196930,639.898010 450.634735,638.499817 
      C449.405823,639.602844 447.834778,640.508728 447.051514,641.868469 
      C446.371582,643.048828 446.885162,644.874329 446.319214,646.174316 
      C445.712280,647.568481 444.685699,649.350647 443.440521,649.769592 
      C441.296082,650.491211 439.022278,649.821716 438.773376,646.931030 
      C438.576080,644.639038 438.886719,642.298401 438.625000,640.019104 
      C438.492279,638.863098 437.593384,637.795044 437.040833,636.687256 
      C435.967041,637.478333 434.210999,638.090393 433.947632,639.094116 
      C433.162476,642.086365 432.963196,645.232422 432.489502,648.646545 
      C428.428406,649.378601 427.283783,646.312866 425.946960,643.036499 
      C425.188171,634.815796 428.887756,629.857056 436.137177,627.032410 
      C465.578979,615.561035 495.779022,608.322144 527.675903,610.052734 
      C530.806580,610.222534 532.896729,611.143616 534.460754,614.017639 
      C537.002380,618.688232 539.969116,623.126892 542.722778,627.683777 
      C542.957642,628.072510 542.940491,628.613586 543.219971,629.928772 
      C540.923828,629.743469 538.906372,629.717712 536.936157,629.399536 
      C523.809387,627.278992 510.709534,624.985718 497.564301,622.989563 
      C492.581482,622.232971 488.102570,623.883728 485.661804,628.504395 
      C483.247253,633.075439 484.288208,637.512573 487.648071,641.450562 
      C488.236938,642.140747 488.369324,643.220459 488.359497,644.282715 
    z"/>
    <path fill="#3A0E0C" opacity="1.000000" stroke="none" 
      d="
    M669.178284,611.048706 
      C670.707275,610.635132 672.490417,610.464050 674.661865,610.226746 
      C674.028809,614.767151 671.418701,611.479187 669.178284,611.048706 
    z"/>
    <path fill="#3A0E0C" opacity="1.000000" stroke="none" 
      d="
    M594.931152,481.626129 
      C593.801270,481.484894 592.601379,481.021118 591.189087,480.311340 
      C592.271545,480.478088 593.566345,480.890839 594.931152,481.626129 
    z"/>
    <path fill="#3A0E0C" opacity="1.000000" stroke="none" 
      d="
    M665.087402,610.935486 
      C665.159546,610.742371 665.333252,610.679504 665.759399,610.731079 
      C666.011902,610.845459 665.640320,611.146667 665.640320,611.146667 
      C665.640320,611.146667 665.188965,611.065796 665.087402,610.935486 
    z"/>
    <path fill="#3A0E0C" opacity="1.000000" stroke="none" 
      d="
    M667.088135,553.848877 
      C666.643188,553.542664 666.369324,553.056030 666.116943,552.283203 
      C666.512085,552.554199 666.885620,553.111328 667.088135,553.848877 
    z"/>
    <path fill="#390A06" opacity="1.000000" stroke="none" 
      d="
    M488.037903,542.204163 
      C483.728607,542.216125 479.317932,542.802551 475.140900,542.065186 
      C471.553741,541.431885 467.390442,540.121277 464.948914,537.656921 
      C456.652618,529.282837 452.706635,516.179810 458.984924,505.297913 
      C465.501099,494.003754 479.164978,488.351105 491.038055,492.028290 
      C506.465240,496.806244 514.003845,517.189880 504.590546,530.593018 
      C496.663696,531.828125 489.813202,533.392639 488.037903,542.204163 
    M473.857605,514.674744 
      C472.057251,514.056274 470.242279,512.886108 468.459564,512.933350 
      C464.677185,513.033508 461.615814,514.919739 461.234924,518.997498 
      C460.917328,522.397400 463.012238,524.637817 466.389801,525.159363 
      C470.502167,525.794250 473.602783,524.107117 474.825562,520.071655 
      C475.246796,518.681458 474.515747,516.942139 473.857605,514.674744 
    z"/>
    <path fill="#390A06" opacity="1.000000" stroke="none" 
      d="
    M391.001587,564.021240 
      C381.631226,559.105957 376.076355,551.670166 377.283783,540.789062 
      C378.561462,529.274841 383.715668,519.666016 395.742950,516.835388 
      C404.899139,514.680542 414.811218,514.188843 422.363617,521.662048 
      C430.220337,529.436340 430.364410,539.500427 427.344055,549.102173 
      C424.941986,556.738342 417.773163,560.622986 410.104218,563.730835 
      C406.484131,562.906555 403.492249,561.708374 400.544312,561.808228 
      C397.342102,561.916565 394.180756,563.232117 391.001587,564.021240 
    M388.752960,547.911316 
      C392.503357,548.111023 395.475922,546.620483 396.270691,542.929749 
      C396.644775,541.192810 395.884796,538.052612 394.645813,537.381592 
      C392.434937,536.184265 389.217438,535.548401 386.902405,536.255127 
      C385.080719,536.811279 383.140320,539.583435 382.753815,541.651733 
      C382.103149,545.133850 384.946960,546.822571 388.752960,547.911316 
    z"/>
    <path fill="#3A0E0C" opacity="1.000000" stroke="none" 
      d="
    M491.785461,446.837463 
      C496.309357,440.679016 500.154968,434.362854 505.170319,429.178192 
      C510.349670,423.823944 514.080688,425.160889 516.191956,432.285828 
      C519.304871,442.790833 520.383484,453.493591 518.178406,464.327148 
      C516.918518,470.516907 514.405701,471.593689 508.580811,468.807465 
      C503.787018,466.514496 499.008545,464.189301 494.206390,461.914001 
      C487.585632,458.777039 487.255859,458.020874 489.865387,451.302734 
      C490.406281,449.910187 491.033508,448.551178 491.785461,446.837463 
    M500.236816,443.837311 
      C498.520203,447.164429 496.803589,450.491547 494.916046,454.149963 
      C501.236481,457.159180 506.842773,459.828400 514.120056,463.293182 
      C513.088867,452.197174 512.188477,442.507996 511.288025,432.818848 
      C510.596100,432.608246 509.904205,432.397614 509.212280,432.187012 
      C506.360413,435.870300 503.508575,439.553589 500.236816,443.837311 
    z"/>
    <path fill="#3A0E0C" opacity="1.000000" stroke="none" 
      d="
    M345.416382,480.879700 
      C345.327972,471.603333 347.872650,469.814392 355.815765,473.545959 
      C361.004913,475.983704 366.111267,478.671875 370.987366,481.681122 
      C376.025177,484.790161 375.902283,486.389221 372.987854,491.275604 
      C368.587372,498.653534 364.674561,506.320953 360.441986,513.801697 
      C359.710632,515.094421 358.445648,516.940857 357.384888,516.969543 
      C356.131256,517.003540 354.051819,515.583740 353.676758,514.376038 
      C350.940399,505.564789 348.472809,496.667114 346.090179,487.751343 
      C345.540771,485.695435 345.648682,483.463898 345.416382,480.879700 
    M357.676300,503.902649 
      C360.978973,498.138733 364.281677,492.374817 367.998932,485.887451 
      C362.769135,483.224335 357.575653,480.579681 352.382172,477.935028 
      C351.896332,478.228577 351.410492,478.522125 350.924652,478.815643 
      C352.395630,487.104706 353.843292,495.398163 355.411957,503.668671 
      C355.484253,504.049713 356.642456,504.224792 357.676300,503.902649 
    z"/>
    <path fill="#390A06" opacity="1.000000" stroke="none" 
      d="
    M455.282471,549.257202 
      C452.446075,555.155945 453.233093,557.324829 458.334564,561.840759 
      C461.348755,564.508911 464.426117,567.478088 466.319427,570.943359 
      C468.565063,575.053528 467.500732,579.462891 463.768707,582.641663 
      C459.891968,585.943787 455.526917,587.530884 450.424255,585.411499 
      C446.446594,583.759521 444.925720,580.345947 445.241364,576.594238 
      C445.610931,572.201538 446.721130,567.809631 448.013977,563.571045 
      C449.796082,557.728455 447.880524,554.142700 442.215912,551.848999 
      C440.162140,551.017395 437.904114,548.454773 437.552094,546.375122 
      C437.278717,544.760010 439.416504,541.903564 441.201904,540.960022 
      C444.204498,539.373291 447.722687,538.453918 451.123871,537.996155 
      C457.554749,537.130554 459.542053,539.964233 457.005737,545.807678 
      C456.544952,546.869324 455.986694,547.888672 455.282471,549.257202 
    M460.008789,570.926147 
      C458.634949,568.864807 457.261139,566.803467 455.747711,564.532654 
      C450.054749,571.813660 448.822784,576.898071 451.896393,579.336609 
      C453.284607,580.437988 456.315613,580.632629 458.040314,579.906311 
      C461.762360,578.338928 462.083954,575.082275 460.008789,570.926147 
    M451.002777,546.262390 
      C451.264252,545.273071 451.525757,544.283752 452.078552,542.192383 
      C448.400940,543.455627 445.673492,544.392517 442.059631,545.633850 
      C445.556976,548.143127 447.844604,550.189575 451.002777,546.262390 
    z"/>
    <path fill="#EA9B86" opacity="1.000000" stroke="none" 
      d="
    M488.198059,542.501648 
      C489.813202,533.392639 496.663696,531.828125 504.429626,530.908936 
      C508.307068,533.102539 512.124390,535.109985 510.253174,540.501099 
      C508.475189,545.623474 504.699402,547.127319 499.732574,546.942322 
      C495.476410,546.783813 490.858643,547.732605 488.198059,542.501648 
    z"/>
    <path fill="#EA9B86" opacity="1.000000" stroke="none" 
      d="
    M391.009155,564.430115 
      C394.180756,563.232117 397.342102,561.916565 400.544312,561.808228 
      C403.492249,561.708374 406.484131,562.906555 409.755066,563.795410 
      C411.747803,568.582764 411.287445,572.461548 406.880615,575.305298 
      C403.327209,577.598389 395.147339,577.742554 392.167175,575.387878 
      C388.237335,572.282898 390.512177,568.453918 391.009155,564.430115 
    z"/>
    <path fill="#EFD4BA" opacity="1.000000" stroke="none" 
      d="
    M474.084351,515.018555 
      C474.515747,516.942139 475.246796,518.681458 474.825562,520.071655 
      C473.602783,524.107117 470.502167,525.794250 466.389801,525.159363 
      C463.012238,524.637817 460.917328,522.397400 461.234924,518.997498 
      C461.615814,514.919739 464.677185,513.033508 468.459564,512.933350 
      C470.242279,512.886108 472.057251,514.056274 474.084351,515.018555 
    z"/>
    <path fill="#EFD4BA" opacity="1.000000" stroke="none" 
      d="
    M388.368866,547.860413 
      C384.946960,546.822571 382.103149,545.133850 382.753815,541.651733 
      C383.140320,539.583435 385.080719,536.811279 386.902405,536.255127 
      C389.217438,535.548401 392.434937,536.184265 394.645813,537.381592 
      C395.884796,538.052612 396.644775,541.192810 396.270691,542.929749 
      C395.475922,546.620483 392.503357,548.111023 388.368866,547.860413 
    z"/>
    <path fill="#EA9B86" opacity="1.000000" stroke="none" 
      d="
    M500.446777,443.537079 
      C503.508575,439.553589 506.360413,435.870300 509.212280,432.187012 
      C509.904205,432.397614 510.596100,432.608246 511.288025,432.818848 
      C512.188477,442.507996 513.088867,452.197174 514.120056,463.293182 
      C506.842773,459.828400 501.236481,457.159180 494.916046,454.149963 
      C496.803589,450.491547 498.520203,447.164429 500.446777,443.537079 
    z"/>
    <path fill="#EA9B86" opacity="1.000000" stroke="none" 
      d="
    M357.485596,504.199219 
      C356.642456,504.224792 355.484253,504.049713 355.411957,503.668671 
      C353.843292,495.398163 352.395630,487.104706 350.924652,478.815643 
      C351.410492,478.522125 351.896332,478.228577 352.382172,477.935028 
      C357.575653,480.579681 362.769135,483.224335 367.998932,485.887451 
      C364.281677,492.374817 360.978973,498.138733 357.485596,504.199219 
    z"/>
    <path fill="#EA9B86" opacity="1.000000" stroke="none" 
      d="
    M460.211700,571.260498 
      C462.083954,575.082275 461.762360,578.338928 458.040314,579.906311 
      C456.315613,580.632629 453.284607,580.437988 451.896393,579.336609 
      C448.822784,576.898071 450.054749,571.813660 455.747711,564.532654 
      C457.261139,566.803467 458.634949,568.864807 460.211700,571.260498 
    z"/>
    <path fill="#EA9B86" opacity="1.000000" stroke="none" 
      d="
    M450.823792,546.590515 
      C447.844604,550.189575 445.556976,548.143127 442.059631,545.633850 
      C445.673492,544.392517 448.400940,543.455627 452.078552,542.192383 
      C451.525757,544.283752 451.264252,545.273071 450.823792,546.590515 
    z"/>
  </g>
</svg>